<svg width="137" height="137" viewBox="0 0 137 137" fill="none" xmlns="http://www.w3.org/2000/svg">
<g clip-path="url(#clip0_1197_11474)">
<mask id="mask0_1197_11474" style="mask-type:luminance" maskUnits="userSpaceOnUse" x="0" y="0" width="137" height="137">
<path d="M137 0H0V137H137V0Z" fill="white"/>
</mask>
<g mask="url(#mask0_1197_11474)">
<path d="M110.977 45.8505C110.344 45.8505 109.737 45.5987 109.288 45.1495C103.566 39.4045 97.7071 33.5303 91.978 27.7854C91.5284 27.3361 91.2832 26.7303 91.2832 26.0973C91.2832 25.4643 91.5353 24.8584 91.9849 24.416C94.0421 22.374 96.2561 20.1754 98.3406 18.0993C98.7902 17.6569 99.3897 17.405 100.023 17.405C100.657 17.405 101.263 17.6569 101.706 18.1061L119.002 35.4566C119.928 36.3891 119.928 37.8934 119.002 38.826C117.224 40.5957 115.255 42.5629 113.321 44.496L112.667 45.1495C112.217 45.5987 111.611 45.8437 110.984 45.8437L110.977 45.8505ZM97.0395 26.1177C101.665 30.7531 106.359 35.4634 110.977 40.0988C111.979 39.0982 112.98 38.1044 113.947 37.1379L100.016 23.1636C99.0287 24.1505 98.0273 25.1443 97.0395 26.1177Z" fill="#343434"/>
<path d="M30.1511 126.558C29.5176 126.558 28.9113 126.306 28.4685 125.857C22.7803 120.16 16.915 114.279 11.1656 108.514C10.2391 107.581 10.2391 106.077 11.1656 105.144L82.68 33.7343C83.1296 33.2851 83.7358 33.04 84.3626 33.04C84.9961 33.04 85.6024 33.2919 86.052 33.7411L103.361 51.112C104.288 52.0446 104.288 53.5489 103.361 54.4814C88.0003 69.8102 72.5843 85.2004 57.1547 100.597L31.8338 125.871C31.3841 126.32 30.7779 126.565 30.1511 126.565V126.558ZM16.2202 106.839C20.8593 111.488 25.5597 116.198 30.158 120.807L53.7894 97.2211C68.6536 82.3892 83.5042 67.5572 98.3139 52.7865L84.3694 38.7918L16.2202 106.839Z" fill="#343434"/>
<mask id="mask1_1197_11474" style="mask-type:luminance" maskUnits="userSpaceOnUse" x="10" y="33" width="95" height="94">
<path d="M30.1511 126.558C29.5176 126.558 28.9113 126.306 28.4685 125.857C22.7803 120.16 16.915 114.279 11.1656 108.514C10.2391 107.581 10.2391 106.077 11.1656 105.144L82.68 33.7343C83.1296 33.2851 83.7358 33.04 84.3626 33.04C84.9961 33.04 85.6024 33.2919 86.052 33.7411L103.361 51.112C104.288 52.0446 104.288 53.5489 103.361 54.4814C88.0003 69.8102 72.5843 85.2004 57.1547 100.597L31.8338 125.871C31.3841 126.32 30.7779 126.565 30.1511 126.565V126.558ZM16.2202 106.839C20.8593 111.488 25.5597 116.198 30.158 120.807L53.7894 97.2211C68.6536 82.3892 83.5042 67.5572 98.3139 52.7865L84.3694 38.7918L16.2202 106.839Z" fill="white"/>
</mask>
<g mask="url(#mask1_1197_11474)">
<path d="M30.1507 126.558H92.1507V64.5584H30.1507V126.558ZM28.4681 125.857L72.6248 82.3351L72.4847 82.193L72.3437 82.0517L28.4681 125.857ZM11.1652 108.514L-32.8184 152.211L-32.7771 152.252L-32.7358 152.294L11.1652 108.514ZM11.1652 105.144L-32.6434 61.2717L-32.7311 61.3592L-32.8184 61.4471L11.1652 105.144ZM82.6796 33.7344L126.488 77.6071L126.495 77.5998L126.503 77.5925L82.6796 33.7344ZM86.0516 33.7412L129.969 -10.0221L129.922 -10.0695L129.875 -10.1168L86.0516 33.7412ZM103.361 51.1121L147.345 7.41489L147.312 7.38184L147.279 7.34882L103.361 51.1121ZM103.361 54.4815L147.155 98.3687L147.25 98.2739L147.345 98.1787L103.361 54.4815ZM57.1543 100.597L13.3602 56.7103L13.3547 56.7158L57.1543 100.597ZM31.8334 125.871L-11.9662 81.9893L-11.978 82.0011L-11.9898 82.0129L31.8334 125.871ZM30.1507 126.565H-31.8493V188.565H30.1507V126.565ZM16.2198 106.839L-27.588 62.9658L-71.4473 106.76L-27.6676 150.633L16.2198 106.839ZM30.1576 120.807L-13.7305 164.6L30.0674 208.493L73.9554 164.69L30.1576 120.807ZM53.789 97.2212L9.99608 53.3331L9.99121 53.3379L53.789 97.2212ZM98.3135 52.7866L142.096 96.685L185.974 52.9231L142.233 9.02477L98.3135 52.7866ZM84.369 38.7919L128.288 -4.96997L84.4805 -48.9353L40.5611 -5.08152L84.369 38.7919ZM30.1507 64.5584C45.9538 64.5584 61.3021 70.8473 72.6248 82.3351L-15.6886 169.379C-3.48025 181.766 13.0807 188.558 30.1507 188.558V64.5584ZM72.3437 82.0517C66.6699 76.3688 60.8163 70.4996 55.0661 64.7335L-32.7358 152.294C-26.9871 158.058 -21.11 163.951 -15.4075 169.663L72.3437 82.0517ZM55.1487 64.8165C78.2442 88.0633 78.2442 125.595 55.1487 148.841L-32.8184 61.4471C-57.7668 86.559 -57.7668 127.099 -32.8184 152.211L55.1487 64.8165ZM54.9737 149.017L126.488 77.6071L38.871 -10.1382L-32.6434 61.2717L54.9737 149.017ZM126.503 77.5925C115.133 88.9532 99.8947 95.0401 84.3622 95.0401V-28.9599C67.5762 -28.9599 51.1254 -22.3829 38.8564 -10.1236L126.503 77.5925ZM84.3622 95.0401C68.4756 95.0401 53.3442 88.7062 42.2284 77.5993L129.875 -10.1168C117.86 -22.1223 101.516 -28.9599 84.3622 -28.9599V95.0401ZM42.1338 77.5045L59.4436 94.8754L147.279 7.34882L129.969 -10.0221L42.1338 77.5045ZM59.3778 94.8094C36.2823 71.5626 36.2823 34.0311 59.3778 10.7843L147.345 98.1787C172.293 73.0668 172.293 32.5268 147.345 7.41489L59.3778 94.8094ZM59.5674 10.5943C44.4444 25.6851 28.5382 41.5644 13.3602 56.7103L100.948 144.484C116.629 128.836 131.555 113.936 147.155 98.3687L59.5674 10.5943ZM13.3547 56.7158L-11.9662 81.9893L75.6329 169.753L100.954 144.479L13.3547 56.7158ZM-11.9898 82.0129C-0.619551 70.6517 14.6189 64.5653 30.1507 64.5653V188.565C46.936 188.565 63.3871 181.989 75.6565 169.729L-11.9898 82.0129ZM92.1507 126.565V126.558H-31.8493V126.565H92.1507ZM-27.6676 150.633C-23.0272 155.283 -18.3285 159.992 -13.7305 164.6L74.0456 77.0136C69.4472 72.4052 64.745 67.6932 60.1073 63.0455L-27.6676 150.633ZM73.9554 164.69L97.5869 141.104L9.99121 53.3379L-13.6403 76.9234L73.9554 164.69ZM97.582 141.109C112.48 126.243 127.286 111.456 142.096 96.685L54.5308 8.88821C39.7216 23.6584 24.826 38.5352 9.99608 53.3331L97.582 141.109ZM142.233 9.02477L128.288 -4.96997L40.4497 82.5537L54.3943 96.5484L142.233 9.02477ZM40.5611 -5.08152L-27.588 62.9658L60.0276 150.713L128.177 82.6652L40.5611 -5.08152Z" fill="#343434"/>
</g>
<path d="M2.38501 137C1.75828 137 1.152 136.755 0.702393 136.306C0.123356 135.727 -0.121883 134.89 0.062047 134.087L3.72701 118.084C3.91775 117.24 4.5581 116.566 5.39599 116.328C6.22708 116.083 7.12629 116.328 7.73939 116.934L20.0558 129.274C20.6689 129.887 20.9006 130.786 20.6553 131.616C20.4101 132.446 19.7425 133.086 18.8978 133.277C13.7682 134.448 8.55004 135.646 2.91636 136.939C2.73924 136.98 2.56212 137 2.38501 137ZM7.4124 123.353L5.55949 131.446C8.32524 130.813 11.0093 130.193 13.6388 129.594L7.4124 123.353Z" fill="#343434"/>
<mask id="mask2_1197_11474" style="mask-type:luminance" maskUnits="userSpaceOnUse" x="0" y="116" width="21" height="22">
<path d="M2.38501 137C1.75828 137 1.152 136.755 0.702393 136.306C0.123356 135.727 -0.121883 134.89 0.062047 134.087L3.72701 118.084C3.91775 117.24 4.5581 116.566 5.39599 116.328C6.22708 116.083 7.12629 116.328 7.73939 116.934L20.0558 129.274C20.6689 129.887 20.9006 130.786 20.6553 131.616C20.4101 132.446 19.7425 133.086 18.8978 133.277C13.7682 134.448 8.55004 135.646 2.91636 136.939C2.73924 136.98 2.56212 137 2.38501 137ZM7.4124 123.353L5.55949 131.446C8.32524 130.813 11.0093 130.193 13.6388 129.594L7.4124 123.353Z" fill="white"/>
</mask>
<g mask="url(#mask2_1197_11474)">
<path d="M0.0622482 134.087L-60.3731 120.246L-60.3734 120.247L0.0622482 134.087ZM3.7272 118.084L64.1625 131.925L64.1825 131.838L64.2022 131.751L3.7272 118.084ZM5.39619 116.328L22.3524 175.964L22.6418 175.882L22.9305 175.797L5.39619 116.328ZM7.73959 116.934L51.6233 73.1363L51.4707 72.9834L51.3171 72.8316L7.73959 116.934ZM20.056 129.274L-23.8277 173.072L-23.7974 173.102L-23.7671 173.132L20.056 129.274ZM18.898 133.277L5.25211 72.7971L5.17702 72.8142L5.10197 72.8313L18.898 133.277ZM2.91656 136.939L-10.9555 76.5107L-10.9849 76.5175L-11.0142 76.5242L2.91656 136.939ZM7.4126 123.353L51.3076 79.5664L-27.9712 0.0905762L-53.0237 109.516L7.4126 123.353ZM5.55968 131.446L-54.8766 117.609L-76.9287 213.929L19.3927 191.883L5.55968 131.446ZM13.639 129.594L27.4097 190.046L136.683 165.154L57.5339 85.8082L13.639 129.594ZM2.38521 75.0002C17.9178 75.0002 33.156 81.0871 44.5258 92.4478L-43.1206 180.164C-30.8516 192.423 -14.4008 199 2.38521 199V75.0002ZM44.5258 92.4478C58.9348 106.845 65.1151 127.763 60.4979 147.926L-60.3734 120.247C-65.3585 142.017 -58.6877 164.609 -43.1206 180.164L44.5258 92.4478ZM60.4976 147.928L64.1625 131.925L-56.7081 104.243L-60.3731 120.246L60.4976 147.928ZM64.2022 131.751C59.3507 153.219 43.1617 170.048 22.3524 175.964L-11.56 56.6917C-34.0451 63.0848 -51.5148 81.2615 -56.7478 104.418L64.2022 131.751ZM22.9305 175.797C1.17557 182.211 -21.103 175.595 -35.8379 161.036L51.3171 72.8316C35.356 57.0604 11.279 49.9547 -12.138 56.8591L22.9305 175.797ZM-36.1441 160.731L-23.8277 173.072L63.9397 85.477L51.6233 73.1363L-36.1441 160.731ZM-23.7671 173.132C-39.1065 157.805 -45.0442 135.18 -38.8058 114.056L80.1168 149.176C86.8457 126.391 80.4448 101.969 63.8792 85.4164L-23.7671 173.132ZM-38.8058 114.056C-32.858 93.9158 -16.4102 77.6847 5.25211 72.7971L32.5438 193.756C55.8956 188.488 73.6786 170.977 80.1168 149.176L-38.8058 114.056ZM5.10197 72.8313C-0.0727367 74.0123 -5.33045 75.2194 -10.9555 76.5107L16.7887 197.367C22.4309 196.072 27.6095 194.883 32.694 193.722L5.10197 72.8313ZM-11.0142 76.5242C-6.74468 75.5397 -2.2499 75.0002 2.38521 75.0002V199C7.37455 199 12.2236 198.42 16.8473 197.354L-11.0142 76.5242ZM-53.0237 109.516L-54.8766 117.609L65.996 145.282L67.8489 137.189L-53.0237 109.516ZM19.3927 191.883C22.3373 191.209 24.7888 190.643 27.4097 190.046L-0.13176 69.1431C-2.76989 69.744 -5.68641 70.4166 -8.27328 71.0087L19.3927 191.883ZM57.5339 85.8082L51.3076 79.5664L-36.4824 167.139L-30.256 173.381L57.5339 85.8082Z" fill="#343434"/>
</g>
</g>
<mask id="path-9-inside-1_1197_11474" fill="white">
<path d="M109.346 7.38415C112.47 4.25996 117.536 4.25996 120.66 7.38415L129.156 15.8801C132.28 19.0043 132.28 24.0696 129.156 27.1938L126.121 30.2284C125.34 31.0095 124.074 31.0095 123.293 30.2284L106.311 13.2472C105.53 12.4662 105.53 11.1998 106.311 10.4188L109.346 7.38415Z"/>
</mask>
<path d="M109.346 7.38415C112.47 4.25996 117.536 4.25996 120.66 7.38415L129.156 15.8801C132.28 19.0043 132.28 24.0696 129.156 27.1938L126.121 30.2284C125.34 31.0095 124.074 31.0095 123.293 30.2284L106.311 13.2472C105.53 12.4662 105.53 11.1998 106.311 10.4188L109.346 7.38415Z" stroke="#343434" stroke-width="9" mask="url(#path-9-inside-1_1197_11474)"/>
</g>
<defs>
<clipPath id="clip0_1197_11474">
<rect width="137" height="137" fill="white"/>
</clipPath>
</defs>
</svg>
