<svg width="105" height="32" viewBox="0 0 105 32" fill="none" xmlns="http://www.w3.org/2000/svg">
<path d="M98.93 31.2479C98.5915 31.0786 98.2531 30.9155 97.9207 30.7281C96.319 29.8396 95.4184 28.0445 95.7327 26.3945C96.0954 24.5208 97.6124 23.0763 99.4136 22.907C101.384 22.7197 103.052 23.6565 103.832 25.3912C103.989 25.7357 104.122 26.0862 104.267 26.4307V27.694C103.735 29.4044 102.635 30.5891 100.961 31.2418H98.924L98.93 31.2479Z" fill="#A6a6a6"/>
<path d="M24.5639 30.7341H17.7643V15.3519C15.6247 15.3519 13.612 15.3217 11.5993 15.4003C11.4301 15.4063 11.1641 16.1256 11.158 16.5124C11.1278 20.6889 11.1399 24.8653 11.1339 29.0418C11.1339 30.2063 10.5295 30.7885 9.32066 30.7885C7.67667 30.7885 6.02663 30.7885 4.18318 30.7885V15.3157C3.02272 15.3157 2.04963 15.3761 1.09466 15.2854C0.762237 15.2552 0.206187 14.8624 0.194099 14.6145C0.115526 12.9464 0.151786 11.2661 0.151786 9.46498H4.05624C4.09855 8.93915 4.15298 8.52815 4.15902 8.1232C4.24364 3.54178 6.47993 0.876335 11.0493 0.217529C12.796 -0.0363227 14.5971 0.0906032 16.3741 0.0603827C16.7851 0.0543386 17.2021 0.102691 17.7703 0.132912C17.7703 1.92196 17.8005 3.63848 17.728 5.34896C17.7219 5.5605 17.1719 5.89897 16.8577 5.92315C15.8906 6.00172 14.9114 5.94732 13.9383 5.95941C11.6476 5.97755 10.8498 6.97482 11.3091 9.40454H24.5518V30.7402L24.5639 30.7341Z" fill="#A6a6a6"/>
<path d="M81.3418 30.7282V15.5877C77.0022 14.7295 74.9351 15.6542 74.8384 20.0604C74.7598 23.5599 74.8203 27.0594 74.8203 30.6798H67.8817V9.51948H74.7478C74.7841 10.3596 74.8203 11.1876 74.8626 12.1728C75.0983 11.9008 75.2918 11.7256 75.4247 11.514C76.2165 10.2871 77.3769 9.54366 78.7852 9.50135C81.916 9.40464 85.0469 9.47113 88.3107 9.47113C88.3711 10.2992 88.4255 11.0728 88.5101 12.2393C90.2327 9.17497 92.8498 9.29585 95.6543 9.51343C95.6543 11.2783 95.6784 12.9888 95.618 14.6993C95.6119 14.9108 95.1586 15.2614 94.8806 15.2855C94.0405 15.3641 93.1883 15.3158 92.3421 15.3218C89.9849 15.3399 88.6552 16.4279 88.5464 18.8032C88.3893 22.1698 88.4497 25.5484 88.4135 28.921C88.4074 29.5012 88.3591 30.0815 88.3228 30.7221H81.3418V30.7282Z" fill="#A6a6a6"/>
<path d="M51.8647 21.7345C51.9856 23.5719 52.8076 24.7022 54.3791 25.1434C56.0956 25.6269 57.8061 25.6148 59.0391 24.1219C59.577 23.4752 60.0061 23.3906 60.7254 23.6082C62.3331 24.1038 63.965 24.539 65.8447 25.0769C65.4458 25.7841 65.186 26.4308 64.7689 26.9566C61.8134 30.6919 57.8182 31.5864 53.3758 30.7402C49.0482 29.9182 46.3646 27.144 45.2283 22.9736C43.6327 17.1047 46.6427 11.0848 51.9857 9.61008C58.066 7.93587 64.4606 10.154 66.02 17.1108C66.0321 17.1531 66.0442 17.1894 66.0563 17.2317C66.9508 21.4081 66.697 21.7285 62.4963 21.7285C59.4018 21.7285 56.3071 21.7285 53.2186 21.7285C52.7713 21.7285 52.318 21.7285 51.8587 21.7285L51.8647 21.7345ZM51.901 17.5339H59.3111C59.0754 15.3701 57.6792 14.2519 55.3703 14.3003C53.2368 14.3426 52.034 15.4426 51.901 17.5339Z" fill="#A6a6a6"/>
<path d="M25.1258 9.43491C27.2835 9.43491 29.3868 9.3926 31.4841 9.48326C31.7863 9.49535 32.1913 10.1058 32.3182 10.5168C33.3518 13.8108 34.3369 17.123 35.3342 20.4291C35.443 20.7857 35.5579 21.1363 35.7574 21.7648C36.7365 18.5433 37.6491 15.5757 38.5376 12.602C39.4503 9.54975 39.4442 9.5437 42.6234 9.5437C43.8383 9.5437 45.0592 9.5437 46.5158 9.5437C46.1652 10.5349 45.9053 11.3146 45.6213 12.0883C43.4877 17.945 41.3361 23.7957 39.2388 29.6645C38.9365 30.5106 38.5376 30.8672 37.6129 30.8128C36.259 30.7343 34.8991 30.8431 33.5452 30.7584C33.1523 30.7343 32.5721 30.3777 32.4512 30.0392C29.9912 23.4028 27.5918 16.7483 25.1802 10.0937C25.1258 9.94866 25.15 9.77338 25.1197 9.43491H25.1258Z" fill="#A6a6a6"/>
</svg>
