<svg width="54" height="54" viewBox="0 0 54 54" fill="none" xmlns="http://www.w3.org/2000/svg">
<path d="M0 0V44.326L9.58993 54H54V9.67399L44.4101 0H0Z" fill="url(#paint0_linear_20_20)"/>
<path d="M26.3208 38.192C24.6994 38.192 23.1634 37.936 21.7128 37.424C20.2834 36.8907 19.1314 36.1867 18.2568 35.312L19.3768 33.488C20.1021 34.2347 21.0728 34.8533 22.2888 35.344C23.5261 35.8347 24.8701 36.08 26.3208 36.08C28.1768 36.08 29.5954 35.6747 30.5768 34.864C31.5794 34.0533 32.0808 32.9653 32.0808 31.6C32.0808 30.2347 31.5901 29.1467 30.6088 28.336C29.6488 27.5253 28.1234 27.12 26.0328 27.12H24.4328V25.424L31.3448 16.752L31.6648 17.648H19.1848V15.6H33.5848V17.232L26.6728 25.904L25.5528 25.168H26.4167C29.1048 25.168 31.1101 25.7653 32.4328 26.96C33.7768 28.1547 34.4488 29.6907 34.4488 31.568C34.4488 32.8267 34.1501 33.9573 33.5528 34.96C32.9554 35.9627 32.0488 36.752 30.8328 37.328C29.6381 37.904 28.1341 38.192 26.3208 38.192Z" fill="white"/>
<defs>
<linearGradient id="paint0_linear_20_20" x1="27" y1="0" x2="27" y2="54" gradientUnits="userSpaceOnUse">
<stop stop-color="#C6A465"/>
<stop offset="1" stop-color="#605031"/>
</linearGradient>
</defs>
</svg>
