<svg width="339" height="32" viewBox="0 0 339 32" fill="none" xmlns="http://www.w3.org/2000/svg">
<path d="M21.2238 14.8141H29.9756V27.4462C26.3492 29.9243 21.3507 31.2479 16.9566 31.2479C7.31027 31.2479 0.268921 24.8049 0.268921 15.624C0.268921 6.443 7.31033 0 17.1682 0C23.0612 0 27.7937 2.04895 30.8279 5.76002L24.3848 11.4354C22.5051 9.25954 20.3293 8.14743 17.682 8.14743C13.2456 8.14743 10.423 11.0063 10.423 15.6179C10.423 20.2296 13.2396 23.0884 17.549 23.0884C18.7881 23.0884 19.9848 22.8769 21.2177 22.3631V14.808L21.2238 14.8141Z" fill="#A6a6a6"/>
<path d="M54.6476 25.361H43.2968L41.2901 30.571H31.0454L44.1066 0.695068H54.0069L67.0681 30.571H56.6542L54.6476 25.361ZM51.8733 18.102L48.9722 10.5892L46.071 18.102H51.8733Z" fill="#A6a6a6"/>
<path d="M95.3667 30.5649L95.2821 16.9476L88.7968 27.8753H84.3604L77.8751 17.419V30.5649H68.7002V0.688965H76.9806L86.7116 16.6091L96.1887 0.688965H104.469L104.554 30.5649H95.3788H95.3667Z" fill="#A6a6a6"/>
<path d="M138.86 22.3268C138.86 27.5368 134.466 30.5649 126.228 30.5649H109.413V0.688965H125.375C133.614 0.688965 137.458 3.97695 137.458 8.49793C137.458 11.2722 136.049 13.575 133.317 14.9409C136.817 16.2223 138.866 18.785 138.866 22.3268H138.86ZM119.307 7.73033V12.1667H124.004C126.264 12.1667 127.292 11.3991 127.292 9.94851C127.292 8.49793 126.264 7.73033 124.004 7.73033H119.307ZM128.7 21.1784C128.7 19.6432 127.588 18.8333 125.369 18.8333H119.307V23.5296H125.369C127.588 23.5296 128.7 22.7197 128.7 21.1845V21.1784Z" fill="#A6a6a6"/>
<path d="M162.758 25.361H151.407L149.401 30.571H139.156L152.217 0.695068H162.118L175.179 30.571H164.765L162.758 25.361ZM159.984 18.102L157.083 10.5892L154.182 18.102H159.984Z" fill="#A6a6a6"/>
<path d="M196.14 14.8141H204.891V27.4462C201.265 29.9243 196.267 31.2479 191.872 31.2479C182.226 31.2479 175.185 24.8049 175.185 15.624C175.185 6.443 182.226 0 192.084 0C197.977 0 202.71 2.04895 205.744 5.76002L199.301 11.4354C197.421 9.25954 195.245 8.14743 192.598 8.14743C188.161 8.14743 185.339 11.0063 185.339 15.6179C185.339 20.2296 188.155 23.0884 192.465 23.0884C193.704 23.0884 194.901 22.8769 196.134 22.3631V14.808L196.14 14.8141Z" fill="#A6a6a6"/>
<path d="M229.557 25.361H218.207L216.2 30.571H205.955L219.017 0.695068H228.917L241.978 30.571H231.564L229.557 25.361ZM226.783 18.102L223.882 10.5892L220.981 18.102H226.783Z" fill="#A6a6a6"/>
<path d="M270.276 30.5649L270.192 16.9476L263.706 27.8753H259.27L252.785 17.419V30.5649H243.61V0.688965H251.89L261.621 16.6091L271.098 0.688965H279.379L279.463 30.5649H270.288H270.276Z" fill="#A6a6a6"/>
<path d="M309.164 22.9675V30.5649H284.323V0.688965H308.608V8.28638H294.223V11.7859H306.855V19.0388H294.223V22.9675H309.164Z" fill="#A6a6a6"/>
<path d="M311.171 28.1776L314.417 20.834C317.233 22.4962 320.993 23.566 324.274 23.566C327.133 23.566 328.161 22.9676 328.161 21.9461C328.161 18.1928 311.642 21.2208 311.642 10.0816C311.642 4.53312 316.296 0.00610352 325.556 0.00610352C329.569 0.00610352 333.709 0.85832 336.822 2.61111L333.794 9.91236C330.85 8.41947 328.076 7.69418 325.471 7.69418C322.528 7.69418 321.585 8.5464 321.585 9.57389C321.585 13.158 338.103 10.1723 338.103 21.1846C338.103 26.6484 333.449 31.2601 324.19 31.2601C319.197 31.2601 314.157 30.021 311.171 28.1897V28.1776Z" fill="#A6a6a6"/>
</svg>
