<svg width="58" height="20" viewBox="0 0 58 20" fill="none" xmlns="http://www.w3.org/2000/svg">
<path d="M12.8007 2.4676C12.3027 2.93236 11.8527 3.34917 11.3806 3.7918C11.3437 3.75861 11.2662 3.69959 11.1925 3.63688C10.381 2.94343 9.44407 2.56719 8.37807 2.4676C7.28256 2.36801 6.25713 2.57457 5.30548 3.1131C4.41284 3.62213 3.73045 4.33771 3.25462 5.25248C2.6165 6.47709 2.4874 7.76441 2.83412 9.08861C3.35053 11.0731 4.94399 12.5633 6.98378 12.91C7.99445 13.0833 8.98668 13.0022 9.93465 12.6149C11.1777 12.1059 12.063 11.2427 12.4392 9.92223C12.5019 9.70829 12.5388 9.48698 12.5978 9.26935C12.6531 9.0591 12.5757 8.9964 12.3691 8.9964C11.4654 9.00377 10.5654 8.9964 9.66169 8.9964C9.15267 8.9964 8.64365 8.99271 8.13462 8.9964C7.96495 8.9964 7.90224 8.94107 7.90593 8.77139C7.91331 8.29188 7.91331 7.81605 7.90593 7.33653C7.90593 7.17423 7.95019 7.10046 8.12724 7.10046C10.1707 7.10046 12.2179 7.10046 14.2614 7.10046C14.4126 7.10046 14.4901 7.15948 14.5048 7.31071C14.8368 10.1694 13.8741 12.7809 11.0707 14.2084C10.1707 14.6657 9.19693 14.8502 8.18995 14.8834C7.02067 14.9203 5.89934 14.7248 4.83703 14.2305C3.50176 13.6108 2.43207 12.6887 1.65378 11.4309C0.893929 10.1989 0.536137 8.85254 0.602531 7.40662C0.679992 5.7652 1.26648 4.31927 2.33985 3.06884C3.15872 2.11719 4.14726 1.40898 5.32761 0.995856C7.58871 0.199122 9.7576 0.383551 11.7863 1.70775C12.1183 1.92538 12.4244 2.18727 12.8007 2.4676Z" fill="#A6a6a6"/>
<path d="M35.9718 16.3699C36.5509 16.1338 37.1042 15.9051 37.6317 15.6875C37.8677 15.9974 38.0595 16.3109 38.3104 16.5654C39.2989 17.5687 41.0657 17.5466 41.9362 16.5322C42.3088 16.1006 42.4821 15.5842 42.5338 15.0309C42.5707 14.6436 42.5412 14.2527 42.5412 13.81C42.4453 13.8801 42.3752 13.917 42.3198 13.9686C41.5563 14.7248 40.6194 14.9793 39.5829 14.8576C38.0632 14.6805 36.9382 13.8764 36.1894 12.567C35.673 11.667 35.4849 10.6821 35.6435 9.64561C35.8685 8.15911 36.6136 7.00089 37.9194 6.2558C39.203 5.52177 40.5309 5.41849 41.8514 6.20047C42.01 6.29269 42.1391 6.43285 42.2793 6.55089L42.4674 6.70581C42.4932 6.70212 42.5227 6.69474 42.5485 6.69105C42.5633 6.45867 42.5744 6.2226 42.5891 5.9644C43.1608 5.9644 43.7289 5.9644 44.2969 5.97178C44.3375 5.97178 44.3928 6.04924 44.4186 6.10088C44.4408 6.14514 44.426 6.20785 44.426 6.25949C44.426 8.98904 44.4334 11.7186 44.426 14.4481C44.426 15.2965 44.2711 16.1191 43.8875 16.89C43.3637 17.9449 42.5227 18.6126 41.394 18.8966C40.1399 19.2101 38.9116 19.129 37.7755 18.4466C36.964 17.9597 36.3775 17.2736 35.9792 16.3736L35.9718 16.3699ZM37.5579 10.5419C37.5321 11.6153 38.3583 12.7809 39.6751 13.0871C40.5899 13.301 41.6596 12.8694 42.1723 12.0653C42.8104 11.0583 42.8916 10.0034 42.3973 8.91896C41.726 7.4509 39.9997 6.97139 38.7345 7.89722C37.9304 8.48739 37.5653 9.30257 37.5542 10.5456L37.5579 10.5419Z" fill="#A6a6a6"/>
<path d="M24.5843 10.2838C24.5843 12.9026 22.5556 14.9277 19.9293 14.9277C17.3104 14.9277 15.2595 12.9063 15.2559 10.3206C15.2559 7.64641 17.2661 5.63245 19.9367 5.63245C22.5703 5.63245 24.5806 7.6501 24.5806 10.2801L24.5843 10.2838ZM22.5482 10.1399C22.5261 9.99973 22.5076 9.7194 22.4338 9.45751C22.1609 8.48741 21.5486 7.8124 20.5674 7.55789C19.6121 7.31075 18.7674 7.56895 18.0702 8.27347C17.1629 9.18824 17.0485 10.8592 17.8157 11.9768C18.6309 13.1608 20.2133 13.4596 21.3863 12.6297C22.1904 12.0616 22.5334 11.2465 22.5519 10.1399H22.5482Z" fill="#A6a6a6"/>
<path d="M57.2189 12.8695C56.6103 13.7031 55.8836 14.3228 54.932 14.6548C51.7524 15.7577 48.4696 13.4745 48.8016 9.77112C48.9159 8.49487 49.4212 7.41411 50.4172 6.58049C51.9885 5.27104 54.8619 5.10137 56.4517 7.43255C56.7652 7.89363 56.9644 8.42847 57.2226 8.92643C57.3074 9.08873 57.241 9.15143 57.0898 9.21414C55.2086 9.98505 53.3275 10.7633 51.4463 11.5416C51.3356 11.5896 51.225 11.6412 51.0959 11.6966C51.4868 12.4748 52.0696 12.9544 52.9143 13.065C53.984 13.2089 54.8508 12.84 55.5037 11.9769C55.5443 11.9216 55.6734 11.8589 55.7066 11.881C56.2082 12.1982 56.6988 12.5265 57.2189 12.8732V12.8695ZM50.7786 10.1252C52.1582 9.55349 53.5156 8.98914 54.8693 8.42847C54.659 7.71658 53.6225 7.27394 52.7078 7.49157C51.3024 7.83092 50.6643 9.14775 50.7786 10.1252Z" fill="#A6a6a6"/>
<path d="M30.0516 14.8982C27.4401 14.8945 25.4262 12.9027 25.4151 10.317C25.404 7.67594 27.4106 5.69148 30.0479 5.66566C32.5488 5.63984 34.7214 7.57635 34.7029 10.317C34.6845 12.9137 32.6742 14.9019 30.0479 14.8982H30.0516ZM27.4217 10.2727C27.418 10.9366 27.6061 11.5305 27.9971 12.069C28.9524 13.3932 30.9885 13.4781 32.014 12.2092C32.8328 11.1985 32.9361 10.0772 32.3902 8.9153C31.789 7.63905 30.3061 7.09683 29.0262 7.67594C27.9196 8.1739 27.4696 9.10342 27.4254 10.269L27.4217 10.2727Z" fill="#A6a6a6"/>
<path d="M47.8508 14.6328C47.1906 14.6328 46.5672 14.6328 45.9438 14.6291C45.9069 14.6291 45.8516 14.559 45.8368 14.5147C45.8184 14.452 45.8295 14.3783 45.8295 14.3082C45.8295 9.97408 45.8295 5.64368 45.8295 1.3096C45.8295 1.00344 45.8295 1.00344 46.1319 0.999756C46.6041 0.999756 47.0725 0.999756 47.5447 0.999756C47.7488 0.999756 47.852 1.10058 47.8545 1.30222C47.8545 3.62234 47.8545 5.94246 47.8545 8.26258C47.8545 10.2729 47.8545 12.2868 47.8545 14.2971C47.8545 14.3967 47.8545 14.4963 47.8545 14.6291L47.8508 14.6328Z" fill="#A6a6a6"/>
</svg>
