<svg width="137" height="137" viewBox="0 0 137 137" fill="none" xmlns="http://www.w3.org/2000/svg">
<path d="M1.26673e-05 68.4972C-0.0227609 30.881 30.6646 0.0341889 68.1499 2.86034e-05C106.199 -0.0341317 136.989 30.5337 137 68.3605C137.011 106.307 106.33 137.017 68.4288 137C30.6988 136.983 0.0227862 106.273 1.26673e-05 68.4972ZM20.2115 70.5639C15.9529 70.5639 11.6942 70.5866 7.43558 70.5525C5.86989 70.5411 4.86786 70.9681 4.98742 72.7957C5.6934 83.6985 8.97279 93.753 15.0249 102.851C15.4974 103.563 17.1314 104.075 18.0082 103.847C24.0432 102.282 29.9985 100.443 36.0164 98.8201C37.5764 98.3988 38.2653 97.8067 38.0546 96.1101C37.081 88.3272 36.1416 80.5444 35.3047 72.7501C35.1168 70.9852 34.2628 70.5468 32.7142 70.5582C28.5524 70.5923 24.3848 70.5696 20.2229 70.5639H20.2115ZM116.936 70.5639C112.866 70.5639 108.795 70.6208 104.73 70.5354C102.806 70.4955 101.86 71.0136 101.644 73.16C100.875 80.7721 99.9303 88.3671 98.9682 95.9564C98.7347 97.7782 99.4293 98.4045 101.12 98.8486C106.876 100.352 112.627 101.917 118.292 103.728C120.296 104.371 121.377 104.104 122.476 102.327C128.016 93.3886 131.233 83.7213 132.007 73.2227C132.155 71.2072 131.381 70.5012 129.439 70.5297C125.277 70.598 121.11 70.5525 116.948 70.5525L116.936 70.5639ZM20.1204 65.8042C24.0944 65.8042 28.0684 65.7302 32.0367 65.8327C34.2514 65.8896 35.1795 65.1324 35.4129 62.8095C36.1416 55.5789 37.0867 48.371 38.0261 41.1632C38.2596 39.3641 37.9009 38.5329 35.9082 38.0319C30.0497 36.5687 24.2425 34.8777 18.4807 33.0615C16.6816 32.4979 15.7138 32.8167 14.7459 34.3539C9.27454 43.0819 5.96668 52.5044 5.11267 62.8038C4.9191 65.121 5.75033 65.8611 7.92521 65.8213C11.9903 65.7473 16.0554 65.7985 20.1261 65.7985L20.1204 65.8042ZM116.925 65.7985C121.087 65.7985 125.249 65.7871 129.405 65.8042C131.096 65.8099 132.058 65.3032 131.916 63.3333C131.147 52.7322 127.754 43.0306 122.066 34.0863C121.218 32.7484 120.29 32.5207 118.741 32.9932C112.877 34.7923 106.984 36.5117 101.046 38.0489C99.287 38.5044 98.712 39.1421 98.9397 40.9241C99.9019 48.3198 100.853 55.7155 101.627 63.1283C101.849 65.2519 102.811 65.8384 104.718 65.8099C108.784 65.753 112.849 65.7928 116.919 65.7928L116.925 65.7985ZM66.1116 83.1406C66.1116 79.827 66.1002 76.5191 66.1116 73.2056C66.123 71.3495 65.3544 70.5126 63.3788 70.5354C56.5638 70.6151 49.7488 70.6151 42.9395 70.5354C40.8273 70.5126 39.9334 71.3609 40.1726 73.3992C41.0038 80.5273 41.892 87.6497 42.7004 94.7835C42.9395 96.9015 44.0611 97.3285 45.9969 97.1634C51.8383 96.668 57.6854 96.2695 63.5382 95.9564C65.3544 95.8596 66.1116 95.0682 66.1116 93.3602C66.1116 89.9555 66.1116 86.5509 66.1116 83.1406ZM84.1141 70.5753C80.5159 70.5753 76.9234 70.6037 73.3251 70.5582C71.8335 70.5411 70.951 71.082 70.9453 72.6476C70.9282 79.6505 70.8542 86.6477 71.0193 93.6449C71.0364 94.4135 72.38 95.7286 73.1999 95.8083C79.3146 96.3948 85.4464 96.8104 91.5838 97.0609C92.4265 97.095 93.9808 96.0304 94.0832 95.313C95.1308 87.9287 95.9677 80.5159 96.8218 73.1031C97.0267 71.3382 96.1784 70.5126 94.3337 70.5525C90.9291 70.6208 87.5188 70.5696 84.1141 70.5753ZM52.9144 65.8042C56.2165 65.8042 59.5244 65.7017 62.8265 65.8384C65.2975 65.9408 66.2084 64.9046 66.1743 62.5191C66.0889 56.2905 66.0718 50.062 66.1002 43.8334C66.1116 41.8464 65.4341 41.055 63.3048 40.9639C57.5602 40.7077 51.8155 40.3149 46.0994 39.6772C43.8106 39.421 42.9623 40.184 42.7175 42.2393C41.892 49.1624 41.055 56.0799 40.2124 63.0031C39.9505 65.1495 41.0038 65.8668 43.0079 65.827C46.31 65.7643 49.6179 65.8099 52.92 65.8156L52.9144 65.8042ZM83.7896 65.7928C87.2796 65.7928 90.7754 65.7871 94.2654 65.7928C95.7742 65.7928 96.9926 65.3772 96.7819 63.5724C95.9279 56.1824 95.0796 48.7867 94.0206 41.4251C93.9181 40.7248 92.3354 39.6829 91.4871 39.7285C85.4634 40.0245 79.4512 40.6166 73.4333 40.9867C71.8335 41.0835 70.9453 41.5276 70.9453 43.247C70.9453 49.8513 70.9225 56.4613 70.8713 63.0657C70.8542 65.1608 71.9132 65.8554 73.8774 65.8099C77.1796 65.7416 80.4817 65.7928 83.7896 65.7871V65.7928ZM65.1722 131.916C65.6505 131.062 65.901 130.823 65.901 130.584C65.9636 121.224 66.049 111.864 65.9636 102.509C65.9636 101.906 64.6541 100.762 63.9937 100.796C58.2377 101.058 52.4817 101.468 46.7484 102.043C46.1449 102.105 45.0632 103.699 45.2397 104.269C47.9953 113.316 51.639 121.93 59.0291 128.283C60.794 129.804 63.0827 130.709 65.1722 131.921V131.916ZM71.4179 132.354C74.2418 130.549 76.7241 129.394 78.6712 127.64C85.5944 121.406 89.0047 113.093 91.8116 104.474C92.3923 102.686 91.4814 102.014 89.8872 101.889C84.7973 101.479 79.7017 101.172 74.6232 100.665C71.7595 100.38 70.746 101.479 70.7859 104.309C70.8941 112.16 70.7973 120.017 70.8371 127.868C70.8428 129.046 71.1332 130.219 71.4179 132.36V132.354ZM65.6049 4.66861C62.8038 6.43925 60.3158 7.57223 58.3743 9.31441C51.4341 15.5373 48.0237 23.8553 45.2169 32.4751C44.5166 34.6215 45.9798 34.929 47.4658 35.0599C52.3621 35.4869 57.2641 35.9082 62.1718 36.1929C65.7928 36.4035 66.1287 36.079 66.1572 32.4865C66.2141 24.6296 66.1913 16.7727 66.1572 8.92157C66.1572 7.83413 65.8839 6.74669 65.6049 4.66861ZM71.7538 5.05006C71.3382 5.94392 71.0535 6.27414 71.0535 6.60436C71.0079 15.8447 70.951 25.0851 71.0763 34.3198C71.0876 34.9631 72.5224 36.1644 73.2511 36.1303C78.899 35.8798 84.5354 35.4072 90.1719 34.9517C91.4984 34.8436 92.324 34.1888 91.8457 32.6915C88.9307 23.6219 85.3211 14.9224 77.8058 8.57427C76.0864 7.12246 73.8774 6.25706 71.7595 5.04437L71.7538 5.05006ZM19.4657 28.0172C20.872 28.6776 21.8228 29.2925 22.8647 29.5886C27.4023 30.8753 31.9798 32.0424 36.5231 33.3177C38.9599 34.0009 40.0701 33.0957 40.7931 30.7102C43.173 22.7793 46.5378 15.3152 51.9351 8.89879C52.271 8.50026 52.4304 7.95369 53.0225 6.77516C39.2161 10.3449 28.4214 17.2567 19.4714 28.0172H19.4657ZM117.699 28.1709C108.573 17.2738 97.7953 10.3278 84.3362 6.85487C84.4785 7.67471 84.4386 8.01632 84.5867 8.19851C90.411 15.1274 94.0035 23.2063 96.6168 31.7634C97.1975 33.6593 98.4444 33.7333 99.9246 33.386C103.688 32.4922 107.463 31.604 111.186 30.5621C113.224 29.9928 115.177 29.1103 117.699 28.1709ZM52.5841 130.037C52.476 129.285 52.5329 128.944 52.3849 128.773C46.5264 121.764 42.9737 113.594 40.1953 104.997C39.9619 104.269 38.271 103.369 37.4967 103.557C32.0082 104.872 26.5767 106.432 21.1396 107.958C20.6556 108.095 20.2685 108.562 19.534 109.091C28.3872 119.641 39.1933 126.541 52.5841 130.043V130.037ZM117.716 108.795C116.145 108.112 115.172 107.554 114.13 107.258C109.78 106.022 105.402 104.884 101.041 103.665C98.4273 102.936 97.0039 103.529 96.1499 106.455C93.827 114.38 90.3882 121.816 84.9966 128.215C84.6948 128.574 84.6208 129.132 84.2109 130.191C97.8181 126.422 108.692 119.618 117.716 108.801V108.795Z" fill="#343434"/>
</svg>
