<svg width="54" height="54" viewBox="0 0 54 54" fill="none" xmlns="http://www.w3.org/2000/svg">
<path d="M0 0V44.326L9.58993 54H54V9.67399L44.4101 0H0Z" fill="url(#paint0_linear_20_19)"/>
<path d="M19.1543 38V36.368L28.4663 27.248C29.3196 26.416 29.9596 25.6907 30.3863 25.072C30.8129 24.432 31.1009 23.8347 31.2503 23.28C31.3996 22.7253 31.4743 22.2027 31.4743 21.712C31.4743 20.4107 31.0263 19.3867 30.1303 18.64C29.2556 17.8933 27.9543 17.52 26.2263 17.52C24.9036 17.52 23.7303 17.7227 22.7063 18.128C21.7036 18.5333 20.8396 19.1627 20.1143 20.016L18.4823 18.608C19.3569 17.584 20.4769 16.7947 21.8423 16.24C23.2076 15.6853 24.7329 15.408 26.4183 15.408C27.9329 15.408 29.2449 15.6533 30.3543 16.144C31.4636 16.6133 32.3169 17.3067 32.9143 18.224C33.5329 19.1413 33.8423 20.2187 33.8423 21.456C33.8423 22.1813 33.7356 22.896 33.5223 23.6C33.3303 24.304 32.9676 25.0507 32.4343 25.84C31.9223 26.608 31.1649 27.4827 30.1623 28.464L21.6183 36.848L20.9783 35.952H34.8663V38H19.1543Z" fill="white"/>
<defs>
<linearGradient id="paint0_linear_20_19" x1="27" y1="0" x2="27" y2="54" gradientUnits="userSpaceOnUse">
<stop stop-color="#C6A465"/>
<stop offset="1" stop-color="#605031"/>
</linearGradient>
</defs>
</svg>
