<svg width="72" height="19" viewBox="0 0 72 19" fill="none" xmlns="http://www.w3.org/2000/svg">
<path d="M0.581055 0.00368858C0.680646 0.00368858 0.783952 0.00368858 0.883544 0.00368858C3.30694 0.00368858 5.72664 0.00368858 8.15004 0.00368858H8.33077C8.30864 0.0627059 8.29392 0.106969 8.27548 0.151232C5.73405 6.21895 3.18886 12.2867 0.647424 18.3581C0.628981 18.4023 0.603186 18.4466 0.581055 18.4909C0.581055 12.3272 0.581055 6.16362 0.581055 0V0.00368858Z" fill="#A6a6a6"/>
<path d="M13.8154 0.0147705H21.5467V18.4872C18.961 12.3125 16.3938 6.17102 13.8154 0.0147705Z" fill="#A6a6a6"/>
<path d="M57.6944 6.81655C57.9268 6.76491 58.1444 6.70589 58.3621 6.67269C59.4207 6.51408 60.4313 6.63581 61.335 7.25549C62.1686 7.82722 62.6298 8.6424 62.7773 9.62356C62.9322 10.6305 62.7994 11.6043 62.2904 12.5043C61.6965 13.5519 60.7707 14.1642 59.6272 14.474C58.8526 14.6843 58.0669 14.6954 57.2812 14.5921C56.8423 14.5331 56.4107 14.4224 55.9755 14.3376C55.8279 14.3081 55.7764 14.2269 55.7764 14.0794C55.7764 10.5605 55.7764 7.03786 55.7764 3.51895C55.7764 3.3419 55.7874 3.32715 55.9608 3.32715C56.4661 3.32715 56.9714 3.32715 57.4731 3.32715C57.6649 3.32715 57.6649 3.32715 57.6686 3.51527C57.6759 4.56651 57.6833 5.62145 57.6907 6.67269C57.6907 6.71696 57.6907 6.76122 57.6907 6.81286L57.6944 6.81655ZM57.6944 10.6785C57.6944 11.3941 57.6981 12.106 57.6907 12.8216C57.6907 12.9691 57.7424 13.0244 57.8715 13.0244C58.2108 13.0281 58.5538 13.0724 58.8858 13.0207C59.819 12.8769 60.4719 12.3605 60.7706 11.4494C60.9698 10.8408 60.9698 10.2211 60.7854 9.60881C60.5862 8.94117 60.1547 8.49117 59.4723 8.30305C58.919 8.15182 58.3658 8.18501 57.8162 8.34731C57.7203 8.37682 57.6907 8.42477 57.6944 8.52067C57.6981 9.23995 57.6944 9.95922 57.6944 10.6785Z" fill="#A6a6a6"/>
<path d="M42.9516 6.64685V6.47348C42.9516 5.49232 42.9516 4.51485 42.9516 3.53368C42.9516 3.39843 43.0217 3.33081 43.1618 3.33081C43.6561 3.33081 44.1541 3.33081 44.6483 3.33081H44.8254C44.8291 3.41196 44.8365 3.48204 44.8365 3.54844C44.8365 6.58783 44.8365 9.62722 44.8365 12.6666C44.8365 13.0539 44.866 13.4449 44.8955 13.8322C44.9029 13.9576 44.8697 14.024 44.7516 14.072C43.6008 14.5478 42.402 14.7544 41.1626 14.6142C40.0856 14.4888 39.1635 14.0535 38.5143 13.1535C38.0938 12.5744 37.9019 11.9105 37.8355 11.2059C37.7655 10.4645 37.8429 9.74157 38.1454 9.05549C38.6397 7.93416 39.4954 7.21858 40.6537 6.84972C41.3692 6.62103 42.107 6.55832 42.8557 6.64685C42.8816 6.64685 42.9111 6.64685 42.959 6.64685H42.9516ZM42.9516 10.6047C42.9516 9.88542 42.948 9.16984 42.9553 8.45057C42.9553 8.31409 42.9037 8.26614 42.7857 8.244C42.4463 8.17392 42.1033 8.17392 41.7602 8.21818C40.8233 8.33622 40.0745 8.97066 39.8421 9.87067C39.6872 10.4608 39.7094 11.051 39.9012 11.6301C40.1336 12.331 40.6167 12.7736 41.336 12.9543C41.8303 13.076 42.3245 13.0613 42.8188 12.9543C42.9258 12.9322 42.9553 12.8842 42.9553 12.781C42.9516 12.058 42.9553 11.335 42.9553 10.6121L42.9516 10.6047Z" fill="#A6a6a6"/>
<path d="M36.1747 14.5036C35.9128 14.5036 35.651 14.4962 35.3891 14.5036C35.2378 14.5073 35.1567 14.4519 35.1087 14.3081C34.8358 13.5114 34.5555 12.7183 34.2825 11.9253C34.2456 11.8109 34.1903 11.7851 34.0796 11.7851C32.9251 11.7888 31.7669 11.7888 30.6124 11.7851C30.5017 11.7851 30.4538 11.8146 30.4206 11.9216C30.1587 12.7146 29.893 13.5077 29.6275 14.3007C29.5648 14.4888 29.5463 14.5036 29.3397 14.5036C28.8824 14.5036 28.4213 14.5036 27.9639 14.5036C27.7426 14.5036 27.7094 14.463 27.7869 14.2528C28.3402 12.6777 28.8971 11.1064 29.4504 9.53138C29.9742 8.04488 30.5054 6.55838 31.0181 5.06819C31.0955 4.8395 31.1029 4.58499 31.1324 4.33785C31.1435 4.22719 31.1877 4.19031 31.2984 4.19031C31.9882 4.19031 32.6743 4.19031 33.364 4.19031C33.4563 4.19031 33.5005 4.21982 33.5337 4.30834C34.7214 7.60594 35.9091 10.9035 37.1005 14.2011C37.1153 14.2454 37.1338 14.286 37.1448 14.3302C37.1854 14.4593 37.1596 14.4999 37.0231 14.4999C36.7428 14.4999 36.4624 14.4999 36.1821 14.4999L36.1747 14.5036ZM32.3423 5.79484C31.8923 7.21126 31.4386 8.64243 30.9812 10.0773H33.7255C33.2608 8.63505 32.796 7.20757 32.3423 5.79484Z" fill="#A6a6a6"/>
<path d="M16.0094 18.5278H15.836C14.8696 18.5278 13.8995 18.5278 12.9331 18.5278C12.8114 18.5278 12.7598 18.4836 12.7192 18.3766C12.2729 17.2405 11.8191 16.1081 11.3765 14.972C11.3286 14.8466 11.2733 14.8023 11.1331 14.8023C10.045 14.8097 8.96049 14.806 7.87236 14.806H7.69531C8.82402 12.1539 9.94532 9.51292 11.0814 6.84607C12.7302 10.7523 14.368 14.629 16.0168 18.5278H16.0094Z" fill="#A6a6a6"/>
<path d="M54.1424 10.6047C54.0981 11.5527 53.8915 12.4416 53.3198 13.2162C52.7112 14.0388 51.8887 14.4962 50.878 14.6179C50.096 14.7138 49.3288 14.6363 48.6095 14.2933C47.691 13.8544 47.1046 13.124 46.8021 12.1724C46.3779 10.8371 46.4517 9.53134 47.1931 8.31411C47.7796 7.3477 48.6686 6.80917 49.7862 6.65425C50.6235 6.5399 51.435 6.6358 52.1875 7.03786C53.1686 7.56164 53.7256 8.41001 53.9764 9.46864C54.0649 9.84118 54.087 10.2248 54.1424 10.6047ZM48.4583 10.5051C48.4657 11.1211 48.5358 11.6191 48.7755 12.0728C49.1223 12.733 49.6682 13.0798 50.4206 13.0576C51.151 13.0355 51.6267 12.6334 51.9218 11.9953C52.1136 11.5822 52.1764 11.1396 52.1764 10.6859C52.1764 10.1436 52.11 9.61618 51.8518 9.12929C51.5161 8.49485 50.9849 8.18132 50.2657 8.18501C49.5759 8.1887 49.1 8.53911 48.7828 9.1256C48.532 9.58667 48.462 10.092 48.4583 10.5014V10.5051Z" fill="#A6a6a6"/>
<path d="M66.0375 11.062C66.0854 11.7997 66.3695 12.3714 67.015 12.7292C67.5461 13.0243 68.1289 13.0722 68.7228 13.039C69.2797 13.0095 69.822 12.8952 70.3384 12.6849C70.3679 12.6739 70.3974 12.6702 70.4454 12.6591C70.4528 12.7145 70.4638 12.7624 70.4638 12.8104C70.4638 13.194 70.4638 13.5776 70.4638 13.9649C70.4638 14.1087 70.4121 14.1862 70.2756 14.2452C69.4937 14.5883 68.6711 14.6657 67.8265 14.6473C67.1109 14.6288 66.4248 14.4813 65.8051 14.1051C64.9715 13.5997 64.4809 12.8362 64.2707 11.903C63.9756 10.612 64.0973 9.36522 64.8129 8.22914C65.5543 7.05248 66.6646 6.55821 68.0367 6.61354C68.6675 6.63936 69.2576 6.80903 69.7703 7.18895C70.4749 7.71273 70.8401 8.4357 70.9913 9.28038C71.0761 9.76359 71.0576 10.2468 71.006 10.73C70.9801 10.9734 70.9507 10.9956 70.7036 11.0103C70.331 11.0288 69.9622 11.0472 69.5896 11.0509C68.4646 11.0583 67.3432 11.0546 66.2182 11.0583C66.1629 11.0583 66.1112 11.0583 66.0338 11.0583L66.0375 11.062ZM69.2503 9.70457C69.313 9.11071 68.9551 8.48365 68.4313 8.24758C67.8412 7.982 66.8637 8.02258 66.3436 8.86357C66.185 9.12177 66.0817 9.39842 66.0411 9.70088H69.2466L69.2503 9.70457Z" fill="#A6a6a6"/>
</svg>
