<svg width="353" height="32" viewBox="0 0 353 32" fill="none" xmlns="http://www.w3.org/2000/svg">
<path d="M199.558 30.3956H180.555V24.6175H198.101C193.375 19.897 188.769 15.3035 184.29 10.8309C185.819 9.29571 187.161 7.95392 188.582 6.52752C193.012 10.9639 197.636 15.5997 202.531 20.5075V0.833984H208.436V20.2295C213.223 15.4365 217.823 10.8309 222.368 6.27971C223.879 7.80282 225.227 9.16274 226.647 10.5891C222.084 15.1162 217.454 19.7097 212.552 24.5752H230.419V30.3956H211.507C209.778 25.8867 208.086 24.4845 204.744 24.8048C202.06 25.0647 200.217 27.0291 199.552 30.3956H199.558Z" fill="#A6a6a6"/>
<path d="M36.6573 12.4265V30.3956H30.4258V0.749373C32.3841 0.749373 34.3001 0.694976 36.204 0.797725C36.5908 0.815858 37.0562 1.36587 37.3101 1.77687C40.592 7.05336 43.8377 12.3419 47.0954 17.6305C47.3251 18.0052 47.5608 18.3739 48.1048 18.7064V0.827946H54.306V30.4682C52.3296 30.4682 50.3774 30.5165 48.4312 30.4258C48.0806 30.4077 47.6696 29.8879 47.44 29.5132C44.1882 24.2186 40.9667 18.9119 37.7392 13.6112C37.4853 13.1941 37.2194 12.7832 36.9655 12.3722C36.8628 12.3903 36.7661 12.4084 36.6633 12.4265H36.6573Z" fill="#A6a6a6"/>
<path d="M88.3645 15.104C88.2134 21.1843 86.6057 26.1042 81.5287 29.1867C74.4027 33.5143 61.5288 31.5379 59.7276 18.5249C59.2381 15.0012 59.5463 11.5682 60.9425 8.2802C63.4689 2.357 69.0839 -0.604608 76.1978 0.181124C82.0243 0.827841 86.7084 5.31255 87.9052 11.4594C88.1711 12.8133 88.2557 14.2034 88.3645 15.0979V15.104ZM65.6811 15.8837C66.0014 17.2738 66.1948 18.942 66.775 20.453C67.9839 23.5838 70.7098 25.2097 74.1851 25.1311C77.4368 25.0586 80.0358 23.2575 81.1841 20.2052C82.1875 17.5277 82.254 14.7897 81.5105 12.0396C80.5072 8.32855 77.733 6.13455 74.04 6.08015C70.2987 6.02576 67.4943 8.08075 66.4124 11.7979C66.0558 13.0248 65.9531 14.3303 65.6811 15.8837Z" fill="#A6a6a6"/>
<path d="M261.032 30.4017H254.789V18.1805H243.075V30.3835H236.826V0.821899H242.978V12.1546H254.728V0.840032H261.032V30.4017Z" fill="#A6a6a6"/>
<path d="M0 0.815946H6.23145V12.7651C7.96006 11.1634 9.73098 9.61614 11.3871 7.96006C13.4723 5.87485 15.4366 3.66876 17.5279 1.58354C17.9691 1.14233 18.7246 0.809901 19.3471 0.785725C21.6499 0.695064 23.9527 0.749461 26.2616 0.749461C26.3281 0.870342 26.3945 0.98518 26.461 1.10606C22.6714 4.67207 18.8817 8.24413 15.0981 11.7981C19.0933 18.2411 22.8104 24.2247 26.6847 30.4622C24.1885 30.4622 21.9038 30.4985 19.6191 30.4199C19.323 30.4078 18.9905 29.8517 18.7729 29.4891C16.4883 25.6995 14.2217 21.9038 11.9492 18.1081C11.6772 17.6487 11.381 17.2015 11.0667 16.7059C9.48317 18.2592 7.91171 19.746 6.42487 21.3054C6.1831 21.5593 6.26168 22.1576 6.25563 22.5928C6.24355 25.1736 6.24958 27.7544 6.24958 30.4078H0V0.815946Z" fill="#A6a6a6"/>
<path d="M124 0.828034H130.141V13.2728C130.685 12.7712 130.999 12.5113 131.284 12.2151C134.686 8.66117 138.059 5.08912 141.498 1.57146C141.933 1.13024 142.695 0.809901 143.317 0.785725C145.596 0.695064 147.875 0.749461 150.347 0.749461C150.105 1.09397 149.984 1.34783 149.791 1.53519C146.63 4.75669 143.487 8.00237 140.271 11.1695C139.491 11.9371 139.377 12.4508 139.987 13.4118C143.317 18.652 146.569 23.9406 149.845 29.2171C150.05 29.5556 150.244 29.9001 150.57 30.4743C148.153 30.4743 145.904 30.5105 143.662 30.438C143.354 30.4259 142.979 29.9364 142.767 29.5918C140.404 25.6934 138.071 21.7829 135.726 17.8724C135.502 17.4976 135.255 17.135 134.952 16.6635C133.375 18.229 131.84 19.7037 130.383 21.251C130.135 21.5169 130.159 22.0851 130.153 22.5142C130.135 25.1011 130.141 27.694 130.141 30.3836H123.982V0.828034H124Z" fill="#A6a6a6"/>
<path d="M93.5264 0.809853H99.6853V13.3151C100.278 12.7651 100.616 12.4749 100.924 12.1546C104.327 8.60068 107.706 5.02863 111.151 1.51701C111.556 1.09997 112.275 0.803809 112.861 0.779632C115.164 0.695015 117.473 0.743368 119.782 0.743368C119.848 0.858206 119.915 0.979087 119.987 1.09392C116.198 4.65389 112.402 8.2199 108.618 11.7738C112.626 18.235 116.343 24.2186 120.211 30.4561C117.721 30.4561 115.43 30.4924 113.145 30.4138C112.849 30.4017 112.523 29.8396 112.305 29.477C109.996 25.6511 107.706 21.8191 105.403 17.9872C105.155 17.5762 104.889 17.1712 104.611 16.73C103.022 18.2652 101.474 19.7218 99.9996 21.2449C99.7518 21.5048 99.7759 22.079 99.7699 22.5081C99.7518 25.095 99.7578 27.6879 99.7578 30.3775H93.5264V0.809853Z" fill="#A6a6a6"/>
<path d="M274.625 24.6236H288.134V30.3655H268.315V0.846191H288.176V6.52763H274.625V12.1909H287.348V18.0174H274.631V24.6236H274.625Z" fill="#A6a6a6"/>
<path d="M154.354 30.4017V0.821899H174.215V6.50939H160.742V12.215H173.332V18.0536H160.724V24.5993H174.251V30.4077H154.354V30.4017Z" fill="#A6a6a6"/>
<path d="M325.903 5.85663C324.181 6.93247 322.519 7.96601 320.784 9.0479C320.482 8.55229 320.234 8.09294 319.938 7.66381C318.965 6.27971 317.671 5.53024 315.931 5.74179C314.764 5.8808 313.882 6.44895 313.531 7.59128C313.181 8.75779 313.598 9.77319 314.619 10.3655C315.967 11.1452 317.387 11.7919 318.796 12.4628C320.168 13.1156 321.606 13.6354 322.924 14.3727C327.686 17.0261 328.889 22.9312 325.444 27.1923C322.235 31.1572 317.871 31.6528 313.247 30.6132C308.774 29.6099 305.71 26.1889 305.045 21.6861C307.034 21.1844 309.04 20.6707 311.144 20.1388C311.271 20.6102 311.367 20.9789 311.464 21.3476C312.34 24.6235 315.647 26.3038 318.844 25.095C320.029 24.6477 320.76 23.8076 320.983 22.5564C321.207 21.2932 320.645 20.3443 319.605 19.7339C318.415 19.0388 317.158 18.4525 315.919 17.8421C314.395 17.0926 312.8 16.4761 311.343 15.6239C307.965 13.6414 306.556 10.7161 307.13 7.2105C307.711 3.66262 310.044 1.26312 313.791 0.356505C318.995 -0.906709 323.885 1.26312 325.897 5.85663H325.903Z" fill="#A6a6a6"/>
<path d="M343.878 30.4138H337.52V6.61823H328.72V0.852173H352.612V6.53966H343.878V30.4138Z" fill="#A6a6a6"/>
<path d="M300.621 0.840088V30.4138H294.498V0.840088H300.621Z" fill="#A6a6a6"/>
</svg>
