<svg width="53" height="32" viewBox="0 0 53 32" fill="none" xmlns="http://www.w3.org/2000/svg">
<path d="M31.303 12.9042C31.3393 12.7894 31.3696 12.7168 31.3877 12.6503C32.3548 8.90905 33.3219 5.16171 34.2889 1.42042C34.5005 0.592383 34.6756 0.453369 35.5399 0.453369C35.9993 0.453369 36.4647 0.453369 36.9241 0.453369C37.2807 0.453369 37.4076 0.592383 37.3834 0.955028C37.3713 1.11822 37.3412 1.28141 37.2868 1.43856C35.8906 5.92327 34.4884 10.408 33.0862 14.8867C33.0318 15.0619 32.9713 15.2372 32.8988 15.4125C32.7839 15.6905 32.5602 15.8537 32.258 15.8597C31.5751 15.8718 30.8982 15.8779 30.2152 15.8597C29.8586 15.8537 29.6591 15.6059 29.5745 15.2856C29.4536 14.8564 29.3569 14.4213 29.2481 13.9861C28.4503 10.6679 27.6525 7.34967 26.8547 4.03147C26.8426 3.98916 26.8244 3.94685 26.7881 3.8441C26.6431 4.43642 26.5162 4.97435 26.3893 5.50623C25.6398 8.63706 24.8903 11.7739 24.1409 14.9048C24.1046 15.0498 24.0563 15.1949 24.0079 15.34C23.8991 15.6845 23.6452 15.8537 23.2946 15.8597C22.66 15.8718 22.0254 15.8718 21.3968 15.8597C21.0644 15.8597 20.8165 15.6784 20.7077 15.3641C20.5083 14.7718 20.3149 14.1795 20.1336 13.5811C18.9066 9.55577 17.6858 5.5304 16.4649 1.499C16.4105 1.31767 16.362 1.12426 16.3379 0.936896C16.2956 0.64678 16.4528 0.465457 16.7429 0.465457C17.3896 0.465457 18.0363 0.465457 18.683 0.477545C18.9973 0.477545 19.2331 0.628648 19.3298 0.930852C19.5051 1.499 19.6682 2.07318 19.8193 2.65342C20.6654 5.95953 21.4996 9.26565 22.3397 12.5778C22.3518 12.6322 22.3759 12.6926 22.4122 12.7954C22.6902 11.6168 22.9562 10.4866 23.2222 9.35631C23.8447 6.709 24.4672 4.06169 25.0957 1.41438C25.2892 0.592383 25.4584 0.465457 26.2985 0.465457C26.7639 0.465457 27.2354 0.465457 27.7008 0.477545C28.1601 0.489634 28.3717 0.652824 28.4986 1.11217C28.6679 1.73472 28.8069 2.3633 28.9519 2.99189C29.7195 6.25569 30.4932 9.51346 31.2608 12.7773C31.2669 12.8075 31.2789 12.8377 31.303 12.9163V12.9042Z" fill="#A6a6a6"/>
<path d="M26.153 31.248C25.0591 31.2057 24.1162 31.2117 23.1794 31.115C21.8074 30.9821 20.4354 30.8189 19.0815 30.5952C16.3798 30.148 13.7748 29.3683 11.2484 28.3287C8.12358 27.0474 5.22249 25.3792 2.55705 23.3182C1.77736 22.7137 1.03998 22.067 0.284468 21.4324C0.205895 21.3659 0.133313 21.2873 0.0789158 21.2027C-0.0177896 21.0456 -0.041966 20.8763 0.0789158 20.7192C0.199798 20.556 0.369056 20.5137 0.556422 20.5681C0.67126 20.6044 0.786133 20.6588 0.894927 20.7192C4.17687 22.611 7.64007 24.0918 11.2605 25.2039C13.382 25.8567 15.5336 26.3825 17.7216 26.7391C18.8458 26.9204 19.97 27.0897 21.1003 27.2226C22.0311 27.3314 22.9739 27.3979 23.9107 27.4402C25.1135 27.4946 26.3162 27.5369 27.519 27.5127C28.6795 27.4946 29.8399 27.4281 30.9944 27.3133C32.3966 27.1743 33.805 27.005 35.1951 26.7693C38.1023 26.2858 40.949 25.5303 43.7233 24.533C44.6178 24.2127 45.4943 23.8561 46.3767 23.5055C46.6064 23.4149 46.8299 23.3544 47.0778 23.4269C47.6338 23.5962 47.8091 24.1825 47.3981 24.5874C47.1624 24.8231 46.8783 25.0105 46.6002 25.2039C44.0738 26.9446 41.3177 28.2199 38.4105 29.187C36.3978 29.8579 34.3368 30.3656 32.2395 30.698C31.1878 30.8672 30.1301 30.9881 29.0724 31.0788C28.0509 31.1694 27.0294 31.1936 26.153 31.242V31.248Z" fill="#A6a6a6"/>
<path d="M12.0162 13.9013C11.6717 14.2217 11.3514 14.5541 10.9948 14.8442C9.67112 15.9261 8.12986 16.3492 6.43751 16.2464C5.50068 16.192 4.61823 15.9503 3.85668 15.3821C2.82918 14.6206 2.29727 13.5749 2.1643 12.3178C2.05551 11.2903 2.16436 10.293 2.67206 9.3743C3.37317 8.099 4.49135 7.36162 5.8694 6.99293C6.9513 6.70282 8.06338 6.6726 9.16945 6.81161C9.99749 6.91436 10.8194 7.0836 11.6474 7.22865C11.6958 7.2347 11.7443 7.24074 11.7866 7.24074C11.7987 7.22261 11.8106 7.21052 11.8106 7.20448C11.8167 6.36435 11.859 5.52422 11.7019 4.69618C11.4662 3.43297 10.7893 2.75603 9.52006 2.52635C8.17827 2.28459 6.86063 2.4236 5.5672 2.8346C5.01114 3.00988 4.46719 3.22747 3.91718 3.41483C3.32486 3.61429 3.14957 3.48736 3.14957 2.85878C3.14957 2.57471 3.14957 2.29668 3.14957 2.01261C3.14957 1.64392 3.30055 1.36589 3.63297 1.22083C4.18903 0.979067 4.73906 0.731259 5.31325 0.549937C7.08417 -0.0121635 8.89146 -0.120957 10.7168 0.235644C11.9075 0.465319 12.947 0.966979 13.6783 1.98843C14.1981 2.72581 14.4701 3.55989 14.5728 4.44233C14.6333 4.97421 14.6575 5.51213 14.6575 6.05006C14.6696 7.70614 14.6574 9.36826 14.6634 11.0243C14.6634 11.4595 14.7119 11.9007 14.7602 12.3359C14.8388 12.9826 15.1349 13.5508 15.425 14.125C15.6486 14.5722 15.5943 14.8261 15.1833 15.1101C14.8448 15.3459 14.5003 15.5695 14.1498 15.7931C13.7509 16.053 13.4064 16.0288 13.1102 15.6481C12.7899 15.231 12.5179 14.7777 12.2278 14.3365C12.1371 14.2035 12.0766 14.0464 12.0101 13.9134L12.0162 13.9013ZM11.8832 9.99685C11.8832 9.99685 11.859 9.99685 11.8469 9.99685C11.8469 9.79739 11.8409 9.59794 11.8469 9.39848C11.8469 9.26551 11.8167 9.19903 11.6716 9.18089C11.0189 9.08419 10.3722 8.94518 9.71941 8.87265C8.85511 8.78198 7.98474 8.76385 7.13252 8.98144C6.19569 9.21716 5.50674 9.74299 5.24685 10.7161C5.12596 11.1573 5.13195 11.6106 5.18635 12.07C5.30118 13.031 5.93584 13.7684 6.87872 13.9315C8.10567 14.1431 9.26609 13.9195 10.3117 13.2365C10.9766 12.8073 11.4843 12.2271 11.6595 11.4293C11.7623 10.9639 11.7986 10.4804 11.8711 10.0029L11.8832 9.99685Z" fill="#A6a6a6"/>
<path d="M43.8869 16.3856C42.4424 16.3251 41.0523 16.0713 39.7105 15.5394C39.4868 15.4488 39.2813 15.3279 39.0758 15.207C38.7736 15.0257 38.6346 14.7416 38.6286 14.3971C38.6225 14.0767 38.6165 13.7504 38.6286 13.43C38.6406 13.019 38.8583 12.8558 39.2572 12.9767C39.4748 13.0432 39.6803 13.1339 39.8918 13.2185C41.4935 13.8712 43.1556 14.1251 44.8782 13.8954C45.4222 13.8229 45.9297 13.6537 46.3951 13.3394C47.4468 12.6262 47.5556 10.8492 46.244 10.1783C45.7121 9.90633 45.15 9.70687 44.5819 9.51346C43.5907 9.16895 42.5693 8.89697 41.5962 8.51014C40.3269 8.01453 39.4323 7.11396 38.9972 5.80239C38.4472 4.15236 39.0093 2.38144 40.3934 1.2935C41.5478 0.386889 42.8775 0.036332 44.316 0.00611159C45.5671 -0.0180648 46.782 0.18139 47.9606 0.598432C48.2447 0.701182 48.5107 0.852284 48.7645 1.00339C49.0365 1.16658 49.1997 1.42647 49.2057 1.75285C49.2057 2.09737 49.2238 2.44188 49.2057 2.78639C49.1755 3.16717 48.9761 3.30014 48.6134 3.1853C48.2628 3.07046 47.9244 2.90727 47.5738 2.78639C46.1656 2.31495 44.727 2.19407 43.2643 2.52045C43.1072 2.55672 42.95 2.61716 42.7989 2.68364C42.122 2.96771 41.7413 3.46937 41.6869 4.20675C41.6386 4.89578 41.8983 5.43975 42.4725 5.82657C43.0648 6.22548 43.7419 6.44307 44.4128 6.6667C45.4101 6.99308 46.4194 7.29528 47.3985 7.67002C48.3052 8.01453 49.0607 8.57663 49.5563 9.44093C50.5113 11.1151 50.1304 13.3696 48.6738 14.7295C47.8397 15.5032 46.8364 15.9262 45.7425 16.1438C45.132 16.2647 44.5034 16.307 43.8869 16.3856Z" fill="#A6a6a6"/>
<path d="M46.9931 21.4505C45.8507 21.5533 44.7083 21.65 43.572 21.7588C43.3302 21.783 43.0946 21.8313 42.8589 21.8313C42.744 21.8313 42.5868 21.7709 42.5264 21.6802C42.478 21.6077 42.5023 21.4203 42.5687 21.3478C42.738 21.1725 42.9253 21.0093 43.1369 20.8824C44.1764 20.2417 45.3128 19.8851 46.5095 19.6857C47.3678 19.5466 48.2321 19.4922 49.0964 19.5285C49.9003 19.5648 50.692 19.6554 51.4656 19.9032C51.9492 20.0543 52.1728 20.3505 52.203 20.8642C52.2574 21.8011 52.0942 22.7077 51.8584 23.6083C51.4233 25.2704 50.7282 26.8056 49.5919 28.1172C49.3501 28.3952 49.0662 28.643 48.8063 28.9029C48.7942 28.915 48.776 28.9271 48.7579 28.9452C48.5403 29.1144 48.3167 29.1749 48.1958 29.0661C48.0024 28.8968 48.1112 28.7034 48.1777 28.5161C48.631 27.2408 49.0964 25.9715 49.5194 24.6902C49.7249 24.0737 49.8458 23.4269 49.8338 22.7681C49.8217 22.1758 49.6343 21.9038 49.0661 21.7225C48.3952 21.5049 47.7001 21.511 47.005 21.517C47.005 21.4989 47.005 21.4747 47.005 21.4566L46.9931 21.4505Z" fill="#A6a6a6"/>
</svg>
