<svg width="164" height="137" viewBox="0 0 164 137" fill="none" xmlns="http://www.w3.org/2000/svg">
<g clip-path="url(#clip0_698_226)">
<path d="M81.8846 136.945C64.4576 136.945 47.0258 136.772 29.6038 136.995C14.04 137.193 4.13439 126.94 1.31757 116.88C0.570352 114.216 0.088592 111.384 0.0787602 108.627C-0.0244741 88.6894 -0.00481044 68.7523 0.029601 48.8103C0.0590965 33.4082 11.6754 21.1697 26.9885 20.432C30.9065 20.2439 34.8441 20.2835 38.767 20.3825C40.463 20.4271 41.4905 19.9468 42.1639 18.318C43.0685 16.1198 44.1401 13.981 45.2315 11.867C48.9037 4.718 54.675 0.386006 62.7125 0.212726C75.5529 -0.0694724 88.4031 -0.0645216 101.243 0.212726C109.281 0.386006 115.062 4.70315 118.744 11.8423C119.875 14.0306 120.961 16.2485 121.935 18.5111C122.544 19.927 123.429 20.3577 124.943 20.3924C130.572 20.5112 136.319 20.1449 141.805 21.1449C154.581 23.4718 163.902 35.2103 163.946 48.2954C164.015 68.5642 164.03 88.833 163.946 109.097C163.887 123.751 152.172 136.381 137.602 136.742C119.531 137.188 101.44 136.916 83.3594 136.95C82.8678 136.95 82.3762 136.95 81.8846 136.95V136.945ZM81.8649 129.663C99.6163 129.663 117.373 129.747 135.124 129.633C147.178 129.554 156.592 120.588 156.641 109.191C156.729 88.8429 156.72 68.4949 156.641 48.1469C156.602 37.8937 148.481 28.8039 138.349 27.9474C132.337 27.4424 126.256 27.6504 120.209 27.6355C118.798 27.6355 117.992 27.2345 117.392 25.8978C115.809 22.3777 114.074 18.9269 112.388 15.4515C109.851 10.2234 105.668 7.41127 99.9162 7.36671C87.9705 7.26769 76.0248 7.26769 64.084 7.36671C58.4455 7.41127 54.262 10.0946 51.7303 15.2287C49.9852 18.7636 48.2302 22.2985 46.603 25.8878C45.9984 27.2196 45.2118 27.6553 43.7911 27.6355C38.6392 27.5612 33.4824 27.5167 28.3306 27.6454C16.0948 27.9474 7.33466 37.0471 7.32483 49.3697C7.31499 68.9751 7.30025 88.5854 7.35924 108.191C7.36415 110.221 7.6247 112.315 8.16545 114.27C10.7856 123.712 18.7494 129.603 29.0974 129.648C46.6866 129.722 64.2758 129.668 81.8649 129.663Z" fill="#343434"/>
<path d="M45.6392 78.5057C45.6786 58.3161 62.1518 41.81 82.1252 41.9585C102.251 42.107 118.4 58.5191 118.346 78.7731C118.297 98.9824 101.828 115.474 81.8597 115.315C61.7192 115.157 45.5999 98.7745 45.6392 78.5057ZM111.055 78.7186C111.1 62.5343 97.9643 49.2511 81.9482 49.2858C66.0157 49.3155 52.9492 62.4996 52.9295 78.5651C52.9099 94.7841 66.0108 108.033 82.0367 107.998C97.9741 107.963 111.011 94.8138 111.055 78.7186Z" fill="#343434"/>
<path d="M135.281 34.7154C142.434 34.7797 147.969 40.4336 147.93 47.6421C147.895 54.8059 142.232 60.5143 135.168 60.5143C128.06 60.5143 122.219 54.5534 122.323 47.4044C122.426 40.2851 128.182 34.651 135.281 34.7104V34.7154ZM134.863 54.6525C138.668 54.8109 141.942 51.7859 142.178 47.8896C142.409 44.127 139.302 40.7158 135.468 40.5227C131.697 40.3296 128.32 43.4536 128.158 47.2856C127.991 51.1176 131.068 54.494 134.868 54.6525H134.863Z" fill="#343434"/>
</g>
<defs>
<clipPath id="clip0_698_226">
<rect width="164" height="137" fill="white"/>
</clipPath>
</defs>
</svg>
