<svg width="137" height="137" viewBox="0 0 137 137" fill="none" xmlns="http://www.w3.org/2000/svg">
<path d="M108.637 0C111.046 0.274404 113.486 0.487829 115.896 0.823212C122.056 1.64642 128.065 3.04893 133.646 5.85395C134.287 6.15884 134.897 6.52471 135.506 6.89059C137.062 7.86624 137.336 8.81141 136.635 10.4883C134.012 16.7081 130.932 22.6841 127.058 28.2026C119.891 38.386 111.961 47.9292 102.72 56.3747C97.6879 60.9786 91.8321 62.93 85.2139 63.0824C83.3534 63.1129 81.4625 63.0824 79.6021 63.0824C79.5716 63.2044 79.5106 63.2958 79.4801 63.4178C81.31 64.0276 83.1399 64.7898 85.0004 65.2166C86.9523 65.674 88.9347 65.8569 90.9171 66.0704C92.0456 66.1923 93.0216 66.4972 93.4485 67.6863C93.8755 68.8144 93.3876 69.6681 92.5946 70.4303C83.4144 79.3637 73.7158 87.7178 63.2547 95.0962C61.4857 96.3462 58.9543 96.6511 56.6974 97.017C51.5736 97.8707 46.4803 97.5048 41.509 96.0413C41.3565 96.0109 41.1735 96.0413 40.838 96.0413C42.5154 98.5415 44.7113 99.9745 47.5477 100.31C48.8592 100.462 49.8962 100.92 50.2011 102.322C50.4451 103.42 49.7437 104.487 48.4322 104.944C43.5524 106.713 38.5811 108.024 33.4268 108.511C30.0414 108.816 26.595 108.694 23.1791 108.877C22.7522 108.877 22.1117 109.335 21.9592 109.701C19.9463 114.975 18.0248 120.28 16.0424 125.555C15.7679 126.317 15.3104 127.11 14.731 127.628C11.1931 130.555 7.59422 133.391 3.99535 136.257C2.53141 137.415 1.58594 137.232 0 135.616C0 134.336 0 132.994 0 131.653C0.0914966 131.226 0.213492 130.799 0.243991 130.372C1.09796 119.488 3.90386 109.121 8.35669 99.1513C8.72268 98.328 8.87517 97.2609 8.75318 96.3462C7.47222 88.5105 7.04524 80.6747 8.29569 72.8085C9.39365 65.9789 11.5591 59.5761 15.7984 54.0576C17.3539 52.0453 19.2753 50.2464 21.2272 48.5695C22.9352 47.106 24.9176 48.1121 25.1311 50.3379C25.1921 51.0391 25.2531 51.7709 25.4666 52.4416C25.8935 53.8441 26.3815 55.2466 27.4185 56.1613C28.8824 48.9354 30.3159 41.7704 31.8408 34.6054C32.0543 33.6602 32.6033 32.6845 33.2438 31.9833C40.716 23.7817 49.4387 17.1045 59.1983 11.8299C69.4764 6.25031 80.3645 2.34768 92.0151 0.792722C94.089 0.518318 96.1324 0.274404 98.2064 0C101.683 0 105.16 0 108.637 0ZM86.2203 70.3693C85.5798 70.2169 85.3358 70.1559 85.0613 70.0949C78.7481 68.9363 73.4718 65.9179 69.2324 61.0701C68.47 60.2164 68.1955 59.2712 68.8055 58.2651C69.4154 57.2284 70.2999 56.954 71.5504 57.137C74.9357 57.6553 78.3211 58.2346 81.737 58.4785C88.9652 58.9968 95.553 57.4724 100.768 51.9538C102.507 50.1244 104.398 48.478 106.228 46.7401C105.679 46.5267 105.282 46.5877 104.886 46.6182C100.555 47.045 96.2239 47.5328 91.8626 47.8987C90.0937 48.0512 89.1482 47.1975 89.0872 45.734C89.0262 44.24 90.0022 43.3558 91.8016 43.3253C97.7794 43.2034 103.666 42.3192 109.491 40.8862C111.199 40.4593 112.48 39.6666 113.639 38.2641C119.586 31.0076 125.289 23.5987 129.437 15.1532C130.261 13.4763 131.023 11.7994 131.847 10.0615C131.023 9.66511 130.413 9.36022 129.742 9.08582C124.008 6.70765 118 5.57954 111.87 5.00025C100.158 3.84165 88.7822 5.18318 77.5891 8.75043C75.6372 9.36022 74.2952 10.3664 73.5328 12.1957C72.5873 14.4519 71.6419 16.6777 70.6964 18.9644C70.2389 20.0925 69.4154 20.7022 68.1955 20.5193C67.067 20.3669 66.335 19.6046 66.2435 18.446C66.1825 17.8972 66.396 17.3179 66.5485 16.7691C66.9755 15.3971 67.494 14.0556 68.0125 12.5311C61.6382 15.4276 55.7824 18.8119 50.3231 22.867C49.6217 23.3853 49.0117 24.2085 48.7067 25.0012C46.8158 30.0015 45.8398 35.1847 45.7178 40.5203C45.6873 42.3497 44.8333 43.3253 43.3694 43.3253C41.875 43.3253 40.9295 42.2887 41.082 40.5203C41.387 36.8006 41.8445 33.1114 42.1799 29.6661C40.4415 31.3735 38.4286 33.2943 36.4462 35.2457C36.2632 35.4286 36.2022 35.7335 36.1717 35.9774C34.9822 42.1362 33.7318 48.2646 32.6338 54.4539C32.2373 56.7711 32.2373 59.1493 31.9933 61.497C31.7798 63.6617 29.8889 64.6069 28.181 63.3263C26.9915 62.4116 25.7715 61.436 24.8566 60.2774C23.4841 58.57 22.3557 56.6796 21.0747 54.8198C16.7134 59.6066 14.3955 65.4911 13.145 71.8023C11.8946 78.1136 11.9556 84.4554 12.718 91.224C13.8465 89.5776 14.67 88.2971 15.5849 87.0165C25.6496 72.9 37.3001 60.2164 50.3536 48.8134C59.5033 40.7947 69.2629 33.6602 80.273 28.3551C82.8959 27.105 85.3663 27.7148 86.6778 29.91C88.0197 32.1357 87.3488 34.5139 85.0004 36.2823C80.822 39.4837 76.5827 42.5936 72.5568 45.9779C53.312 62.1067 37.6051 81.1626 25.3751 103.084C25.1616 103.45 24.9786 103.816 24.7651 104.243C28.8824 104.792 37.6356 103.694 40.655 102.2C40.289 101.987 39.984 101.865 39.74 101.682C36.8426 99.1513 35.0737 95.9804 34.3112 92.2607C34.0672 91.1326 34.1282 90.0959 35.1957 89.3947C36.1717 88.7544 37.0866 88.9983 38.0626 89.5166C39.679 90.3398 41.326 91.1631 43.0644 91.7119C47.2733 93.0534 51.5736 92.9924 55.9044 92.4741C58.9543 92.1082 61.5772 90.9801 63.9561 88.9983C68.2565 85.3701 72.7093 81.9858 77.0402 78.388C80.09 75.8574 82.9874 73.1439 86.1898 70.3084L86.2203 70.3693ZM4.72732 129.153C4.91032 129.244 5.09331 129.305 5.2763 129.397C7.31973 127.75 9.36315 126.134 11.3761 124.457C11.6506 124.244 11.8031 123.787 11.8946 123.421C14.7005 113.39 19.2143 104.152 24.5211 95.2486C38.8251 71.1926 57.5209 51.1611 79.846 34.3919C80.3035 34.0566 80.761 33.7212 81.2185 33.3553C80.6085 33.3858 80.1205 33.5992 79.6936 33.8736C74.9357 36.8311 69.9949 39.5751 65.4811 42.868C49.8962 54.1795 36.5681 67.8387 24.5211 82.809C16.5304 92.718 10.3391 103.511 7.41123 115.981C6.37426 120.341 5.64229 124.762 4.78832 129.153H4.72732Z" fill="#343434"/>
</svg>
