<svg width="24" height="23" viewBox="0 0 24 23" fill="none" xmlns="http://www.w3.org/2000/svg">
<path d="M4.01 22.998C3.34494 22.9914 2.78081 22.8899 2.24773 22.6419C1.19775 22.1532 0.50552 21.3389 0.171051 20.2083C0.0267831 19.7195 -0.0217375 19.2176 0.00866875 18.7089C0.0591302 17.8535 0.31079 17.0604 0.735831 16.3237C0.979728 15.9013 1.27279 15.5187 1.61114 15.1725C1.98702 14.7872 2.36224 14.4026 2.73811 14.0173C6.71939 9.93649 10.7007 5.85629 14.6819 1.77544C15.0501 1.39812 15.4537 1.06988 15.9034 0.801312C16.4927 0.449194 17.1235 0.211796 17.7957 0.0884552C18.2291 0.00888051 18.6665 -0.0183075 19.1044 0.0121961C20.4223 0.10437 21.5654 0.609006 22.4989 1.57451C23.1976 2.29732 23.6518 3.16269 23.8692 4.15804C23.9863 4.69384 24.0257 5.23561 23.9837 5.7807C23.8789 7.14341 23.3671 8.32709 22.4698 9.33769C22.4025 9.41328 22.332 9.48689 22.2615 9.55917C19.9468 11.9325 17.6313 14.3051 15.3166 16.6778C15.2849 16.7103 15.2532 16.7434 15.2196 16.7733C14.8605 17.0896 14.2957 16.9842 14.0706 16.5624C13.9153 16.2713 13.9561 15.9092 14.176 15.6652C14.2019 15.6367 14.2291 15.6095 14.2563 15.5823C16.5639 13.217 18.8715 10.8516 21.1798 8.48624C21.3875 8.27338 21.5803 8.04725 21.7472 7.79924C22.1004 7.27272 22.3307 6.69514 22.4375 6.06584C22.497 5.71571 22.5119 5.36227 22.4795 5.00882C22.409 4.2396 22.147 3.54797 21.6734 2.94253C21.1585 2.28405 20.4954 1.86629 19.7016 1.65873C19.283 1.54931 18.8567 1.52014 18.4277 1.5586C17.5615 1.63618 16.791 1.9631 16.1169 2.52477C15.9836 2.63617 15.8568 2.75686 15.7345 2.88219C14.5331 4.11096 13.3331 5.34171 12.133 6.5718C8.99339 9.78994 5.85378 13.0081 2.71353 16.2255C2.47351 16.4716 2.25744 16.7368 2.07694 17.0319C1.82916 17.4371 1.65125 17.8714 1.56197 18.3422C1.46687 18.8469 1.47399 19.3475 1.6312 19.8402C1.76059 20.2461 1.97731 20.5942 2.29496 20.872C2.59643 21.136 2.94449 21.309 3.3333 21.3952C3.81786 21.5027 4.29789 21.4742 4.77274 21.3429C5.41904 21.1645 5.978 20.8256 6.46514 20.3594C6.50784 20.3183 6.54989 20.2759 6.5913 20.2335C10.6631 16.0604 14.7343 11.8874 18.8062 7.71436C19.1264 7.38612 19.3871 7.01543 19.5735 6.5917C19.6919 6.32247 19.7747 6.04263 19.8051 5.74821C19.8297 5.50749 19.8219 5.2681 19.7533 5.03402C19.6116 4.55127 19.294 4.26679 18.8178 4.16334C18.5571 4.10631 18.2964 4.11958 18.037 4.17395C17.5259 4.28005 17.0769 4.51944 16.6693 4.84636C16.5361 4.95312 16.4125 5.07116 16.2928 5.19384C13.456 8.10229 10.6185 11.0101 7.78167 13.9179C7.73768 13.963 7.69498 14.0094 7.64775 14.0505C7.23824 14.4126 6.5803 14.2276 6.4328 13.6778C6.35904 13.4053 6.41856 13.1606 6.60165 12.9484C6.61976 12.9272 6.63982 12.9079 6.65987 12.888C9.531 9.94511 12.4028 7.00217 15.2732 4.05923C15.5721 3.75287 15.9008 3.48497 16.2631 3.2615C16.7554 2.95779 17.282 2.74559 17.85 2.64877C18.3669 2.56058 18.8806 2.57384 19.3865 2.72636C19.7041 2.82251 19.9959 2.97105 20.2599 3.17595C20.5937 3.43523 20.846 3.76348 21.0258 4.14942C21.2607 4.65206 21.3422 5.18455 21.3073 5.73826C21.2529 6.59833 20.9521 7.36622 20.4785 8.06913C20.2955 8.34035 20.0865 8.58902 19.8581 8.82178C19.7067 8.97629 19.5554 9.13146 19.4046 9.28663C16.3284 12.4398 13.2522 15.5929 10.176 18.7454C9.32721 19.6154 8.47778 20.4854 7.62834 21.3548C7.04092 21.9556 6.36034 22.4078 5.57819 22.6963C5.21008 22.8316 4.83226 22.9264 4.4428 22.9655C4.27136 22.9828 4.09928 22.9927 4.00935 23L4.01 22.998Z" fill="black"/>
</svg>
