<svg width="100" height="30" viewBox="0 0 100 30" fill="none" xmlns="http://www.w3.org/2000/svg">
<path d="M94.1736 28.8658L94.1746 28.8664C94.3915 28.9875 94.6099 29.0965 94.8399 29.2113C94.8951 29.2388 94.9509 29.2667 95.0075 29.2952H96.7444C98.1311 28.7323 99.0398 27.7509 99.4999 26.3313V25.3003C99.4645 25.2152 99.4303 25.1317 99.3964 25.0493C99.3074 24.8324 99.2213 24.6229 99.1268 24.4101C98.4739 22.9581 97.0883 22.17 95.409 22.3309L94.1736 28.8658ZM94.1736 28.8658C92.8131 28.1107 92.0772 26.5985 92.334 25.2604L92.334 25.2603M94.1736 28.8658L92.334 25.2603M92.334 25.2603C92.6389 23.6714 93.9257 22.4739 95.4088 22.3309L92.334 25.2603Z" fill="black" stroke="black"/>
<path d="M1.03755 9.49129H4.26854H4.72916L4.76687 9.03221C4.77878 8.88708 4.79225 8.74575 4.80541 8.60767C4.835 8.29714 4.86302 8.00305 4.86835 7.71914L4.86836 7.71838C4.90479 5.60435 5.43776 3.99895 6.42913 2.85113C7.41914 1.70488 8.92063 0.952057 11.02 0.649583C12.1551 0.487212 13.2941 0.496118 14.4756 0.505355C14.9898 0.509375 15.512 0.513458 16.0454 0.50351L1.03755 9.49129ZM1.03755 9.49129C1.03659 9.76211 1.03503 10.0293 1.03349 10.2935C1.02642 11.5069 1.01971 12.6574 1.073 13.8068C1.09761 13.8332 1.136 13.8679 1.18768 13.9055C1.24925 13.9502 1.31685 13.9897 1.37904 14.018C1.40972 14.0319 1.43603 14.0417 1.45696 14.0481C1.46725 14.0512 1.47532 14.0532 1.48117 14.0545C1.48669 14.0556 1.48936 14.0559 1.48936 14.0559L1.48932 14.0559L1.43994 14.5535M1.03755 9.49129L10.5489 15.7245C10.5241 18.8479 10.5262 21.9717 10.5283 25.0942C10.5288 25.9613 10.5294 26.8283 10.5294 27.6951C10.5294 28.1705 10.4072 28.4363 10.2492 28.5888C10.0878 28.7445 9.8019 28.8665 9.29717 28.8665H9.28796H9.27875H9.26954H9.26034H9.25113H9.24192H9.23271H9.2235H9.21429H9.20509H9.19588H9.18667H9.17746H9.16825H9.15904H9.14983H9.14062H9.13141H9.1222H9.11299H9.10378H9.09457H9.08536H9.07615H9.06694H9.05772H9.04851H9.0393H9.03009H9.02087H9.01166H9.00245H8.99323H8.98402H8.9748H8.96559H8.95637H8.94716H8.93794H8.92873H8.91951H8.91029H8.90107H8.89186H8.88264H8.87342H8.8642H8.85498H8.84576H8.83654H8.82732H8.8181H8.80887H8.79965H8.79043H8.7812H8.77198H8.76275H8.75353H8.7443H8.73508H8.72585H8.71662H8.70739H8.69817H8.68894H8.67971H8.67048H8.66124H8.65201H8.64278H8.63355H8.62431H8.61508H8.60584H8.59661H8.58737H8.57813H8.5689H8.55966H8.55042H8.54118H8.53194H8.5227H8.51345H8.50421H8.49497H8.48572H8.47648H8.46723H8.45798H8.44874H8.43949H8.43024H8.42099H8.41174H8.40248H8.39323H8.38398H8.37472H8.36547H8.35621H8.34695H8.33769H8.32843H8.31917H8.30991H8.30065H8.29139H8.28212H8.27286H8.26359H8.25433H8.24506H8.23579H8.22652H8.21725H8.20798H8.1987H8.18943H8.18015H8.17088H8.1616H8.15232H8.14304H8.13376H8.12448H8.11519H8.10591H8.09663H8.08734H8.07805H8.06876H8.05947H8.05018H8.04089H8.0316H8.0223H8.01301H8.00371H7.99441H7.98511H7.97581H7.96651H7.9572H7.9479H7.93859H7.92929H7.91998H7.91067H7.90136H7.89205H7.88273H7.87342H7.8641H7.85478H7.84546H7.83614H7.82682H7.8175H7.80817H7.79885H7.78952H7.78019H7.77086H7.76153H7.7522H7.74286H7.73353H7.72419H7.71485H7.70551H7.69617H7.68682H7.67748H7.66813H7.65878H7.64943H7.64008H7.63073H7.62137H7.61202H7.60266H7.5933H7.58394H7.57458H7.56521H7.55585H7.54648H7.53711H7.52774H7.51837H7.509H7.49962H7.49024H7.48087H7.47148H7.4621H7.45272H7.44333H7.43395H7.42456H7.41516H7.40577H7.39638H7.38698H7.37758H7.36818H7.35878H7.34938H7.33997H7.33057H7.32116H7.31175H7.30233H7.29292H7.2835H7.27409H7.26467H7.25524H7.24582H7.23639H7.22697H7.21754H7.20811H7.19867H7.18924H7.1798H7.17036H7.16092H7.15147H7.14203H7.13258H7.12313H7.11368H7.10423H7.09477H7.08532H7.07586H7.06639H7.05693H7.04746H7.038H7.02853H7.01905H7.00958H7.0001H6.99063H6.98115H6.97166H6.96218H6.95269H6.9432H6.93371H6.92422H6.91472H6.90522H6.89572H6.88622H6.87672H6.86721H6.8577H6.84819H6.83868H6.82916H6.81964H6.81012H6.8006H6.79107H6.78155H6.77202H6.76249H6.75295H6.74342H6.73388H6.72434H6.71479H6.70525H6.6957H6.68615H6.67659H6.66704H6.65748H6.64792H6.63836H6.62879H6.61922H6.60965H6.60008H6.5905H6.58093H6.57135H6.56176H6.55218H6.54259H6.533H6.52341H6.51381H6.50421H6.49461H6.48501H6.4754H6.4658H6.45619H6.44657H6.43696H6.42734H6.41772H6.40809H6.39847H6.38884H6.3792H6.36957H6.35993H6.35029H6.34065H6.331H6.32136H6.31171H6.30205H6.2924H6.28274H6.27307H6.26341H6.25374H6.24407H6.2344H6.22472H6.21505H6.20536H6.19568H6.18599H6.1763H6.16661H6.15692H6.14722H6.13752H6.12781H6.1181H6.10839H6.09868H6.08897H6.07925H6.06953H6.0598H6.05007H6.04034H6.03061H6.02087H6.01113H6.00139H5.99165H5.9819H5.97215H5.96239H5.95263H5.94287H5.93311H5.92334H5.91357H5.9038H5.89403H5.88425H5.87446H5.86468H5.85489H5.8451H5.83531H5.82551H5.81571H5.8059H5.7961H5.78629H5.77647H5.76666H5.75684H5.74701H5.73719H5.72736H5.71752H5.70769H5.69785H5.68801H5.67816H5.66831H5.65846H5.6486H5.63874H5.62888H5.61902H5.60915H5.59928H5.5894H5.57952H5.56964H5.55975H5.54986H5.53997H5.53008H5.52018H5.51027H5.50037H5.49046H5.48055H5.47063H5.46071H5.45079H5.44086H5.43093H5.421H5.41106H5.40112H5.39117H5.38123H5.37128H5.36132H5.35136H5.3414H5.33144H5.32147H5.31149H5.30152H5.29154H5.28155H5.27157H5.26158H5.25158H5.24158H5.23158H5.22158H5.21157H5.20156H5.19154H5.18152H5.1715H5.16147H5.15144H5.1414H5.13137H5.12132H5.11128H5.10123H5.09118H5.08112H5.07106H5.06099H5.05092H5.04085H5.03078H5.02069H5.01061H5.00052H4.99043H4.98034H4.97024H4.96013H4.95003H4.93992H4.9298H4.91968H4.90956H4.89943H4.8893H4.88792V14.5851V14.0851H4.38792C4.04398 14.0851 3.72526 14.0901 3.42395 14.0947C2.71636 14.1057 2.10476 14.1152 1.48785 14.0558L1.43994 14.5535M23.3495 9.42551H11.2H10.7856L10.7086 9.0183C10.483 7.82388 10.5285 6.81852 11.0738 6.11112C11.627 5.39344 12.5664 5.14416 13.7049 5.13402L13.7055 5.13401C14.0197 5.13155 14.3244 5.13498 14.6233 5.13834C15.2494 5.14539 15.8505 5.15216 16.4621 5.10388L16.4653 5.10363L16.4653 5.10364C16.465 5.10365 16.4655 5.10362 16.4668 5.10345C16.4681 5.10329 16.4702 5.10299 16.473 5.10249C16.4787 5.10148 16.4865 5.09982 16.4964 5.0972C16.5167 5.09188 16.5422 5.08356 16.5719 5.07167C16.6321 5.04757 16.6974 5.01373 16.7564 4.97567C16.79 4.95401 16.8169 4.93392 16.8374 4.91703C16.8842 3.71354 16.8794 2.50886 16.8744 1.26233C16.8734 1.02355 16.8725 0.783229 16.8719 0.541089C16.8455 0.539221 16.8197 0.537376 16.7943 0.535565C16.5088 0.515165 16.2839 0.499096 16.0454 0.503509L23.3495 9.42551ZM23.3495 9.42551V28.808H17.8542V14.6168V14.1168H17.3542C16.9291 14.1168 16.5081 14.1156 16.0904 14.1145C14.509 14.1101 12.9753 14.1058 11.4483 14.1659L11.4453 14.1661C11.2567 14.1746 11.128 14.2738 11.07 14.3258C11.0037 14.3853 10.9534 14.4525 10.9174 14.5072C10.844 14.6186 10.782 14.7519 10.7327 14.8792C10.637 15.1266 10.5508 15.4536 10.5489 15.7238L23.3495 9.42551ZM1.43994 14.5535C2.08602 14.6157 2.73946 14.6056 3.46103 14.5945C3.60063 14.5923 3.74278 14.5901 3.88792 14.5884M1.43994 14.5535C1.12078 14.5218 0.589656 14.149 0.577475 13.9127L3.88792 14.5884M3.88792 14.5884V14.5851H4.38792V15.0851L3.88792 14.5884Z" fill="black" stroke="black"/>
<path d="M72.8629 11.2158C73.5402 10.1636 74.5096 9.5584 75.6686 9.52267L88.6052 14.5826C86.354 14.5997 85.0847 15.6376 84.9799 17.9058C84.878 20.112 84.8734 22.3217 84.8689 24.5316C84.8668 25.5455 84.8647 26.5595 84.8532 27.5733L84.3532 27.5667C84.3532 27.5669 84.3532 27.5671 84.3532 27.5673C84.3482 27.948 84.3246 28.3217 84.2988 28.7299C84.2974 28.7518 84.2961 28.7737 84.2947 28.7958H78.5923V14.836V14.4253L78.1894 14.3455C76.1064 13.9331 74.4005 13.9062 73.1993 14.6627C71.9574 15.4447 71.4272 16.9412 71.3798 19.0959L71.3798 19.096C71.3292 21.4098 71.3414 23.7278 71.3539 26.0757C71.3586 26.9622 71.3633 27.853 71.3646 28.7495H65.7357V9.53752H71.314C71.3339 9.9832 71.3536 10.4347 71.3749 10.9207C71.3844 11.1379 71.3942 11.3621 71.4045 11.5957L71.4598 12.8558L72.2829 11.9C72.3568 11.8142 72.4215 11.744 72.4873 11.6728C72.5176 11.6399 72.5482 11.6068 72.5799 11.5718C72.6741 11.4682 72.7747 11.3522 72.8624 11.2166L72.8629 11.2158ZM91.2678 10.2132C91.272 11.4565 91.2761 12.6676 91.2367 13.8803L75.6689 9.52266C77.7826 9.45893 79.8943 9.47103 82.0604 9.48344C82.7958 9.48766 83.5374 9.49191 84.2875 9.49324C84.3327 10.126 84.3799 10.7791 84.4444 11.6701L84.4447 11.6732L84.5646 13.3306L85.3792 11.8822C86.1382 10.5325 87.0664 9.91745 88.0986 9.6418C89.0453 9.38898 90.1005 9.41413 91.2657 9.49484C91.2662 9.73564 91.267 9.97502 91.2678 10.2132Z" fill="black" stroke="black"/>
<path d="M49.4331 20.71V20.7267L49.4342 20.7432C49.497 21.6866 49.7428 22.4964 50.2137 23.1366C50.6886 23.7823 51.3622 24.2141 52.2028 24.4489C53.9103 24.929 55.8073 24.9638 57.1764 23.3119L57.1767 23.3115C57.4016 23.0395 57.5527 22.95 57.667 22.9176C57.7834 22.8846 57.9474 22.8863 58.2544 22.981C59.3489 23.3192 60.455 23.6288 61.644 23.9616C61.9438 24.0456 62.2489 24.131 62.5603 24.2187C62.5404 24.2572 62.5208 24.2953 62.5015 24.3328C62.4466 24.4394 62.3942 24.5412 62.3445 24.6351C62.1887 24.9292 62.0437 25.1771 61.874 25.3916C59.1916 28.7769 55.587 29.6051 51.4737 28.824C47.5461 28.0765 45.1179 25.5813 44.0786 21.7628C42.6127 16.3748 45.3921 10.9298 50.1852 9.60968L50.1853 9.60966C52.997 8.83478 55.8493 8.9703 58.1601 10.0703C60.4565 11.1635 62.2588 13.2268 62.9718 16.4048L62.9716 16.4048L62.9746 16.4166C62.9793 16.4355 62.9841 16.4524 62.9879 16.4652L62.9931 16.4828L62.9971 16.4961C62.9988 16.5018 62.9998 16.5055 63.0004 16.5076L63.0025 16.5174C63.2178 17.5187 63.3548 18.2498 63.3872 18.7957C63.4201 19.3484 63.3374 19.6049 63.2263 19.7453C63.1168 19.8835 62.8929 20.0187 62.3587 20.1035C61.8297 20.1875 61.1002 20.2076 60.0926 20.2076H60.0753H60.058H60.0407H60.0234H60.006H59.9887H59.9714H59.9541H59.9368H59.9195H59.9022H59.8848H59.8675H59.8502H59.8329H59.8156H59.7983H59.7809H59.7636H59.7463H59.729H59.7117H59.6944H59.677H59.6597H59.6424H59.6251H59.6078H59.5905H59.5731H59.5558H59.5385H59.5212H59.5039H59.4866H59.4692H59.4519H59.4346H59.4173H59.4H59.3827H59.3654H59.348H59.3307H59.3134H59.2961H59.2788H59.2615H59.2441H59.2268H59.2095H59.1922H59.1749H59.1576H59.1402H59.1229H59.1056H59.0883H59.071H59.0537H59.0363H59.019H59.0017H58.9844H58.9671H58.9498H58.9325H58.9151H58.8978H58.8805H58.8632H58.8459H58.8286H58.8112H58.7939H58.7766H58.7593H58.742H58.7247H58.7073H58.69H58.6727H58.6554H58.6381H58.6208H58.6035H58.5861H58.5688H58.5515H58.5342H58.5169H58.4996H58.4822H58.4649H58.4476H58.4303H58.413H58.3957H58.3783H58.361H58.3437H58.3264H58.3091H58.2918H58.2745H58.2571H58.2398H58.2225H58.2052H58.1879H58.1706H58.1532H58.1359H58.1186H58.1013H58.084H58.0667H58.0494H58.032H58.0147H57.9974H57.9801H57.9628H57.9455H57.9281H57.9108H57.8935H57.8762H57.8589H57.8416H57.8243H57.8069H57.7896H57.7723H57.755H57.7377H57.7204H57.703H57.6857H57.6684H57.6511H57.6338H57.6165H57.5992H57.5818H57.5645H57.5472H57.5299H57.5126H57.4953H57.478H57.4606H57.4433H57.426H57.4087H57.3914H57.3741H57.3567H57.3394H57.3221H57.3048H57.2875H57.2702H57.2529H57.2355H57.2182H57.2009H57.1836H57.1663H57.149H57.1317H57.1143H57.097H57.0797H57.0624H57.0451H57.0278H57.0105H56.9931H56.9758H56.9585H56.9412H56.9239H56.9066H56.8893H56.8719H56.8546H56.8373H56.82H56.8027H56.7854H56.7681H56.7507H56.7334H56.7161H56.6988H56.6815H56.6642H56.6469H56.6295H56.6122H56.5949H56.5776H56.5603H56.543H56.5257H56.5083H56.491H56.4737H56.4564H56.4391H56.4218H56.4045H56.3872H56.3698H56.3525H56.3352H56.3179H56.3006H56.2833H56.266H56.2486H56.2313H56.214H56.1967H56.1794H56.1621H56.1448H56.1274H56.1101H56.0928H56.0755H56.0582H56.0409H56.0236H56.0063H55.9889H55.9716H55.9543H55.937H55.9197H55.9024H55.8851H55.8678H55.8504H55.8331H55.8158H55.7985H55.7812H55.7639H55.7466H55.7292H55.7119H55.6946H55.6773H55.66H55.6427H55.6254H55.6081H55.5907H55.5734H55.5561H55.5388H55.5215H55.5042H55.4869H55.4696H55.4523H55.4349H55.4176H55.4003H55.383H55.3657H55.3484H55.3311H55.3138H55.2964H55.2791H55.2618H55.2445H55.2272H55.2099H55.1926H55.1753H55.1579H55.1406H55.1233H55.106H55.0887H55.0714H55.0541H55.0368H55.0195H55.0021H54.9848H54.9675H54.9502H54.9329H54.9156H54.8983H54.881H54.8637H54.8463H54.829H54.8117H54.7944H54.7771H54.7598H54.7425H54.7252H54.7079H54.6905H54.6732H54.6559H54.6386H54.6213H54.604H54.5867H54.5694H54.5521H54.5347H54.5174H54.5001H54.4828H54.4655H54.4482H54.4309H54.4136H54.3963H54.379H54.3616H54.3443H54.327H54.3097H54.2924H54.2751H54.2578H54.2405H54.2232H54.2059H54.1885H54.1712H54.1539H54.1366H54.1193H54.102H54.0847H54.0674H54.0501H54.0328H54.0154H53.9981H53.9808H53.9635H53.9462H53.9289H53.9116H53.8943H53.877H53.8597H53.8424H53.825H53.8077H53.7904H53.7731H53.7558H53.7385H53.7212H53.7039H53.6866H53.6693H53.652H53.6346H53.6173H53.6H53.5827H53.5654H53.5481H53.5308H53.5135H53.4962H53.4789H53.4616H53.4443H53.4269H53.4096H53.3923H53.375H53.3577H53.3404H53.3231H53.3058H53.2885H53.2712H53.2539H53.2366H53.2193H53.2019H53.1846H53.1673H53.15H53.1327H53.1154H53.0981H53.0808H53.0635H53.0462H53.0289H53.0116H52.9943H52.977H52.9596H52.9423H52.925H52.9077H52.8904H52.8731H52.8558H52.8385H52.8212H52.8039H52.7866H52.7693H52.752H52.7347H52.7174H52.7H52.6827H52.6654H52.6481H52.6308H52.6135H52.5962H52.5789H52.5616H52.5443H52.527H52.5097H52.4924H52.4751H52.4578H52.4405H52.4232H52.4058H52.3885H52.3712H52.3539H52.3366H52.3193H52.302H52.2847H52.2674H52.2501H52.2328H52.2155H52.1982H52.1809H52.1636H52.1463H52.129H52.1117H52.0944H52.0771H52.0597H52.0424H52.0251H52.0078H51.9905H51.9732H51.9559H51.9386H51.9213H51.904H51.8867H51.8694H51.8521H51.8348H51.8175H51.8002H51.7829H51.7656H51.7483H51.731H51.7137H51.6964H51.6791H51.6618H51.6445H51.6272H51.6099H51.5925H51.5752H51.5579H51.5406H51.5233H51.506H51.4887H51.4714H51.4541H51.4368H51.4195H51.4022H51.3849H51.3676H51.3503H51.333H51.3157H51.2984H51.2811H51.2638H51.2465H51.2292H51.2267H51.2241H51.2216H51.2191H51.2166H51.214H51.2115H51.209H51.2065H51.2039H51.2014H51.1989H51.1964H51.1938H51.1913H51.1888H51.1862H51.1837H51.1812H51.1787H51.1761H51.1736H51.1711H51.1686H51.166H51.1635H51.161H51.1585H51.1559H51.1534H51.1509H51.1484H51.1458H51.1433H51.1408H51.1383H51.1357H51.1332H51.1307H51.1282H51.1256H51.1231H51.1206H51.1181H51.1155H51.113H51.1105H51.108H51.1054H51.1029H51.1004H51.0979H51.0953H51.0928H51.0903H51.0878H51.0852H51.0827H51.0802H51.0777H51.0752H51.0726H51.0701H51.0676H51.0651H51.0625H51.06H51.0575H51.055H51.0524H51.0499H51.0474H51.0449H51.0423H51.0398H51.0373H51.0348H51.0322H51.0297H51.0272H51.0247H51.0221H51.0196H51.0171H51.0146H51.0121H51.0095H51.007H51.0045H51.002H50.9994H50.9969H50.9944H50.9919H50.9893H50.9868H50.9843H50.9818H50.9792H50.9767H50.9742H50.9717H50.9692H50.9666H50.9641H50.9616H50.9591H50.9565H50.954H50.9515H50.949H50.9464H50.9439H50.9414H50.9389H50.9364H50.9338H50.9313H50.9288H50.9263H50.9237H50.9212H50.9187H50.9162H50.9136H50.9111H50.9086H50.9061H50.9036H50.901H50.8985H50.896H50.8935H50.8909H50.8884H50.8859H50.8834H50.8808H50.8783H50.8758H50.8733H50.8708H50.8682H50.8657H50.8632H50.8607H50.8581H50.8556H50.8531H50.8506H50.848H50.8455H50.843H50.8405H50.8379H50.8354H50.8329H50.8304H50.8279H50.8253H50.8228H50.8203H50.8178H50.8152H50.8127H50.8102H50.8077H50.8051H50.8026H50.8001H50.7976H50.795H50.7925H50.79H50.7875H50.785H50.7824H50.7799H50.7774H50.7749H50.7723H50.7698H50.7673H50.7648H50.7622H50.7597H50.7572H50.7547H50.7521H50.7496H50.7471H50.7446H50.742H50.7395H50.737H50.7345H50.732H50.7294H50.7269H50.7244H50.7219H50.7193H50.7168H50.7143H50.7118H50.7092H50.7067H50.7042H50.7017H50.6991H50.6966H50.6941H50.6916H50.689H50.6865H50.684H50.6815H50.6789H50.6764H50.6739H50.6714H50.6688H50.6663H50.6638H50.6613H50.6587H50.6562H50.6537H50.6512H50.6486H50.6461H50.6436H50.6411H50.6385H50.636H50.6335H50.631H50.6284H50.6259H50.6234H50.6208H50.6183H50.6158H50.6133H50.6107H50.6082H50.6057H50.6032H50.6006H50.5981H50.5956H50.5931H50.5905H50.588H50.5855H50.583H50.5804H50.5779H50.5754H50.5728H50.5703H50.5678H50.5653H50.5627H50.5602H50.5577H50.5552H50.5526H50.5501H50.5476H50.545H50.5425H50.54H50.5375H50.5349H50.5324H50.5299H50.5274H50.5248H50.5223H50.5198H50.5172H50.5147H50.5122H50.5097H50.5071H50.5046H50.5021H50.4995H50.497H50.4945H50.492H50.4894H50.4869H50.4844H50.4818H50.4793H50.4768H50.4742H50.4717H50.4692H50.4667H50.4641H50.4616H50.4591H50.4565H50.454H50.4515H50.4489H50.4464H50.4439H50.4414H50.4388H50.4363H50.4338H50.4312H50.4287H50.4262H50.4236H50.4211H50.4186H50.416H50.4135H50.411H50.4085H50.4059H50.4034H50.4009H50.3983H50.3958H50.3933H50.3907H50.3882H50.3857H50.3831H50.3806H50.3781H50.3755H50.373H50.3705H50.3679H50.3654H50.3629H50.3603H50.3578H50.3553H50.3527H50.3502H50.3477H50.3451H50.3426H50.3401H50.3375H50.335H50.3325H50.3299H50.3274H50.3249H50.3223H50.3198H50.3173H50.3147H50.3122H50.3096H50.3071H50.3046H50.302H50.2995H50.297H50.2944H50.2919H50.2894H50.2868H50.2843H50.2818H50.2792H50.2767H50.2741H50.2716H50.2691H50.2665H50.264H50.2615H50.2589H50.2564H50.2538H50.2513H50.2488H50.2462H50.2437H50.2412H50.2386H50.2361H50.2335H50.231H50.2285H50.2259H50.2234H50.2208H50.2183H50.2158H50.2132H50.2107H50.2081H50.2056H50.2031H50.2005H50.198H50.1954H50.1929H50.1904H50.1878H50.1853H50.1827H50.1802H50.1777H50.1751H50.1726H50.17H50.1675H50.165H50.1624H50.1599H50.1573H50.1548H50.1522H50.1497H50.1472H50.1446H50.1421H50.1395H50.137H50.1344H50.1319H50.1294H50.1268H50.1243H50.1217H50.1192H50.1166H50.1141H50.1115H50.109H50.1065H50.1039H50.1014H50.0988H50.0963H50.0937H50.0912H50.0886H50.0861H50.0835H50.081H50.0785H50.0759H50.0734H50.0708H50.0683H50.0657H50.0632H50.0606H50.0581H50.0555H50.053H50.0504H50.0479H50.0453H50.0428H50.0402H50.0377H50.0351H50.0326H50.03H50.0275H50.0249H50.0224H50.0198H50.0173H50.0147H50.0122H50.0096H50.0071H50.0045H50.002H49.9994H49.9969H49.9943H49.9918H49.9892H49.9867H49.9841H49.9816H49.979H49.9765H49.9739H49.9714H49.9688H49.9663H49.9637H49.9612H49.9586H49.956H49.9535H49.9509H49.9484H49.9458H49.9433H49.9407H49.9382H49.9356H49.9331H49.4331V20.7076V20.71ZM56.7914 22.9929C57.303 22.3741 57.7148 22.2912 58.4018 22.5032C59.4896 22.8394 60.586 23.1462 61.772 23.4782C62.1068 23.572 62.4488 23.6677 62.7997 23.7666L56.7914 22.9929ZM49.4657 16.6633L49.432 17.1949H49.9647H57.0448H57.6013L57.5419 16.6416C57.4204 15.5091 56.9848 14.5923 56.2232 13.9715C55.4672 13.3553 54.4532 13.0822 53.2707 13.1057L53.2704 13.1057C52.1712 13.1281 51.2414 13.4247 50.5666 14.0498C49.8892 14.6774 49.5348 15.5746 49.4657 16.6633Z" fill="black" stroke="black"/>
<path d="M24.9288 9.46121C25.2535 9.46027 25.5762 9.45868 25.8973 9.4571C27.4151 9.44963 28.8971 9.44233 30.3795 9.50525C30.4149 9.53382 30.465 9.58535 30.5224 9.66136C30.6413 9.81852 30.74 10.011 30.7814 10.1426L30.7814 10.1426C31.5199 12.4909 32.2296 14.8491 32.9401 17.2104C33.1803 18.0083 33.4205 18.8066 33.662 19.605C33.7349 19.8464 33.8119 20.089 33.917 20.4202C33.9611 20.5591 34.0101 20.7135 34.0658 20.8899L34.5518 22.429L35.021 20.8847C35.3327 19.8585 35.6376 18.8591 35.9371 17.8774C36.5357 15.9153 37.1126 14.024 37.6796 12.1315L24.9288 9.46121ZM24.9288 9.46121C25.053 9.80432 25.1771 10.1474 25.3012 10.4905C27.472 16.4905 29.6424 22.4894 31.8561 28.4709C31.856 28.4706 31.8559 28.4705 31.856 28.4705C31.8562 28.4704 31.8674 28.4943 31.9088 28.5372C31.9517 28.5816 32.012 28.6308 32.0853 28.6776C32.2429 28.7782 32.3934 28.8261 32.4677 28.831L32.4681 28.831C33.0918 28.8722 33.7214 28.8671 34.3717 28.8604L34.4287 28.8598C35.0552 28.8533 35.7015 28.8466 36.3479 28.8844L36.3489 28.8844C36.7266 28.9073 36.9081 28.8412 37.0195 28.7585C37.142 28.6676 37.2665 28.4932 37.3998 28.1213C38.8531 24.0562 40.3336 20.0006 41.8134 15.9469C42.3758 14.4061 42.9382 12.8655 43.499 11.3248L43.4993 11.3239C43.6725 10.8512 43.8365 10.3795 44.0212 9.84858C44.0532 9.75654 44.0858 9.66272 44.1192 9.5668H44.1179H44.1101H44.1024H44.0947H44.087H44.0793H44.0716H44.0639H44.0562H44.0485H44.0408H44.0331H44.0254H44.0177H44.0101H44.0024H43.9947H43.9871H43.9794H43.9718H43.9641H43.9565H43.9488H43.9412H43.9336H43.9259H43.9183H43.9107H43.9031H43.8955H43.8879H43.8803H43.8727H43.8651H43.8575H43.8499H43.8423H43.8347H43.8272H43.8196H43.812H43.8044H43.7969H43.7893H43.7818H43.7742H43.7667H43.7591H43.7516H43.7441H43.7365H43.729H43.7215H43.714H43.7065H43.699H43.6915H43.684H43.6765H43.669H43.6615H43.654H43.6465H43.639H43.6315H43.6241H43.6166H43.6091H43.6017H43.5942H43.5868H43.5793H43.5718H43.5644H43.557H43.5495H43.5421H43.5347H43.5272H43.5198H43.5124H43.505H43.4976H43.4902H43.4827H43.4753H43.4679H43.4606H43.4532H43.4458H43.4384H43.431H43.4236H43.4163H43.4089H43.4015H43.3941H43.3868H43.3794H43.3721H43.3647H43.3574H43.35H43.3427H43.3353H43.328H43.3207H43.3134H43.306H43.2987H43.2914H43.2841H43.2768H43.2694H43.2621H43.2548H43.2475H43.2402H43.2329H43.2257H43.2184H43.2111H43.2038H43.1965H43.1892H43.182H43.1747H43.1674H43.1602H43.1529H43.1457H43.1384H43.1311H43.1239H43.1167H43.1094H43.1022H43.0949H43.0877H43.0805H43.0732H43.066H43.0588H43.0516H43.0444H43.0371H43.0299H43.0227H43.0155H43.0083H43.0011H42.9939H42.9867H42.9795H42.9724H42.9652H42.958H42.9508H42.9436H42.9365H42.9293H42.9221H42.9149H42.9078H42.9006H42.8935H42.8863H42.8792H42.872H42.8649H42.8577H42.8506H42.8434H42.8363H42.8292H42.822H42.8149H42.8078H42.8006H42.7935H42.7864H42.7793H42.7722H42.765H42.7579H42.7508H42.7437H42.7366H42.7295H42.7224H42.7153H42.7082H42.7011H42.6941H42.687H42.6799H42.6728H42.6657H42.6586H42.6516H42.6445H42.6374H42.6304H42.6233H42.6162H42.6092H42.6021H42.5951H42.588H42.581H42.5739H42.5669H42.5598H42.5528H42.5457H42.5387H42.5317H42.5246H42.5176H42.5106H42.5035H42.4965H42.4895H42.4825H42.4754H42.4684H42.4614H42.4544H42.4474H42.4404H42.4334H42.4264H42.4193H42.4123H42.4053H42.3983H42.3914H42.3844H42.3774H42.3704H42.3634H42.3564H42.3494H42.3424H42.3355H42.3285H42.3215H42.3145H42.3075H42.3006H42.2936H42.2866H42.2797H42.2727H42.2657H42.2588H42.2518H42.2449H42.2379H42.231H42.224H42.2171H42.2101H42.2032H42.1962H42.1893H42.1823H42.1754H42.1684H42.1615H42.1546H42.1476H42.1407H42.1338H42.1268H42.1199H42.113H42.1061H42.0991H42.0922H42.0853H42.0784H42.0715H42.0645H42.0576H42.0507H42.0438H42.0369H42.03H42.0231H42.0162H42.0093H42.0024H41.9955H41.9886H41.9817H41.9748H41.9679H41.961H41.9541H41.9472H41.9403H41.9334H41.9265H41.9196H41.9127H41.9059H41.899H41.8921H41.8852H41.8783H41.8714H41.8646H41.8577H41.8508H41.8439H41.8371H41.8302H41.8233H41.8165H41.8096H41.8027H41.7959H41.789H41.7821H41.7753H41.7684H41.7615H41.7547H41.7478H41.741H41.7341H41.7272H41.7204H41.7135H41.7067H41.6998H41.693H41.6861H41.6793H41.6724H41.6656H41.6587H41.6519H41.645H41.6382H41.6313H41.6245H41.6177H41.6108H41.604H41.5971H41.5903H41.5835H41.5766H41.5698H41.563H41.5561H41.5493H41.5425H41.5356H41.5288H41.522H41.5151H41.5083H41.5015H41.4946H41.4878H41.481H41.4741H41.4673H41.4605H41.4537H41.4468H41.44H41.4332H41.4264H41.4196H41.4127H41.4059H41.3991H41.3923H41.3854H41.3786H41.3718H41.365H41.3582H41.3514H41.3445H41.3377H41.3309H41.3241H41.3173H41.3105H41.3036H41.2968H41.29H41.2832H41.2764H41.2696H41.2628H41.2559H41.2491H41.2423H41.2355H41.2287H41.2219H41.2151H41.2083H41.2014H41.1946H41.1878H41.181H41.1742H41.1674H41.1606H41.1538H41.147H41.1401H41.1333H41.1265H41.1197H41.1129H41.1061C40.3352 9.5668 39.7963 9.56759 39.3879 9.6101C38.9847 9.65207 38.7791 9.72931 38.6413 9.83278C38.5029 9.93662 38.3702 10.1138 38.2144 10.4911C38.0568 10.8727 37.9016 11.3908 37.6798 12.1308L37.6796 12.1315L24.9288 9.46121ZM30.3593 9.49034C30.3564 9.48897 30.355 9.48806 30.355 9.48795C30.355 9.48784 30.3564 9.48853 30.3593 9.49034Z" fill="black" stroke="black"/>
</svg>
