<svg width="70" height="81" viewBox="0 0 70 81" fill="none" xmlns="http://www.w3.org/2000/svg">
<path d="M69.9999 20.1504L61.2506 25.2022L52.5013 30.254L43.7493 35.3031L34.9999 40.3549V60.5541L34.9919 60.5594L34.9999 60.5621V70.6577L34.9946 70.663L34.9999 70.6657V80.7666L26.2506 75.7148V65.6139L26.2693 65.6032L26.2613 65.6006L26.2506 65.5926V55.5103L26.2693 55.4996L26.2506 55.489V35.3031L34.9999 30.254L43.7493 25.2022L52.5013 20.1504L61.2506 15.0986L69.9999 20.1504Z" fill="#2D2D2D"/>
<path d="M43.7387 5.05179L34.9893 10.1036L26.2373 15.1527L17.4987 20.1992V20.1912L17.488 20.1858V20.2098L8.76799 25.2456L8.74933 25.235V25.251L8.744 25.2536L8.74933 25.2563V35.3465L8.72534 35.3332V35.3599L8.73867 35.3545L8.74933 35.3599V45.4421L8.72534 45.4288V45.4555L8.73867 45.4501L8.74933 45.4555V55.5377L8.72534 55.5244V55.551L8.73867 55.543L8.74933 55.551V65.6333L8.72534 65.62V65.6333L0 60.5975V20.2045L8.744 15.1554L8.74933 15.158V15.1474L8.75466 15.142L17.488 10.1036L26.2373 5.05179L34.9893 0L43.7387 5.05179Z" fill="#2D2D2D"/>
<path d="M43.7387 5.05176V15.1527L34.9893 20.2045L26.2373 25.2563L17.4987 30.3001V30.2867L17.488 30.2814V30.3081L17.4987 30.3027V60.5975L8.74933 65.6466V55.551L8.76532 55.5404L8.75999 55.5377L8.74933 55.5324V45.4554L8.75999 45.4501L8.76799 45.4448L8.77332 45.4421L8.76799 45.4394L8.74933 45.4288V35.3598L8.75999 35.3545L8.76799 35.3492L8.77332 35.3465L8.76532 35.3438L8.74933 35.3332V25.2563L8.75466 25.2536L8.75999 25.2509L8.76799 25.2456L17.488 20.2098L17.4933 20.2071L17.4987 20.2098V20.1991L26.2373 15.1527L34.9893 10.1035L43.7387 5.05176Z" fill="black"/>
<path d="M69.9999 50.4453L61.2506 55.4971L52.5013 60.5489L43.7493 65.6007V55.4971L52.5013 50.4453L61.2506 45.3936L69.9999 50.4453Z" fill="black"/>
<path d="M43.7493 55.4969L43.7386 55.5049L43.7493 55.5103V65.6005L52.5013 60.5487L61.2506 55.4969L69.9999 50.4451V60.5487L61.2506 65.6005L52.5013 70.6496L43.7493 75.7014V75.7148L34.9999 80.7666V70.6656L35.0133 70.6576L34.9999 70.6496V60.5621L35.0106 60.5567L34.9999 60.5487V40.3549L43.7493 35.3031L52.5013 30.254L61.2506 25.2022L69.9999 20.1504V30.254L61.2506 35.3031L52.5013 40.3549L43.7493 45.4067V55.4969Z" fill="black"/>
</svg>
