<svg width="46" height="31" viewBox="0 0 46 31" fill="none" xmlns="http://www.w3.org/2000/svg">
<path d="M32.3785 29.4876L32.3787 29.4876C39.1955 28.554 44.6236 22.3993 44.7253 15.5169C44.8484 7.13264 38.3293 0.512479 29.9151 0.503901L32.3785 29.4876ZM32.3785 29.4876C31.3943 29.623 30.3948 29.6979 29.4058 29.7001M32.3785 29.4876L0.5 29.7089M0.5 29.7089H1.42131C3.57384 29.7089 5.72631 29.7092 7.87873 29.7096C15.0547 29.7107 22.2302 29.7119 29.4058 29.7001M0.5 29.7089V0.503901H0.500965H0.503239H0.505514H0.507788H0.510062H0.512335H0.514609H0.516882H0.519155H0.521428H0.523701H0.525974H0.528247H0.530519H0.532791H0.535063H0.537335H0.539607H0.541878H0.54415H0.546421H0.548692H0.550963H0.553234H0.555504H0.557775H0.560045H0.562315H0.564585H0.566855H0.569125H0.571394H0.573663H0.575933H0.578202H0.58047H0.582739H0.585008H0.587276H0.589544H0.591813H0.594081H0.596348H0.598616H0.600884H0.603151H0.605418H0.607685H0.609952H0.612219H0.614486H0.616752H0.619018H0.621285H0.623551H0.625817H0.628083H0.630348H0.632614H0.634879H0.637144H0.639409H0.641674H0.643939H0.646204H0.648468H0.650733H0.652997H0.655261H0.657525H0.659789H0.662053H0.664317H0.66658H0.668844H0.671107H0.67337H0.675633H0.677896H0.680158H0.682421H0.684684H0.686946H0.689208H0.69147H0.693732H0.695994H0.698256H0.700517H0.702779H0.70504H0.707301H0.709563H0.711824H0.714085H0.716345H0.718606H0.720866H0.723127H0.725387H0.727647H0.729907H0.732167H0.734427H0.736687H0.738947H0.741206H0.743466H0.745725H0.747984H0.750243H0.752502H0.754761H0.75702H0.759278H0.761537H0.763795H0.766054H0.768312H0.77057H0.772828H0.775086H0.777344H0.779602H0.781859H0.784117H0.786374H0.788631H0.790889H0.793146H0.795403H0.79766H0.799917H0.802173H0.80443H0.806687H0.808943H0.811199H0.813456H0.815712H0.817968H0.820224H0.82248H0.824736H0.826991H0.829247H0.831502H0.833758H0.836013H0.838269H0.840524H0.842779H0.845034H0.847289H0.849544H0.851799H0.854053H0.856308H0.858563H0.860817H0.863071H0.865326H0.86758H0.869834H0.872088H0.874342H0.876596H0.87885H0.881104H0.883357H0.885611H0.887865H0.890118H0.892371H0.894625H0.896878H0.899131H0.901384H0.903637H0.90589H0.908143H0.910396H0.912649H0.914902H0.917154H0.919407H0.921659H0.923912H0.926164H0.928417H0.930669H0.932921H0.935173H0.937425H0.939677H0.941929H0.944181H0.946433H0.948685H0.950937H0.953188H0.95544H0.957692H0.959943H0.962195H0.964446H0.966698H0.968949H0.9712H0.973451H0.975702H0.977954H0.980205H0.982456H0.984707H0.986958H0.989208H0.991459H0.99371H0.995961H0.998212H1.00046H1.00271H1.00496H1.00721H1.00946H1.01171H1.01397H1.01622H1.01847H1.02072H1.02297H1.02522H1.02747H1.02972H1.03197H1.03422H1.03647H1.03872H1.04097H1.04322H1.04547H1.04772H1.04997H1.05222H1.05447H1.05672H1.05897H1.06122H1.06347H1.06571H1.06796H1.07021H1.07246H1.07471H1.07696H1.07921H1.08146H1.08371H1.08596H1.08821H1.09046H1.09271H1.09496H1.09721H1.09946H1.10171H1.10396H1.1062H1.10845H1.1107H1.11295H1.1152H1.11745H1.1197H1.12195H1.1242H1.12645H1.1287H1.13095H1.13319H1.13544H1.13769H1.13994H1.14219H1.14444H1.14669H1.14894H1.15119H1.15344H1.15569H1.15793H1.16018H1.16243H1.16468C4.35913 0.503901 7.55371 0.50317 10.7483 0.502439C17.1374 0.500977 23.5266 0.499514 29.9149 0.503901L0.5 29.7089ZM29.4058 29.7001L29.4066 30.2001L29.4055 29.7001C29.4056 29.7001 29.4057 29.7001 29.4058 29.7001ZM15.051 29.1824V29.7029L15.5712 29.682C21.1191 29.4584 25.3333 27.0696 28.1293 22.3939L28.1293 22.3938C31.0746 17.4676 30.6934 11.024 27.274 6.51021L27.274 6.51019C24.3562 2.65916 20.4691 0.665415 15.5619 0.559032L15.051 0.547958V1.05891V29.1824Z" fill="black" stroke="black"/>
</svg>
