<svg width="47" height="41" viewBox="0 0 47 41" fill="none" xmlns="http://www.w3.org/2000/svg">
<path d="M20.8467 26.4368C20.7453 26.3745 20.6427 26.3117 20.5394 26.2485C20.3146 26.1111 20.0867 25.9718 19.8622 25.8308L19.8618 25.8306C19.7709 25.7734 19.6718 25.7134 19.568 25.6507C19.3473 25.517 19.1056 25.3708 18.8783 25.2122L18.4446 24.9096L18.771 24.4936C18.8693 24.3683 18.9665 24.244 19.0625 24.1212C19.171 23.9826 19.2779 23.8459 19.3834 23.7116C19.5383 23.5141 19.6937 23.3172 19.8487 23.1208C19.8963 23.0604 19.9439 23.0001 19.9915 22.9398L20.295 22.5546L20.5988 22.169C20.7144 22.0223 20.8129 21.8972 20.9114 21.7721C21.0098 21.6471 21.1083 21.522 21.2241 21.3751C21.2242 21.375 21.2243 21.3748 21.2244 21.3747L21.2277 21.3705C21.4286 21.1151 21.6297 20.8594 21.8314 20.6036C21.898 20.5192 21.9635 20.4368 22.0282 20.3555C22.1661 20.1822 22.3003 20.0136 22.4332 19.8393C22.5145 19.7325 22.5876 19.6429 22.6549 19.5606C22.6304 19.5509 22.605 19.5407 22.5784 19.5298L22.5779 19.5296C21.5476 19.1062 20.5173 18.684 19.4868 18.2617C18.8115 17.9849 18.1361 17.7081 17.4605 17.431C17.3908 17.4024 17.3096 17.3603 17.2498 17.3293C17.2306 17.3193 17.2136 17.3105 17.1999 17.3036L16.7687 17.0878L16.9687 16.649C17.7428 14.9513 18.5147 13.2627 19.2849 11.5778C20.0558 9.89144 20.825 8.20875 21.593 6.52414C20.7801 5.38304 19.8523 4.35853 18.7851 3.47173L18.7851 3.47169C16.6501 1.69715 14.2083 0.724537 11.4656 0.527677L20.8467 26.4368ZM20.8467 26.4368C21.1648 26.6328 21.4834 26.829 21.8026 27.0248C22.1293 27.2257 22.4562 27.4266 22.7836 27.6276C22.959 27.7357 23.1353 27.8442 23.3143 27.9542C22.9578 28.4441 22.6008 28.9334 22.2436 29.4231C22.1038 29.6146 21.9641 29.8062 21.8243 29.9979C21.7941 30.039 21.7764 30.0644 21.7619 30.0852C21.7455 30.1088 21.7333 30.1265 21.7115 30.1544C21.5531 30.3571 21.5454 30.5761 21.5666 30.7284L21.5669 30.7303C21.6319 31.1842 21.6964 31.638 21.7603 32.0918C21.8488 32.7235 21.9373 33.3556 22.0252 33.9876L22.1545 34.9209L22.2839 35.8547L22.2839 35.8549C22.3746 36.5071 22.4658 37.1593 22.5576 37.8115C22.6018 38.1268 22.6463 38.4422 22.6908 38.7572L22.6912 38.7599C22.7359 39.0759 22.7805 39.3917 22.8247 39.7072C22.8279 39.7302 22.8312 39.7539 22.8345 39.778C22.0359 39.0867 21.2376 38.3949 20.4392 37.703L20.4267 37.6921L20.4267 37.6921C19.8287 37.1741 19.2306 36.6565 18.6327 36.139C17.184 34.8853 15.736 33.6321 14.2914 32.3745C12.8683 31.1351 11.4486 29.897 10.0464 28.6399C8.68307 27.4173 7.388 26.1256 6.18348 24.7451L5.80672 25.0738L6.18347 24.7451C4.76595 23.1205 3.51981 21.387 2.53648 19.4727M20.8467 26.4368L0.506755 11.3969C0.463782 12.6771 0.628259 13.9457 0.931104 15.2089L0.931258 15.2095C1.28542 16.6955 1.83633 18.1094 2.53648 19.4727M2.53648 19.4727L2.09173 19.7012M2.53648 19.4727L2.09173 19.7012M2.09173 19.7012C1.37603 18.3076 0.809662 16.8559 0.444882 15.3255L2.09173 19.7012ZM23.3028 40.8446L23.3465 40.7938L23.2691 40.6965L23.1992 40.6085C23.2381 40.5776 23.2593 40.5615 23.274 40.5504C23.2894 40.5386 23.2975 40.5324 23.3115 40.5203L23.3127 40.5193C23.3205 40.5125 23.3284 40.5056 23.3363 40.4988L22.9573 40.5456C23.0376 40.6151 23.118 40.6847 23.1983 40.7542C23.2332 40.7843 23.268 40.8145 23.3028 40.8446ZM23.3028 40.8446C23.3471 40.8826 23.3948 40.9167 23.4433 40.9514C23.4655 40.9674 23.488 40.9834 23.5103 41L23.3466 40.794L23.3028 40.8446ZM23.9014 40.2168L23.9029 40.2166C23.9039 40.2228 23.9045 40.2254 23.9045 40.2254C23.9045 40.2254 23.9039 40.2231 23.9025 40.2193C23.9023 40.2188 23.9021 40.2183 23.9018 40.2178L23.8472 40.2258L23.6571 40.3807L23.6568 40.3808L23.592 40.4336C23.6045 40.4444 23.6169 40.4552 23.6294 40.466L23.8768 40.0309C23.7886 40.1073 23.7004 40.1837 23.6122 40.26M23.9014 40.2168C23.9 40.2134 23.8981 40.2095 23.8958 40.2055C23.8928 40.2004 23.8898 40.1962 23.8874 40.1932L23.8486 40.2247M23.9014 40.2168L23.8486 40.2247M23.9014 40.2168L23.8486 40.2247M23.8486 40.2247L23.6122 40.26M23.6122 40.26L23.5082 40.2755C23.5082 40.2756 23.5082 40.2757 23.5082 40.2758L23.6116 40.2605C23.5768 40.2906 23.5421 40.3206 23.5074 40.3507L23.6122 40.26ZM23.6212 31.2734C23.6091 32.3688 23.5932 33.4645 23.5773 34.5601C23.5673 35.2517 23.5572 35.9432 23.5482 36.6346C23.5439 36.9535 23.5401 37.2725 23.5365 37.5914L46.8248 9.55511M23.6212 31.2734L24.1212 31.2789M23.6212 31.2734L24.1212 31.2789C24.1212 31.2789 24.1212 31.2789 24.1212 31.2789M23.6212 31.2734C23.6234 31.0821 23.6809 30.9333 23.7913 30.7828M24.1212 31.2789C24.1091 32.3749 24.0932 33.4724 24.0772 34.5689C24.0672 35.2603 24.0572 35.9513 24.0481 36.6412C24.0374 37.448 24.0292 38.2541 24.021 39.0611C24.0181 39.3452 24.0152 39.6294 24.0122 39.9137C24.832 39.204 25.6516 38.4941 26.4712 37.7839L26.4712 37.7839C27.0586 37.2751 27.646 36.7667 28.2333 36.2585C29.5582 35.1119 30.8826 33.9657 32.2039 32.8157C33.739 31.4795 35.2718 30.1448 36.7899 28.7936C37.9372 27.7721 39.037 26.6979 40.0807 25.568L40.0809 25.5679C41.2114 24.3447 42.2593 23.0638 43.1729 21.6794C44.2126 20.1031 45.0647 18.441 45.662 16.6529C46.1031 15.3317 46.3858 13.9815 46.4729 12.5983C46.5352 11.6056 46.4909 10.6173 46.3312 9.63533M24.1212 31.2789C24.122 31.2058 24.1373 31.1565 24.1944 31.0786M46.3312 9.63533L46.8248 9.55511M46.3312 9.63533C46.3312 9.63535 46.3312 9.63538 46.3312 9.6354L46.8248 9.55511M46.3312 9.63533C46.1318 8.40935 45.7808 7.24009 45.2479 6.13242M46.8248 9.55511C46.6184 8.28651 46.2541 7.07062 45.6984 5.91557M45.2479 6.13242L45.6984 5.91557M45.2479 6.13242C45.2479 6.1324 45.2479 6.13237 45.2478 6.13234L45.6984 5.91557M45.2479 6.13242C44.61 4.80714 43.7641 3.6589 42.6592 2.72597L42.6591 2.72589C40.9922 1.31777 39.0438 0.644628 36.8753 0.521084C36.1353 0.478947 35.3957 0.509663 34.6589 0.616668L34.6588 0.616686C33.8505 0.733861 33.0625 0.916308 32.2928 1.17542C30.3368 1.83392 28.6501 2.94517 27.1734 4.42528C26.007 5.59465 25.0429 6.92569 24.2491 8.39054L24.249 8.39062C23.2593 10.2162 22.2767 12.045 21.2935 13.8748C20.9488 14.5163 20.604 15.158 20.2588 15.7997C21.1685 16.1727 22.0782 16.5455 22.9879 16.9184L22.9893 16.9189L22.9963 16.9218C23.9696 17.3207 24.943 17.7196 25.9164 18.1188L25.9166 18.1189C25.9731 18.1421 26.0401 18.1739 26.0963 18.2006C26.1199 18.2118 26.1415 18.2221 26.1597 18.2305L26.7251 18.4907L26.3492 18.9867C26.3143 19.0327 26.2801 19.0782 26.2463 19.1231C26.1907 19.1971 26.1366 19.2691 26.0838 19.3376L26.0833 19.3383C26.017 19.4239 25.9489 19.5098 25.883 19.5929C25.8561 19.6267 25.8297 19.66 25.8039 19.6927L25.8036 19.693C25.7173 19.8021 25.6318 19.9103 25.5465 20.0189L25.4173 20.1829L25.2889 20.346L25.1597 20.51L25.0315 20.6728L45.6984 5.91557M24.1944 31.0786C24.1943 31.0788 24.1942 31.0789 24.1941 31.0791L23.7913 30.7828M24.1944 31.0786C24.1945 31.0786 24.1945 31.0785 24.1945 31.0785L23.7913 30.7828M24.1944 31.0786L25.996 27.7641C25.8911 27.9081 25.7862 28.0521 25.6814 28.1961C25.0529 29.0592 24.4243 29.9226 23.7913 30.7828M8.23188 0.790232C9.29857 0.535948 10.3785 0.449803 11.4656 0.527672L0.506758 11.3968C0.590452 8.91506 1.242 6.63368 2.64041 4.61375L2.64042 4.61374C4.02584 2.61248 5.88997 1.34855 8.23188 0.790232Z" fill="#C6A465" stroke="#C6A465"/>
</svg>
