<svg width="40" height="45" viewBox="0 0 40 45" fill="none" xmlns="http://www.w3.org/2000/svg">
<g clip-path="url(#clip0_952_154)">
<path d="M30.0009 22.4848L35.0005 19.6701L40.0001 16.857V11.2277L35.0005 8.41309L30.0009 11.2277L24.9997 14.0424L20.0001 16.857L15.0005 19.6701V30.9168L15.0112 30.9227L15.0005 30.9287V36.5461L15.0066 36.5505H15.0112L15.0005 36.558V42.1857L20.0001 45.0004L24.9997 42.1857V42.1783L30.0009 39.3637L35.0005 36.5505L40.0001 33.7359V28.1066L35.0005 25.292L30.0009 28.1066L24.9997 30.9213V30.9287L24.9936 30.9257L24.9997 30.9213V25.2994L30.0009 22.4848ZM20.0001 33.7433H19.9955L20.0001 33.7389V33.7359M20.0001 39.3726H19.9971L20.0001 39.3681V39.3637L20.0077 39.3681L20.0001 39.3726Z" fill="#C6A465"/>
<path d="M19.9939 0L14.9928 2.81464L9.99315 5.62927L5.00267 8.43648L4.99962 8.43945V8.44539H4.99657L0 11.2571V33.7622L4.98591 36.568V36.5605L4.99962 36.568V36.5754L9.99924 33.7622V16.8834L9.99315 16.8863V16.8715L9.99924 16.8744V16.8819L14.9928 14.0717L19.9939 11.2571L24.9935 8.44242V2.81464L19.9939 0ZM4.99962 14.0687V14.0598L5.01028 14.0657L5.00571 14.0687H5.00267L4.99962 14.0717H4.99657L4.99962 14.0687ZM4.99962 30.9506L4.99353 30.9461L4.98591 30.9506V30.9357L4.99962 30.9432V30.9402L5.00571 30.9432H5.00876L4.99962 30.9506ZM5.01028 25.3198L5.00571 25.3228L4.99962 25.3258L4.99353 25.3228L4.98591 25.3258V25.3109L4.99962 25.3183V25.3109L5.01028 25.3169H5.01333L5.01028 25.3198ZM5.01028 19.695L5.00571 19.698L4.99962 19.701L4.99353 19.698L4.98591 19.701V19.6861L4.99962 19.6935V19.6861L5.00876 19.692H5.01333L5.01028 19.695ZM9.99924 11.26H9.99619H9.99315V11.2467L9.99924 11.2496V11.26Z" fill="#C6A465"/>
</g>
<defs>
<clipPath id="clip0_952_154">
<rect width="40" height="45" fill="white"/>
</clipPath>
</defs>
</svg>
