<svg width="43" height="42" viewBox="0 0 43 42" fill="none" xmlns="http://www.w3.org/2000/svg">
<g clip-path="url(#clip0_359_806)">
<path d="M7.61458 0H35.3854C39.5958 0 43 3.41026 43 7.62821V34.3718C43 38.5897 39.5958 42 35.3854 42H7.61458C3.40417 42 0 38.5897 0 34.3718V7.62821C0 3.41026 3.40417 0 7.61458 0Z" fill="#330000"/>
<path d="M20.7832 25.1283H14.1182L12.7565 29.3462C12.7207 29.5077 12.5773 29.6154 12.4161 29.5975H9.04777C8.85068 29.5975 8.79693 29.4898 8.85068 29.2744L14.6198 12.6359C14.6736 12.4565 14.7273 12.259 14.799 12.0436C14.8707 11.6667 14.9065 11.2718 14.9065 10.877C14.8886 10.7872 14.9603 10.6975 15.0498 10.6795H19.6903C19.8336 10.6795 19.9053 10.7334 19.9232 10.8231L26.4628 29.3103C26.5165 29.5077 26.4628 29.5975 26.2836 29.5975H22.539C22.4136 29.6154 22.2882 29.5257 22.2523 29.4L20.7832 25.1283ZM15.1573 21.4847H19.7082C19.6007 21.1077 19.4573 20.659 19.2961 20.1924C19.1348 19.7077 18.9736 19.1872 18.8123 18.6488C18.6332 18.0924 18.4719 17.5539 18.2928 16.9975C18.1136 16.4411 17.9523 15.9206 17.809 15.4C17.6657 14.8975 17.5403 14.4308 17.4148 14H17.379C17.2178 14.7718 17.0207 15.5436 16.7698 16.3154C16.5011 17.177 16.2323 18.0744 15.9457 18.9718C15.6948 19.8872 15.4261 20.7308 15.1573 21.4847ZM30.4582 13.8206C29.8669 13.8385 29.2936 13.6052 28.8636 13.1924C28.4515 12.7436 28.2365 12.1513 28.2544 11.5411C28.2365 10.9308 28.4694 10.3565 28.8994 9.94363C29.3294 9.53081 29.9028 9.31543 30.494 9.31543C31.1928 9.31543 31.7303 9.53081 32.1244 9.94363C32.5186 10.3744 32.7336 10.9488 32.7157 11.5411C32.7336 12.1513 32.5186 12.7436 32.0886 13.1924C31.6765 13.6231 31.0673 13.8565 30.4582 13.8206ZM28.4515 29.4V15.5795C28.4515 15.4 28.5232 15.3283 28.6844 15.3283H32.2319C32.3932 15.3283 32.4648 15.418 32.4648 15.5795V29.4C32.4648 29.5975 32.3932 29.6872 32.2319 29.6872H28.7203C28.5411 29.6872 28.4515 29.5795 28.4515 29.4Z" fill="#FF9A00"/>
</g>
<defs>
<clipPath id="clip0_359_806">
<rect width="43" height="42" fill="white"/>
</clipPath>
</defs>
</svg>
