<svg width="125" height="87" viewBox="0 0 125 87" fill="none" xmlns="http://www.w3.org/2000/svg">
<path d="M68.5236 86.9158C68.9997 86.5193 69.4981 86.1563 69.9406 85.7319C72.8417 82.9678 73.861 79.595 72.8305 75.7476C71.8616 72.1068 69.4085 69.7615 65.7905 68.7005C64.844 68.4213 63.8135 68.3208 62.8222 68.3152C56.9696 68.2817 51.1113 68.2929 45.2531 68.3152C44.7042 68.3152 44.5698 68.1253 44.5922 67.6228C44.6258 66.7852 44.6258 65.9476 44.5922 65.1044C44.5698 64.5627 44.7546 64.3673 45.3091 64.3728C47.4541 64.3952 49.6048 64.384 51.7498 64.384H57.6472C58.7786 64.384 59.4786 63.7028 59.5066 62.5692V62.4519C59.5402 61.9214 59.3834 61.1899 59.6635 60.9163C59.9603 60.6371 60.6828 60.7879 61.2204 60.7879C64.0263 60.7767 66.8378 60.7823 69.6437 60.7823C70.9767 60.7823 71.7552 60.0061 71.8 58.6771C71.8112 58.3923 71.8784 58.0796 72.0072 57.8227C74.0514 53.8245 76.1124 49.8263 78.1791 45.8393C78.5095 45.1971 78.8119 44.594 78.3639 43.8737C78.2911 43.7564 78.3695 43.4884 78.4535 43.3264C80.9738 38.6302 83.5052 33.934 86.0535 29.2434C86.1711 29.0312 86.4344 28.8413 86.6752 28.752C88.5738 28.0484 89.5931 26.6133 89.5987 24.5974C89.6043 23.1511 89.5931 23.1176 90.9821 22.8105C95.6642 21.7719 100.352 20.7612 105.04 19.7449C107.694 19.1697 110.355 18.6001 113.009 18.025C113.082 18.0138 113.16 18.0082 113.328 17.9915C113.384 18.8179 113.446 19.622 113.491 20.4317C113.687 24.1004 113.889 27.7692 114.073 31.4379C114.219 34.2746 114.32 37.1058 114.465 39.9425C114.645 43.2929 114.852 46.6378 115.042 49.9882C115.081 50.703 115.087 51.4234 115.137 52.1437C115.16 52.4899 115.014 52.6407 114.695 52.7356C112.438 53.4169 110.181 54.1093 107.924 54.7906C106.221 55.3099 104.513 55.8013 102.822 56.3485C102.424 56.477 102.2 56.3932 101.954 56.0916C100.85 54.7738 99.7302 53.4671 98.6157 52.1605C97.8708 51.2838 96.7563 51.1888 96.0674 52.0041C95.8322 52.2833 95.6586 52.73 95.6754 53.0874C95.7706 55.0028 95.9218 56.9125 96.0786 58.8223C96.0898 59.001 96.2018 59.2076 96.3306 59.3416C98.9125 61.9493 101.618 64.4175 104.793 66.3105C106.681 67.4385 108.686 68.3096 110.915 68.4269C113.872 68.5777 116.23 67.3268 118.156 65.1769C120.156 62.9433 121.382 60.2853 122.429 57.5323C122.547 57.2196 122.497 56.8176 122.441 56.4714C122.166 54.6956 121.864 52.9311 121.578 51.1553C121.545 50.9208 121.522 50.6807 121.522 50.4461C121.522 40.9644 121.522 31.4882 121.511 22.012C121.511 21.4983 121.64 21.1018 121.993 20.7221C122.872 19.7616 123.729 18.7788 124.541 17.7681C124.782 17.4666 124.961 17.031 124.967 16.6513C124.995 13.5521 124.983 10.4529 124.983 7.35378C124.983 7.25327 125.011 7.14159 124.972 7.05783C124.496 6.0136 124.883 4.99171 124.983 3.94749C125.157 2.18292 124.132 0.742228 122.457 0.178236C120.951 -0.335499 119.187 0.30667 118.223 1.67477C118.05 1.92047 117.736 2.14942 117.445 2.21084C114.381 2.90327 111.312 3.55102 108.249 4.22111C105.824 4.74602 103.404 5.2765 100.985 5.82374C100.509 5.92984 100.128 5.97451 99.663 5.63947C99.3438 5.41052 98.7669 5.37702 98.3525 5.46078C94.0904 6.3654 89.8395 7.30911 85.5831 8.24165C84.4518 8.49293 83.3148 8.73305 82.1835 8.97875C80.8674 9.26354 79.9209 10.0286 79.2656 11.1845C79.0976 11.4748 78.896 11.7596 78.6551 11.983C77.8262 12.7536 77.4958 13.7252 77.4006 14.8141C77.2774 16.2325 77.2662 16.199 75.838 16.3386C74.8467 16.4335 73.833 16.534 72.8921 16.8356C71.1951 17.3716 70.1422 18.628 69.5765 20.2921C67.6387 26.0214 65.7065 31.7451 63.7743 37.4687C62.5646 41.0425 61.3604 44.6164 60.1563 48.1902C59.9155 48.9105 59.333 49.2176 58.6497 48.9273C58.5265 48.8714 58.4369 48.6146 58.4313 48.447C58.4145 47.3693 58.3641 46.286 58.4369 45.2083C58.5153 43.9965 58.2017 42.8853 57.8209 41.7685C56.0007 36.4245 54.1973 31.075 52.3883 25.731C51.9402 24.4076 51.4978 23.0841 51.0161 21.7775C50.3048 19.8398 48.2774 18.3712 46.1996 18.3656C39.2828 18.3433 32.3605 18.3488 25.4437 18.36C23.9428 18.36 22.7666 19.6108 22.761 21.1688C22.7498 24.3908 22.7386 27.6072 22.7722 30.8293C22.7778 31.4323 22.621 31.611 22.005 31.5999C19.9607 31.5608 17.9109 31.5775 15.8667 31.5831C14.6346 31.5887 13.6208 32.0019 13.0944 33.1969C12.9544 33.5152 12.8928 33.8893 12.8872 34.2356C12.8704 36.1732 12.8592 38.1165 12.8872 40.0542C12.8984 40.6182 12.6911 40.7857 12.1591 40.7745C11.2182 40.7522 10.2717 40.7019 9.38118 41.1207C7.50498 42.003 6.56408 43.4772 6.56408 45.5433C6.55848 48.4973 6.56408 51.4569 6.55848 54.4164C6.55288 55.4774 6.53047 56.5384 6.54168 57.5994C6.54168 57.9232 6.45207 58.0908 6.12163 58.2024C5.27594 58.4984 4.9399 59.0177 4.9287 59.9279C4.9175 60.7879 4.9175 61.6478 4.9175 62.5078C4.9175 63.7307 5.55597 64.3784 6.8049 64.384C11.1006 64.3896 15.3906 64.384 19.6807 64.384C20.5936 64.384 20.5936 64.3896 20.5936 65.3054V68.2705C20.3304 68.2873 20.1344 68.3152 19.9383 68.3152C16.6676 68.3096 13.4024 68.2594 10.1317 68.304C5.25354 68.371 1.45632 71.5707 0.3362 75.7979C-0.761519 79.9301 0.918663 84.2131 4.17822 86.5026C4.35184 86.6254 4.51986 86.7594 4.83909 86.9995L68.5236 86.9158ZM85.6055 14.211C86.5856 14.0268 87.5601 13.8146 88.5346 13.5968C92.1694 12.8094 95.7986 12.0165 99.4278 11.2124C99.999 11.0839 100.531 10.9053 100.845 10.3189C100.968 10.0956 101.248 9.8722 101.489 9.81636C105.684 8.88382 109.879 7.97361 114.079 7.05783C115.109 6.83446 116.14 6.62227 117.26 6.38215C117.227 6.6111 117.232 6.71161 117.199 6.80096C116.599 8.39242 116.011 9.9783 115.384 11.5586C115.328 11.7094 115.076 11.8546 114.897 11.8825C114.085 11.9942 113.267 12.0556 112.455 12.1505C109.078 12.5414 105.7 12.9434 102.323 13.3288C99.719 13.6247 97.1147 13.8983 94.5104 14.1943C91.6093 14.5237 88.7138 14.8588 85.8127 15.205C85.4207 15.2497 85.3366 15.0486 85.2638 14.7471C85.1854 14.4288 85.247 14.278 85.6055 14.211ZM64.8944 51.2112C65.068 50.4461 65.1128 49.6309 65.4265 48.9273C67.5211 44.2701 69.6773 39.6354 71.8112 34.995C73.0993 32.2029 74.3763 29.4109 75.6812 26.63C75.7988 26.3732 76.0732 26.0828 76.3253 26.0158C77.7366 25.6584 79.1704 25.3736 80.5929 25.0497C80.9514 24.9716 81.125 25.0721 81.2538 25.435C81.489 26.066 81.7523 26.6915 82.0939 27.2722C82.2787 27.5793 82.2899 27.7692 82.1219 28.0707C81.461 29.2546 80.8282 30.4551 80.1841 31.6501C78.4479 34.8721 76.7173 38.0886 74.9755 41.2994C74.8579 41.5172 74.6731 41.8299 74.4939 41.8467C73.6426 41.936 73.2841 42.5112 72.9425 43.1757C71.4023 46.1799 69.8174 49.1562 68.322 52.1828C67.9748 52.8864 67.5547 53.0539 66.8434 53.0372C65.0512 52.9981 65.0456 53.026 65.0456 51.2447C64.9952 51.2335 64.9448 51.2223 64.8944 51.2112ZM33.6766 23.6481C33.671 28.8022 33.6766 33.9563 33.671 39.1105C33.671 39.8085 33.475 39.976 32.7525 39.9816C31.3692 39.9872 29.9858 39.9927 28.6025 39.9872C27.7344 39.9816 27.6224 39.8755 27.6224 39.0211V31.4714C27.6224 28.8748 27.6224 26.2727 27.6224 23.6761C27.6168 23.1344 27.8296 22.8552 28.3953 22.8496C29.8738 22.844 31.358 22.8273 32.8421 22.8105C33.419 22.8049 33.6766 23.0674 33.6766 23.6481ZM51.3017 44.1585C48.4566 44.1585 45.6059 44.1696 42.7608 44.1417C42.4416 44.1417 42.0551 43.9798 41.8199 43.7676C40.711 42.7569 39.6301 41.7126 38.5772 40.6461C38.3699 40.4339 38.2355 40.0597 38.2299 39.7582C38.2075 37.1616 38.2187 34.565 38.2187 31.9628C38.2187 29.3607 38.2187 26.7696 38.2243 24.173C38.2243 23.1679 38.538 22.8552 39.5573 22.8552C41.3999 22.8496 43.2481 22.8496 45.0907 22.8496C45.9812 22.8496 46.1772 22.978 46.4684 23.7989C47.0621 25.4741 47.6389 27.1549 48.2214 28.8302C49.7504 33.2248 51.2849 37.6139 52.8139 42.0086C53.2844 43.3711 52.7355 44.1585 51.3017 44.1585Z" fill="#C6A465"/>
</svg>
