<svg width="84" height="87" viewBox="0 0 84 87" fill="none" xmlns="http://www.w3.org/2000/svg">
<path d="M42.0193 46.4995C33.665 46.4995 25.3298 46.4995 16.9755 46.4995C14.6918 46.4995 14.6728 46.4995 14.6728 48.8575C14.6728 53.5735 14.6348 58.3087 14.6728 63.0248C14.6918 64.5201 14.1971 65.0186 12.7127 64.9802C9.05889 64.8844 5.40508 64.9227 1.73224 64.9802C0.514308 64.9802 -0.0185388 64.6735 0.000491481 63.3315C0.0575822 56.1616 0.000491481 49.0108 0.0575822 41.8409C0.0575822 41.1508 0.419157 40.3073 0.894913 39.828C9.40143 31.4503 17.946 23.111 26.4906 14.7524C31.153 10.2089 35.8344 5.66544 40.4778 1.10276C41.9432 -0.335054 41.9432 -0.373395 43.3704 1.02608C51.915 9.36542 60.4596 17.7239 68.9851 26.0824C73.6475 30.6451 78.329 35.1695 82.9343 39.7705C83.4862 40.3073 83.9048 41.2658 83.9239 42.0326C84 49.0875 83.9239 56.1616 84 63.2165C84 64.5968 83.5242 65.0186 82.1921 64.9994C78.4812 64.9227 74.7703 64.9227 71.0594 64.9994C69.7273 65.0186 69.2516 64.5968 69.2706 63.2165C69.3277 58.3854 69.2896 53.5544 69.2896 48.7233C69.2896 46.5186 69.2896 46.4995 67.025 46.4995C58.6707 46.4995 50.3355 46.4995 41.9812 46.4995H42.0193Z" fill="#C6A465"/>
<path d="M41.9418 86.9611C36.5653 86.9611 31.1888 86.9229 25.8122 86.9802C24.4681 86.9802 23.9811 86.6937 24.0006 85.2803C24.059 76.0743 24.059 66.8683 24.0006 57.6623C24.0006 56.3636 24.4096 55.9816 25.7148 56.0007C36.5263 56.0389 47.3379 56.0389 58.1494 56.0007C59.4935 56.0007 60 56.3254 60 57.7387C59.9416 66.9447 59.9416 76.1507 60 85.3567C60 86.6746 59.5325 87.0184 58.2468 86.9993C52.8118 86.942 47.3768 86.9802 41.9613 86.9802L41.9418 86.9611Z" fill="#C6A465"/>
</svg>
