<svg width="81" height="87" viewBox="0 0 81 87" fill="none" xmlns="http://www.w3.org/2000/svg">
<g clip-path="url(#clip0_952_238)">
<path d="M28.5004 42.7529C31.5888 44.0512 34.167 46.1524 37.0421 47.4169C38.9805 47.2819 40.0734 46.3663 40.8237 44.7678C42.3812 41.4508 44.1711 38.2539 46.8787 35.5598C46.5131 34.6968 46.178 33.9088 45.8048 33.027C46.3189 32.269 46.7949 31.5223 47.3166 30.8094C49.7767 27.4474 52.2482 24.0929 54.7121 20.7346C60.0207 13.5002 66.2356 7.08385 72.9837 1.15527C74.6251 -0.285596 75.4248 -0.353137 77.2451 0.810065C77.9115 1.23407 78.5399 1.74438 79.1111 2.29221C81.4569 4.56233 81.5483 5.47038 79.8042 8.16075C74.8231 15.8454 69.0385 22.8846 62.4084 29.2522C59.8265 31.7325 57.3131 34.284 54.7692 36.8018C54.3465 37.222 53.9124 37.631 53.5049 38.0663C52.7852 38.8393 51.9512 38.8768 51.0486 38.4565C50.5155 38.2089 49.9976 37.9312 49.4111 37.6348C47.9678 38.5053 47.0653 39.8299 46.2199 41.1394C44.8756 43.2182 43.695 45.3945 42.4269 47.522C41.9509 48.3212 41.711 49.143 42.0423 50.3024C43.3066 51.4281 45.085 52.1523 46.6388 53.1992C47.6098 53.8558 47.8002 54.8277 47.1871 55.7545C47.0805 55.9196 46.9472 56.0697 46.8101 56.2122C46.5359 56.5012 46.2579 56.7863 45.9723 57.0603C39.6507 63.1127 33.2035 69.045 27.0419 75.2512C21.341 80.9959 14.372 84.0841 6.59574 85.7651C4.55074 86.2078 2.48671 86.5681 0.24369 86.9996C0.152294 86.3429 -0.0533477 85.7838 0.0151995 85.2585C1.1348 76.8347 3.35878 68.8386 9.04059 62.1183C14.6348 55.5031 20.865 49.5107 27.2703 43.6797C27.6321 43.3532 28.051 43.0906 28.5042 42.7529H28.5004Z" fill="#C6A465"/>
</g>
<defs>
<clipPath id="clip0_952_238">
<rect width="81" height="87" fill="white"/>
</clipPath>
</defs>
</svg>
