<svg width="70" height="87" viewBox="0 0 70 87" fill="none" xmlns="http://www.w3.org/2000/svg">
<path d="M0 86.917C0.0732419 86.6641 0.227435 86.5261 0.35079 86.3729C1.14103 85.3919 1.93898 84.411 2.73308 83.4339C3.60813 82.3571 4.48318 81.2766 5.36208 80.1998C7.32034 77.7896 9.28245 75.3794 11.2446 72.9654C12.8019 71.0495 14.3516 69.1297 15.9051 67.2138C17.7245 64.9722 19.5517 62.7344 21.3712 60.489C22.0381 59.6652 22.7089 58.8413 23.3642 58.0098C23.5222 57.8106 23.6726 57.596 23.7728 57.3661C24.432 55.818 23.2562 54.316 21.8608 54.2661C21.6411 54.2585 21.4213 54.2623 21.2016 54.2623C17.5858 54.2623 13.9738 54.2623 10.358 54.2623C10.1652 54.2623 9.9609 54.3045 9.77201 54.2163C9.75274 54.0056 9.89922 53.9021 9.99559 53.7795C10.6162 53.0131 11.2446 52.2506 11.869 51.4881C13.2606 49.7944 14.6561 48.1008 16.0515 46.4071C17.6552 44.4567 19.2549 42.5102 20.8547 40.5598C22.5701 38.4676 24.2855 36.3754 26.0009 34.2833C26.2553 33.9729 26.5251 33.6702 26.7603 33.3445C27.5274 32.2831 27.2306 31.0186 26.3709 30.2944C25.9778 29.9648 25.5113 29.8154 25.0063 29.7809C24.8252 29.7694 24.6401 29.7732 24.4551 29.7732C22.4197 29.7732 20.3805 29.7732 18.3452 29.7732C18.1486 29.7732 17.9443 29.8039 17.7747 29.7158C17.7053 29.5242 17.8171 29.4092 17.8864 29.2866C18.6844 27.911 19.4824 26.5392 20.2803 25.1636C22.1884 21.8797 24.0927 18.592 26.0009 15.3043C27.8088 12.1929 29.6167 9.08146 31.4246 5.97004C32.4693 4.16909 33.514 2.36814 34.5625 0.567188C34.6781 0.364102 34.7745 0.145689 34.9441 8.02869e-05C35.1368 -0.00375152 35.1831 0.130362 35.2448 0.233821C35.53 0.72046 35.8114 1.21476 36.0967 1.7014C38.4289 5.71331 40.7572 9.72521 43.0894 13.7371C45.4485 17.795 47.8038 21.8567 50.1591 25.9146C50.7913 27.0028 51.4274 28.0911 52.0596 29.1831C52.1405 29.3211 52.2022 29.4705 52.2909 29.6506C52.1791 29.6966 52.102 29.7464 52.021 29.7541C51.8399 29.7694 51.6548 29.7656 51.4698 29.7656C49.4344 29.7656 47.3952 29.7656 45.3599 29.7656C45.1055 29.7656 44.8472 29.7847 44.5966 29.8307C43.1009 30.1028 42.1642 31.9574 43.2667 33.3866C43.7254 33.9806 44.2073 34.5515 44.6853 35.1339C45.9265 36.6437 47.1716 38.1534 48.4129 39.6631C50.0165 41.6097 51.6163 43.5601 53.2199 45.5105C54.1952 46.6983 55.1666 47.8862 56.1419 49.0702C57.4178 50.6259 58.6938 52.1778 59.9697 53.7335C60.0699 53.8561 60.1625 53.9903 60.2897 54.1627C60.1663 54.2048 60.0931 54.247 60.0121 54.2547C59.8464 54.2661 59.6806 54.2623 59.5187 54.2623C55.9607 54.2623 52.3988 54.2623 48.8408 54.2623C48.6403 54.2623 48.436 54.2623 48.2356 54.2623C47.349 54.2815 46.6859 54.6915 46.285 55.4655C45.8726 56.2625 45.9497 57.0595 46.4624 57.7952C46.7129 58.1554 47.002 58.4888 47.2757 58.8298C48.8986 60.83 50.5292 62.8302 52.1521 64.8304C53.9138 67.0031 55.6754 69.1757 57.4371 71.3483C59.2334 73.5631 61.0298 75.7779 62.8261 77.9927C64.7728 80.3914 66.7234 82.7863 68.6739 85.185C69.0671 85.6678 69.4526 86.1544 69.8419 86.6411C69.8959 86.7101 69.9306 86.7944 70 86.9055C69.8882 86.94 69.8073 86.9821 69.7263 86.986C69.5606 86.9974 69.3948 86.9936 69.2329 86.9936C46.4045 86.9936 23.58 86.9936 0.751693 86.9936C0.520403 86.9936 0.277548 87.0319 0.00385484 86.9208L0 86.917Z" fill="#C6A465"/>
</svg>
