<svg width="61" height="71" viewBox="0 0 61 71" fill="none" xmlns="http://www.w3.org/2000/svg">
<path d="M45.2752 21.4505C45.1699 21.5979 45.0581 21.7454 44.9594 21.8991C44.1987 23.1385 43.3792 24.3333 42.5042 25.4932C41.9805 26.1879 41.4437 26.8698 40.8905 27.5357C40.3916 28.1327 39.8796 28.717 39.3676 29.3013C38.366 30.4468 37.2826 31.519 36.2057 32.5911C35.7602 33.0351 35.2851 33.4438 34.8199 33.8686C34.5248 34.1386 34.2263 34.4054 33.9246 34.669C33.6422 34.9194 33.3631 35.173 33.0709 35.4138C32.3227 36.0306 31.5712 36.6507 30.8065 37.2451C29.9583 37.9055 29.1035 38.5531 28.2388 39.191C26.7569 40.2851 25.2388 41.3246 23.6911 42.3224C21.2391 43.9004 18.7144 45.3562 16.0973 46.6578C13.6993 47.8525 11.2481 48.9183 8.70685 49.7683C8.24188 49.924 7.76693 50.0572 7.29533 50.2001C7.1984 50.2274 7.10162 50.2677 6.99755 50.2368C6.90579 50.1474 6.89479 50.0341 6.87083 49.921C6.51654 48.3961 6.25605 46.8538 6.1056 45.2969C6.0028 44.2287 5.97122 43.153 5.97532 42.0801C5.9789 40.6733 6.096 39.2747 6.31041 37.8811C6.56987 36.1724 6.97229 34.4942 7.51126 32.8528C8.12231 30.9933 8.87988 29.1932 9.76446 27.4465C10.5254 25.9446 11.3386 24.4744 12.2398 23.058C12.9245 21.9753 13.6548 20.9244 14.4505 19.9179C15.2015 18.9639 15.9884 18.0451 16.8507 17.1933C18.9887 15.0785 21.43 13.4197 24.2373 12.3098C25.9411 11.6372 27.6886 11.1098 29.4729 10.6823C31.0956 10.296 32.732 9.97441 34.3717 9.65598C36.3219 9.28124 38.2753 8.90321 40.2082 8.42824C41.5755 8.09425 42.9259 7.70541 44.2527 7.23588C46.2962 6.50974 48.2467 5.59046 50.0679 4.41048C50.8466 3.90665 51.5924 3.3644 52.3118 2.77715C52.8063 2.36815 53.2911 1.95604 53.7462 1.50223C53.9289 1.31486 54.1312 1.14666 54.3301 0.968782C54.3686 0.929336 54.4234 0.905857 54.462 0.879373C54.6115 0.91613 54.6388 1.03891 54.6885 1.1322C54.924 1.61178 55.1628 2.09455 55.3855 2.5808C56.2592 4.46446 57.0103 6.40173 57.6549 8.37618C58.5245 11.0508 59.1969 13.7703 59.6464 16.5481C59.96 18.4884 60.1635 20.4368 60.2505 22.4063C60.3722 25.1531 60.241 27.8842 59.8374 30.6062C59.4186 33.4224 58.6942 36.1522 57.6415 38.7992C56.7055 41.1561 55.5249 43.3836 54.1063 45.488C53.5963 46.2473 53.0503 46.9779 52.4848 47.7024C51.2867 49.2397 49.9379 50.6366 48.5401 51.992C47.9501 52.5644 47.3143 53.0921 46.6981 53.6325C45.6133 54.5815 44.4595 55.444 43.2629 56.2521C40.8181 57.8947 38.2173 59.2123 35.4076 60.1082C33.6281 60.675 31.8076 61.0544 29.9494 61.2495C28.6869 61.3843 27.4167 61.4154 26.1522 61.3752C24.1354 61.3133 22.1518 61.0208 20.1922 60.5594C19.7827 60.4616 19.373 60.3508 18.9667 60.2431C16.3236 59.5322 13.7623 59.7536 11.2964 60.9591C10.3165 61.4398 9.43551 62.0683 8.64679 62.8316C7.37076 64.0686 6.47975 65.5334 5.92178 67.2139C5.66781 67.9728 5.44639 68.7441 5.26393 69.5214C5.22978 69.6548 5.20539 69.7913 5.16148 69.9216C4.92644 70.6348 4.21191 71.0794 3.49379 70.9178C2.9479 70.796 2.42072 70.6091 1.944 70.2983C0.82729 69.5687 0.267285 68.196 0.583207 66.8949C0.697883 66.4298 0.861279 65.9737 1.0313 65.5304C1.73324 63.6825 2.70907 61.9798 3.87083 60.3815C4.78354 59.1172 5.81409 57.9551 6.91666 56.8567C7.05123 56.7186 7.19229 56.5805 7.33013 56.4456C7.84607 55.9229 8.39157 55.4353 8.95353 54.9703C9.42875 54.5745 9.90406 54.1852 10.3858 53.7959C11.2981 53.0697 12.2532 52.3981 13.2182 51.7425C14.9872 50.5373 16.8157 49.4285 18.6442 48.3262C20.5243 47.1908 22.4011 46.0586 24.268 44.9039C25.784 43.9649 27.2538 42.9553 28.6807 41.8782C29.5035 41.2571 30.3065 40.6168 31.0866 39.9476C31.9116 39.2389 32.7136 38.5079 33.5091 37.7704C34.3109 37.0199 35.0767 36.2343 35.8294 35.4359C36.3066 34.9266 36.7543 34.3951 37.2119 33.8667C37.5063 33.5319 37.7974 33.1939 38.082 32.8495C38.4114 32.4526 38.7342 32.0557 39.044 31.6461C39.5932 30.9122 40.1359 30.1784 40.6655 29.4318C41.9225 27.657 43.0555 25.8062 44.0775 23.8857C44.4458 23.1998 44.7879 22.5012 45.1367 21.8091C45.1937 21.6981 45.2248 21.5744 45.2721 21.4603C45.2881 21.4439 45.3009 21.4307 45.3137 21.4111C45.3201 21.4045 45.3199 21.3916 45.3231 21.3818C45.3102 21.3885 45.2842 21.3888 45.2811 21.3986C45.2749 21.4181 45.2751 21.4376 45.2721 21.4603L45.2752 21.4505Z" fill="#C6A465"/>
</svg>
