<svg width="127" height="87" viewBox="0 0 127 87" fill="none" xmlns="http://www.w3.org/2000/svg">
<g clip-path="url(#clip0_952_227)">
<path d="M118.292 30.8532C115.717 29.8146 114.061 28.2872 112.589 25.9656C110.381 22.2999 107.683 18.8785 105.169 15.3961C103.943 13.6854 102.348 13.1355 100.202 13.1966C95.48 13.3799 90.8194 13.2577 85.6683 13.2577C85.6683 9.71419 85.5456 6.65941 85.6683 3.60463C85.7909 1.03862 84.7484 0 82.1115 0C56.0493 0 29.9256 0 3.80203 0C1.16514 0 0 0.977528 0 3.72683C0.061323 19.184 0.061323 34.6412 0 50.0983C0 52.4199 0.735877 53.764 3.31144 53.5808C3.986 53.5197 4.59923 53.6419 5.5804 53.764C5.5804 58.2851 5.64172 62.684 5.51907 67.0829C5.51907 69.4045 6.50024 70.382 8.83052 70.2598C10.8542 70.1987 12.8778 70.1376 14.9015 70.2598C15.944 70.3209 16.7412 70.2598 17.4157 69.7711C17.2318 70.5653 17.1705 71.4817 17.1705 72.3371C17.2318 80.4628 23.8547 86.9389 32.1946 86.9389C40.5345 86.9389 46.7895 80.585 46.8508 72.3982C46.8508 71.2374 46.7282 70.1376 46.4829 69.099C47.3414 69.9544 48.4452 70.2598 49.9783 70.2598C60.7098 70.1376 71.38 70.1376 82.0502 70.2598C83.7673 70.3209 84.9937 70.0154 86.0362 69.1601C85.8522 70.1376 85.7296 71.1152 85.7296 72.0927C85.6683 80.2795 92.1072 86.9389 100.447 86.9389C108.726 87 115.349 80.585 115.349 72.3371C115.349 71.1152 115.226 69.8933 114.919 68.7935C116.698 70.1987 118.721 70.5042 121.42 70.1987C122.033 70.1376 122.585 70.1987 123.198 70.1987C126.816 70.1987 127 70.0154 127 66.4719V43.7444C127 34.3968 127.061 34.2746 118.292 30.7921V30.8532ZM88.3052 20.7725C91.7393 20.7725 94.9281 20.7114 98.1782 20.7725C98.6688 20.8336 99.282 21.2001 99.5886 21.6278C102.287 25.2324 104.985 28.9593 108.051 33.1138H88.3052V20.7725Z" fill="#C6A465"/>
</g>
<defs>
<clipPath id="clip0_952_227">
<rect width="127" height="87" fill="white"/>
</clipPath>
</defs>
</svg>
