<svg width="39" height="44" viewBox="0 0 39 44" fill="none" xmlns="http://www.w3.org/2000/svg">
<path d="M38.1342 10.9779L33.3678 13.7299L28.6013 16.482L23.8335 19.2327L19.0671 21.9848V32.9887L19.0627 32.9916L19.0671 32.9931V38.4929L19.0642 38.4958L19.0671 38.4973V44L14.3007 41.2479V35.7452L14.3108 35.7394L14.3065 35.7379L14.3007 35.7336V30.241L14.3108 30.2352L14.3007 30.2294V19.2327L19.0671 16.482L23.8335 13.7299L28.6013 10.9779L33.3678 8.22577L38.1342 10.9779Z" fill="#2D2D2D"/>
<path d="M23.8277 2.75209L19.0613 5.50417L14.2934 8.25481L9.53282 11.004V10.9996L9.52701 10.9967V11.0098L4.77658 13.7532L4.76641 13.7474V13.7561L4.76351 13.7575L4.76641 13.759V19.2559L4.75334 19.2486V19.2632L4.7606 19.2603L4.76641 19.2632V24.7557L4.75334 24.7485V24.763L4.7606 24.7601L4.76641 24.763V30.2555L4.75334 30.2483V30.2628L4.7606 30.2584L4.76641 30.2628V35.7553L4.75334 35.7481V35.7553L0 33.012V11.0069L4.76351 8.25626L4.76641 8.25771V8.2519L4.76932 8.249L9.52701 5.50417L14.2934 2.75209L19.0613 0L23.8277 2.75209Z" fill="#2D2D2D"/>
<path d="M23.8277 2.75208V8.2548L19.0613 11.0069L14.2934 13.759L9.53283 16.5067V16.4994L9.52702 16.4965V16.5111L9.53283 16.5082V33.012L4.76642 35.7626V30.2628L4.77513 30.257L4.77223 30.2555L4.76642 30.2526V24.763L4.77223 24.7601L4.77658 24.7572L4.77949 24.7557L4.77658 24.7542L4.76642 24.7484V19.2631L4.77223 19.2602L4.77658 19.2573L4.77949 19.2559L4.77513 19.2544L4.76642 19.2486V13.759L4.76932 13.7575L4.77223 13.7561L4.77658 13.7532L9.52702 11.0098L9.52993 11.0083L9.53283 11.0098V11.004L14.2934 8.2548L19.0613 5.50416L23.8277 2.75208Z" fill="black"/>
<path d="M38.1342 27.4816L33.3678 30.2337L28.6014 32.9858L23.8335 35.7379V30.2337L28.6014 27.4816L33.3678 24.7296L38.1342 27.4816Z" fill="black"/>
<path d="M23.8335 30.2337L23.8277 30.2381L23.8335 30.241V35.7379L28.6014 32.9858L33.3678 30.2337L38.1342 27.4817V32.9858L33.3678 35.7379L28.6014 38.4885L23.8335 41.2406V41.2479L19.0671 44V38.4973L19.0743 38.4929L19.0671 38.4885V32.9931L19.0729 32.9902L19.0671 32.9858V21.9847L23.8335 19.2327L28.6014 16.482L33.3678 13.7299L38.1342 10.9778V16.482L33.3678 19.2327L28.6014 21.9847L23.8335 24.7368V30.2337Z" fill="black"/>
</svg>
