<svg width="40" height="40" viewBox="0 0 40 40" fill="none" xmlns="http://www.w3.org/2000/svg">
<mask id="mask0_359_813" style="mask-type:luminance" maskUnits="userSpaceOnUse" x="0" y="0" width="40" height="40">
<path d="M0 0H39.7929V39.7929H0V0Z" fill="white"/>
</mask>
<g mask="url(#mask0_359_813)">
<path d="M29.7236 0H10.0693C4.50823 0 0 4.50823 0 10.0693V29.7236C0 35.2846 4.50813 39.7929 10.0693 39.7929H29.7236C35.2846 39.7929 39.7929 35.2846 39.7929 29.7236V10.0693C39.7929 4.50823 35.2846 0 29.7236 0Z" fill="#00DDB3"/>
<path d="M30.2459 8.91358C23.3865 8.91358 20.8566 13.8039 18.8169 17.734L17.4753 20.2457C15.3125 24.4139 13.6985 26.9458 9.53847 26.9458C9.27997 26.9455 9.02393 26.9961 8.78503 27.0948C8.54612 27.1936 8.32904 27.3385 8.14622 27.5212C7.87076 27.7963 7.68316 28.147 7.60717 28.5288C7.53118 28.9107 7.57021 29.3064 7.71934 29.6661C7.81825 29.9049 7.9633 30.1218 8.14617 30.3045C8.32905 30.4872 8.54617 30.632 8.78509 30.7307C9.02397 30.8295 9.27998 30.8802 9.53847 30.8798C16.3979 30.8798 18.9278 25.9895 20.9675 22.0594L22.301 19.5477C24.4638 15.3795 26.0778 12.8476 30.2378 12.8476C30.6272 12.8481 31.0079 12.7331 31.3317 12.517C31.6556 12.3009 31.908 11.9935 32.057 11.6338C32.2061 11.2742 32.2451 10.8784 32.1691 10.4966C32.0931 10.1148 31.9055 9.7641 31.6301 9.48898C31.4472 9.30625 31.2302 9.16137 30.9913 9.06264C30.7524 8.9639 30.4963 8.91325 30.2378 8.91358H30.2459Z" fill="white"/>
</g>
</svg>
