<svg width="187" height="137" viewBox="0 0 187 137" fill="none" xmlns="http://www.w3.org/2000/svg">
<g clip-path="url(#clip0_698_237)">
<path d="M155.263 111.272C155.263 111.272 140.37 65.5137 135.85 51.6133C130.575 35.4059 125.291 19.1986 120.006 3.001C119.026 0 117.781 0 117.036 0C116.408 0 115.673 0.146629 114.82 0.420335C112.339 1.22191 109.859 2.03325 107.388 2.83482C102.299 4.49661 97.2208 6.14863 92.1225 7.77132C89.9361 8.46536 89.5537 9.48198 89.4655 10.4693C89.4165 11.1144 89.6322 12.0724 90.1126 13.3237C91.1518 15.9923 90.4655 18.221 88.0929 19.9513C75.6804 28.9934 63.2876 38.0648 50.885 47.1362C43.4533 52.581 36.0215 58.0161 28.5897 63.4511C27.5701 64.2038 26.3641 64.8099 25.1288 65.2204L22.011 66.2468C16.2361 68.1628 10.2652 70.1374 4.33356 71.936C2.03932 72.63 0.794159 73.3632 0 74.5264V76.4131C0.107849 76.6281 0.225502 76.892 0.323546 77.1853C3.11781 85.7582 14.6184 120.978 14.6184 120.978C15.6577 124.175 16.9127 124.175 17.6578 124.175C18.3049 124.175 19.099 124.028 20.0305 123.725C21.9325 123.109 23.8444 122.494 25.7563 121.887C30.1977 120.47 34.7861 119.004 39.2472 117.459C42.061 116.492 44.8063 116.022 47.6398 116.022C48.0319 116.022 48.4241 116.032 48.8163 116.052C49.7183 116.091 50.6889 116.11 51.8655 116.11C52.689 116.11 53.5224 116.101 54.3362 116.091C55.1598 116.081 55.9833 116.071 56.7971 116.071H59.1011L59.6502 118.31C62.5131 130.06 72.0626 136.101 80.2689 136.873C81.1513 136.951 82.0337 137 82.8867 137C86.9752 137 90.7597 136.013 94.1128 134.077C100.074 130.646 104.015 125.446 105.839 118.613L106.417 116.433H108.682C109.731 116.433 110.771 116.452 111.81 116.462C112.8 116.472 113.78 116.492 114.751 116.492C116.261 116.492 117.496 116.452 118.624 116.394C118.84 116.374 119.045 116.374 119.251 116.374C122.369 116.374 124.33 117.929 125.261 121.125C125.703 122.64 126.203 123.393 126.693 123.774C127.183 124.155 127.654 124.155 128.036 124.155C128.693 124.155 129.507 123.999 130.458 123.696L136.497 121.731C141.86 119.991 147.233 118.251 152.596 116.511C155.773 115.475 156.293 114.449 155.263 111.272ZM19.7461 117.635L17.9225 112.014C17.0303 109.277 16.1479 106.56 15.2655 103.842L13.5497 98.5638C11.7849 93.1287 9.96131 87.4982 8.09846 82.0045C7.89257 81.3789 7.33372 79.7269 8.1671 78.1335C8.90243 76.7063 10.2652 76.1589 11.2163 75.8656C14.1282 74.9957 16.9911 74.067 20.0305 73.0797C21.2364 72.6887 22.462 72.2879 23.7071 71.8969L26.5014 70.9976L39.6099 111.193L19.7461 117.635ZM98.8679 120.079C97.0443 126.237 90.2792 130.998 83.1318 131.135H82.7789C74.6412 131.145 68.1702 125.504 66.6113 120.05L65.5525 116.316H99.9856L98.8679 120.079ZM45.4926 110.265L38.5314 88.8374C36.7176 83.2362 34.8352 77.4395 32.9429 71.76C32.188 69.5117 32.7664 67.6642 34.6587 66.2859C48.6496 56.0806 62.6209 45.8459 76.5923 35.6112L89.1419 26.4323C89.3772 26.2563 89.6125 26.1097 89.9361 25.9239L90.289 25.7187L93.4657 23.7636L121.653 110.265H45.4926ZM130.242 117.586L96.0639 12.7078L114.957 6.56896L149.125 111.457L130.242 117.586Z" fill="#343434"/>
<path d="M144.792 27.1754C143.772 27.1656 142.9 26.6866 142.37 25.8557C141.802 24.9467 141.753 23.8323 142.253 22.7961C143.508 20.1666 144.89 17.5077 146.214 14.9368C146.743 13.9104 147.282 12.884 147.802 11.8576C148.233 11.0169 148.665 10.1665 149.096 9.31604C150.273 6.98953 151.498 4.5946 152.753 2.28764C153.302 1.28079 154.175 0.75293 155.263 0.75293C155.459 0.75293 155.655 0.77248 155.861 0.801806C156.851 0.967985 157.969 1.76955 158.106 3.14786C158.175 3.82236 158.008 4.69235 157.704 5.32774C155.136 10.5379 152.439 15.8068 149.822 20.8997L147.645 25.1519C146.978 26.4618 146.096 27.0874 144.782 27.1852L144.792 27.1754Z" fill="#343434"/>
<path d="M183.127 93.0017C182.755 92.9137 182.245 92.8062 181.921 92.64C174.372 88.857 167.754 85.4943 161.685 82.3662C160.764 81.8873 159.724 80.9879 159.96 79.4043C160.087 78.5539 160.558 77.1072 162.273 76.8921C162.401 76.8726 162.528 76.8726 162.666 76.8726C163.264 76.8726 163.93 77.0192 164.391 77.244C171.852 80.9097 179.117 84.6439 184.608 87.4885C186.098 88.2607 186.696 89.5119 186.275 91.0271C185.961 92.1708 184.784 92.9333 183.235 93.0408C183.196 93.0408 183.157 93.0213 183.118 93.0115L183.127 93.0017Z" fill="#343434"/>
<path d="M162.077 52.1899C160.773 52.1899 159.685 51.3786 159.293 50.1078C158.783 48.4656 159.636 47.0579 161.509 46.4323C169.784 43.6659 176.558 41.4567 182.843 39.4821C183.274 39.3453 183.706 39.2769 184.108 39.2769C184.941 39.2769 185.686 39.5701 186.206 40.0882C186.735 40.6161 187.01 41.3394 187 42.1899C187 42.9523 186.755 44.3209 185.147 44.8585C178.157 47.2046 170.656 49.6973 163.117 52.014C162.764 52.1215 162.411 52.1802 162.067 52.1802L162.077 52.1899Z" fill="#343434"/>
</g>
<defs>
<clipPath id="clip0_698_237">
<rect width="187" height="137" fill="white"/>
</clipPath>
</defs>
</svg>
