<svg width="137" height="137" viewBox="0 0 137 137" fill="none" xmlns="http://www.w3.org/2000/svg">
<g clip-path="url(#clip0_693_266)">
<path d="M125.276 29.6027C125.702 30.0279 126.268 30.2763 126.864 30.3017C126.898 30.2915 126.932 30.2813 126.966 30.2709C127.455 30.1211 127.935 29.9492 128.402 29.7572C128.452 29.7365 128.502 29.7158 128.551 29.6949C128.584 29.6652 128.617 29.6345 128.648 29.6027C128.733 29.518 128.818 29.4332 128.903 29.3485L127.204 27.6898L126.969 27.9224L126.966 27.9259L125.276 29.6027ZM125.276 29.6027L124.459 28.7791L123.812 28.1309L123.775 28.0936L123.74 27.7875L123.333 24.2827L123.284 23.8652L123.313 23.8938L125.503 26.0303L126.368 26.8749L126.373 26.8793L126.966 27.4577L127.195 27.682L126.966 27.912L126.962 27.9154L125.276 29.6027ZM107.49 11.7622L109.162 10.1009L109.162 10.1009L109.17 10.093L110.834 11.7171L110.806 11.7458L110.805 11.7458L109.134 13.4114L107.49 11.7622ZM107.49 11.7622L109.159 10.0977L109.159 10.0977L109.167 10.0898L108.537 9.47547L108.536 9.47428L107.462 8.42686M107.49 11.7622C107.027 11.2968 106.796 10.6864 106.796 10.0762C106.976 9.51985 107.177 8.99475 107.394 8.50124C107.416 8.47608 107.439 8.45128 107.462 8.42686M107.462 8.42686L108.198 9.13588L108.199 9.13669L109.177 10.0799L109.975 9.28382L109.996 9.2629L110.586 8.67454L110.643 8.6173L110.831 8.42973L110.988 8.27385L109.278 6.53303C109.212 6.601 109.147 6.66895 109.081 6.73685C109.035 6.78423 108.99 6.83158 108.944 6.8789C108.924 6.90013 108.904 6.92135 108.883 6.94256C108.671 7.16406 108.461 7.38464 108.253 7.60323C108.12 7.73937 107.989 7.87721 107.857 8.01505C107.731 8.14829 107.604 8.28154 107.476 8.41325C107.476 8.41325 107.476 8.41326 107.476 8.41326C107.471 8.4178 107.467 8.42233 107.462 8.42686ZM123.26 23.6602L123.289 23.688L125.609 25.9248L126.479 26.7643L126.484 26.7689L126.966 27.2333L127.311 27.5663L128.002 26.8745L128.242 26.6345L128.242 26.6342L128.247 26.6295L128.633 26.2431L128.936 25.9401L128.117 25.1481L128.108 25.1397L127.241 24.3011C127.155 24.3867 127.067 24.4726 126.979 24.5588C126.979 24.5589 126.979 24.5589 126.979 24.5589M123.26 23.6602L126.979 24.5589M123.26 23.6602L123.075 22.0667L123.029 21.6709L122.984 21.2864L122.979 21.2392L122.888 20.4547L123.26 23.6602ZM126.979 24.5589C126.975 24.5544 126.97 24.5498 126.966 24.5453L126.979 24.5589ZM123.727 27.8004L123.759 28.0771L123.604 27.9223L112.51 16.7969V16.0996V16.0971V16.0917V16.0773V13.4518V13.4518V13.3524L114.925 15.7087L114.936 15.7197L114.94 15.7237L114.943 15.7258L123.27 23.8517L123.318 24.2687L123.727 27.8004ZM110.994 8.28063L112.503 9.81736V10.0469L112.507 10.0502L112.503 10.0537L112.272 10.284L112.22 10.3364L111.684 10.8701L111.643 10.9113L110.854 11.6974L109.18 10.083L109.98 9.28854L110.001 9.2676L110.592 8.68055L110.649 8.62343L110.838 8.43605L110.994 8.28063ZM122.875 20.4422C122.876 20.4424 122.876 20.4426 122.876 20.4427L122.967 21.2265L122.972 21.2737L123.017 21.6589L123.062 22.0541L123.207 23.3054L123.207 23.3056L123.246 23.647L115.02 15.714L115.017 15.7118L115.013 15.7079L115.002 15.697L112.51 13.2943V11.7577V11.6566V10.632V10.5275V10.0535L112.692 10.2295C114.376 11.9189 116.053 13.601 117.728 15.2807C117.731 15.2839 117.734 15.2871 117.738 15.2902C117.739 15.2912 117.74 15.2923 117.741 15.2933C117.741 15.2941 117.742 15.2948 117.743 15.2955C118.407 15.9611 119.07 16.6264 119.733 17.2916C120.781 18.3416 121.828 19.3914 122.875 20.4422ZM128.647 26.2572L128.951 25.955L130.667 27.6141C130.55 27.7291 130.433 27.8436 130.317 27.9576C130.204 28.068 130.091 28.1781 129.979 28.2877C129.96 28.3063 129.941 28.3249 129.922 28.3435C129.854 28.411 129.785 28.4786 129.716 28.5465C129.488 28.7708 129.258 28.9968 129.03 29.2234L127.32 27.5746L128.014 26.8857L128.254 26.6469L128.255 26.6462L128.259 26.642L128.647 26.2572Z" fill="#343434" stroke="#343434" stroke-width="62"/>
<mask id="path-2-inside-1_693_266" fill="white">
<path d="M110.977 45.8505C110.344 45.8505 109.737 45.5987 109.288 45.1495C103.566 39.4045 97.7071 33.5303 91.978 27.7854C91.5284 27.3361 91.2832 26.7303 91.2832 26.0973C91.2832 25.4643 91.5353 24.8584 91.9849 24.416C94.0421 22.374 96.2561 20.1754 98.3406 18.0993C98.7902 17.6569 99.3897 17.405 100.023 17.405C100.657 17.405 101.263 17.6569 101.706 18.1061L119.002 35.4566C119.928 36.3891 119.928 37.8934 119.002 38.826C117.224 40.5957 115.255 42.5629 113.321 44.496L112.667 45.1495C112.217 45.5987 111.611 45.8437 110.984 45.8437L110.977 45.8505ZM97.0395 26.1177C101.665 30.7531 106.359 35.4634 110.977 40.0988C111.979 39.0982 112.98 38.1044 113.947 37.1379L100.016 23.1636C99.0287 24.1505 98.0273 25.1443 97.0395 26.1177Z"/>
</mask>
<path d="M110.977 45.8505C110.344 45.8505 109.737 45.5987 109.288 45.1495C103.566 39.4045 97.7071 33.5303 91.978 27.7854C91.5284 27.3361 91.2832 26.7303 91.2832 26.0973C91.2832 25.4643 91.5353 24.8584 91.9849 24.416C94.0421 22.374 96.2561 20.1754 98.3406 18.0993C98.7902 17.6569 99.3897 17.405 100.023 17.405C100.657 17.405 101.263 17.6569 101.706 18.1061L119.002 35.4566C119.928 36.3891 119.928 37.8934 119.002 38.826C117.224 40.5957 115.255 42.5629 113.321 44.496L112.667 45.1495C112.217 45.5987 111.611 45.8437 110.984 45.8437L110.977 45.8505ZM97.0395 26.1177C101.665 30.7531 106.359 35.4634 110.977 40.0988C111.979 39.0982 112.98 38.1044 113.947 37.1379L100.016 23.1636C99.0287 24.1505 98.0273 25.1443 97.0395 26.1177Z" fill="#343434"/>
<path d="M110.977 45.8505V107.851H136.658L154.817 89.6919L110.977 45.8505ZM109.288 45.1495L65.3606 88.9033L65.4126 88.9555L65.4646 89.0075L109.288 45.1495ZM91.978 27.7854L135.879 -15.9946L135.84 -16.0337L135.801 -16.0727L91.978 27.7854ZM91.9849 24.416L135.472 68.6073L135.567 68.5136L135.662 68.4194L91.9849 24.416ZM98.3406 18.0993L54.8535 -26.092L54.721 -25.9616L54.5893 -25.8304L98.3406 18.0993ZM101.706 18.1061L57.5492 61.6284L57.6725 61.7535L57.7966 61.878L101.706 18.1061ZM119.002 35.4566L162.986 -8.24063L162.948 -8.27797L162.911 -8.31524L119.002 35.4566ZM119.002 38.826L162.741 82.768L162.864 82.646L162.986 82.5232L119.002 38.826ZM113.321 44.496L157.144 88.3542L157.144 88.3541L113.321 44.496ZM112.667 45.1495L68.8437 1.29122L68.8435 1.2914L112.667 45.1495ZM110.984 45.8437V-16.1563H85.3034L67.1442 2.00241L110.984 45.8437ZM97.0395 26.1177L53.5219 -18.0436L9.0829 25.7476L53.1519 69.9113L97.0395 26.1177ZM110.977 40.0988L67.0574 83.86L110.88 127.842L154.8 83.9569L110.977 40.0988ZM113.947 37.1379L157.771 80.9959L201.578 37.2234L157.856 -6.63454L113.947 37.1379ZM100.016 23.1636L143.925 -20.6089L100.102 -64.5684L56.1933 -20.6945L100.016 23.1636ZM110.977 -16.1495C126.864 -16.1495 141.995 -9.81565 153.111 1.2914L65.4646 89.0075C77.4797 101.013 93.8237 107.851 110.977 107.851V-16.1495ZM153.215 1.39561C147.477 -4.36512 141.604 -10.2538 135.879 -15.9946L48.0769 71.5653C53.81 77.3143 59.6541 83.1742 65.3606 88.9033L153.215 1.39561ZM135.801 -16.0727C147.238 -4.64454 153.283 10.6336 153.283 26.0973H29.2832C29.2832 42.827 35.8184 59.3168 48.1549 71.6434L135.801 -16.0727ZM153.283 26.0973C153.283 41.9328 146.97 57.2922 135.472 68.6073L48.4977 -19.7753C36.1002 -7.57525 29.2832 8.99567 29.2832 26.0973H153.283ZM135.662 68.4194C137.723 66.3743 139.968 64.1445 142.092 62.029L54.5893 -25.8304C52.5443 -23.7937 50.3618 -21.6263 48.3076 -19.5874L135.662 68.4194ZM141.828 62.2906C130.958 72.9872 116.046 79.405 100.023 79.405V-44.595C82.733 -44.595 66.6226 -37.6735 54.8535 -26.092L141.828 62.2906ZM100.023 79.405C84.2202 79.405 68.8719 73.1161 57.5492 61.6284L145.863 -25.4161C133.654 -37.8024 117.093 -44.595 100.023 -44.595V79.405ZM57.7966 61.878L75.0927 79.2284L162.911 -8.31524L145.615 -25.6657L57.7966 61.878ZM75.0185 79.1538C51.923 55.907 51.923 18.3755 75.0185 -4.87128L162.986 82.5232C187.934 57.4113 187.934 16.8712 162.986 -8.24063L75.0185 79.1538ZM75.2631 -5.11613C73.4349 -3.29642 71.422 -1.28507 69.4975 0.637947L157.144 88.3541C159.089 86.4108 161.013 84.4879 162.741 82.768L75.2631 -5.11613ZM69.4976 0.637774L68.8437 1.29122L156.49 89.0077L157.144 88.3542L69.4976 0.637774ZM68.8435 1.2914C80.2135 -10.0696 95.4519 -16.1563 110.984 -16.1563V107.844C127.77 107.844 144.221 101.267 156.49 89.0075L68.8435 1.2914ZM67.1442 2.00241L67.1373 2.00922L154.817 89.6919L154.824 89.6851L67.1442 2.00241ZM53.1519 69.9113C57.759 74.5283 62.4374 79.2234 67.0574 83.86L154.897 -3.66239C150.28 -8.29654 145.571 -13.0221 140.927 -17.6759L53.1519 69.9113ZM154.8 83.9569C155.257 83.5003 155.721 83.0387 156.223 82.5389C156.712 82.052 157.243 81.5235 157.771 80.9959L70.1242 -6.72018C69.6849 -6.28122 69.2313 -5.8295 68.7273 -5.32772C68.2364 -4.83887 67.6985 -4.3032 67.1541 -3.75923L154.8 83.9569ZM157.856 -6.63454L143.925 -20.6089L56.1077 66.936L70.0387 80.9103L157.856 -6.63454ZM56.1933 -20.6945C55.305 -19.807 54.4055 -18.9143 53.5219 -18.0436L140.557 70.279C141.649 69.203 142.752 68.108 143.84 67.0216L56.1933 -20.6945Z" fill="#343434" mask="url(#path-2-inside-1_693_266)"/>
<mask id="path-4-inside-2_693_266" fill="white">
<path d="M30.1506 126.558C29.5171 126.558 28.9108 126.306 28.468 125.857C22.7798 120.16 16.9145 114.279 11.1651 108.514C10.2386 107.581 10.2386 106.077 11.1651 105.144L82.6795 33.7343C83.1291 33.2851 83.7353 33.04 84.3621 33.04C84.9956 33.04 85.6019 33.2919 86.0515 33.7411L103.361 51.112C104.288 52.0446 104.288 53.5489 103.361 54.4814C87.9998 69.8102 72.5838 85.2004 57.1542 100.597L31.8333 125.871C31.3836 126.32 30.7774 126.565 30.1506 126.565V126.558ZM16.2197 106.839C20.8588 111.488 25.5592 116.198 30.1575 120.807L53.7889 97.2211C68.6531 82.3892 83.5037 67.5572 98.3134 52.7865L84.3689 38.7918L16.2197 106.839Z"/>
</mask>
<path d="M30.1506 126.558C29.5171 126.558 28.9108 126.306 28.468 125.857C22.7798 120.16 16.9145 114.279 11.1651 108.514C10.2386 107.581 10.2386 106.077 11.1651 105.144L82.6795 33.7343C83.1291 33.2851 83.7353 33.04 84.3621 33.04C84.9956 33.04 85.6019 33.2919 86.0515 33.7411L103.361 51.112C104.288 52.0446 104.288 53.5489 103.361 54.4814C87.9998 69.8102 72.5838 85.2004 57.1542 100.597L31.8333 125.871C31.3836 126.32 30.7774 126.565 30.1506 126.565V126.558ZM16.2197 106.839C20.8588 111.488 25.5592 116.198 30.1575 120.807L53.7889 97.2211C68.6531 82.3892 83.5037 67.5572 98.3134 52.7865L84.3689 38.7918L16.2197 106.839Z" fill="#343434"/>
<path d="M30.1506 126.558H92.1506V64.5583H30.1506V126.558ZM28.468 125.857L72.6247 82.335L72.4846 82.1929L72.3436 82.0516L28.468 125.857ZM11.1651 108.514L-32.8185 152.211L-32.7772 152.252L-32.7359 152.294L11.1651 108.514ZM11.1651 105.144L-32.6435 61.2716L-32.7312 61.3591L-32.8185 61.447L11.1651 105.144ZM82.6795 33.7343L126.488 77.607L126.495 77.5997L126.503 77.5924L82.6795 33.7343ZM86.0515 33.7411L129.969 -10.0222L129.922 -10.0696L129.875 -10.1169L86.0515 33.7411ZM103.361 51.112L147.345 7.4148L147.312 7.38174L147.279 7.34873L103.361 51.112ZM103.361 54.4814L147.155 98.3686L147.25 98.2738L147.345 98.1786L103.361 54.4814ZM57.1542 100.597L13.3601 56.7102L13.3546 56.7157L57.1542 100.597ZM31.8333 125.871L-11.9663 81.9892L-11.9781 82.001L-11.9899 82.0128L31.8333 125.871ZM30.1506 126.565H-31.8494V188.565H30.1506V126.565ZM16.2197 106.839L-27.5881 62.9657L-71.4474 106.76L-27.6677 150.633L16.2197 106.839ZM30.1575 120.807L-13.7306 164.6L30.0673 208.493L73.9553 164.69L30.1575 120.807ZM53.7889 97.2211L9.99594 53.333L9.99107 53.3378L53.7889 97.2211ZM98.3134 52.7865L142.096 96.6849L185.974 52.923L142.233 9.02467L98.3134 52.7865ZM84.3689 38.7918L128.288 -4.97007L84.4804 -48.9354L40.561 -5.08162L84.3689 38.7918ZM30.1506 64.5583C45.9537 64.5583 61.302 70.8472 72.6247 82.335L-15.6887 169.379C-3.48039 181.766 13.0806 188.558 30.1506 188.558V64.5583ZM72.3436 82.0516C66.6698 76.3687 60.8162 70.4995 55.066 64.7334L-32.7359 152.294C-26.9872 158.058 -21.1101 163.951 -15.4076 169.663L72.3436 82.0516ZM55.1486 64.8164C78.2441 88.0632 78.2441 125.595 55.1486 148.841L-32.8185 61.447C-57.7669 86.5589 -57.7669 127.099 -32.8185 152.211L55.1486 64.8164ZM54.9736 149.017L126.488 77.607L38.8709 -10.1383L-32.6435 61.2716L54.9736 149.017ZM126.503 77.5924C115.133 88.9531 99.8946 95.04 84.3621 95.04V-28.96C67.5761 -28.96 51.1253 -22.383 38.8563 -10.1237L126.503 77.5924ZM84.3621 95.04C68.4755 95.04 53.3441 88.7061 42.2283 77.5992L129.875 -10.1169C117.86 -22.1224 101.516 -28.96 84.3621 -28.96V95.04ZM42.1337 77.5044L59.4435 94.8753L147.279 7.34873L129.969 -10.0222L42.1337 77.5044ZM59.3777 94.8093C36.2822 71.5625 36.2822 34.031 59.3777 10.7842L147.345 98.1786C172.293 73.0667 172.293 32.5267 147.345 7.4148L59.3777 94.8093ZM59.5673 10.5942C44.4443 25.685 28.5381 41.5643 13.3601 56.7102L100.948 144.484C116.629 128.836 131.555 113.936 147.155 98.3686L59.5673 10.5942ZM13.3546 56.7157L-11.9663 81.9892L75.6328 169.753L100.954 144.479L13.3546 56.7157ZM-11.9899 82.0128C-0.619689 70.6516 14.6188 64.5652 30.1506 64.5652V188.565C46.9359 188.565 63.387 181.989 75.6564 169.729L-11.9899 82.0128ZM92.1506 126.565V126.558H-31.8494V126.565H92.1506ZM-27.6677 150.633C-23.0273 155.283 -18.3286 159.992 -13.7306 164.6L74.0455 77.0135C69.4471 72.4051 64.7449 67.6931 60.1072 63.0454L-27.6677 150.633ZM73.9553 164.69L97.5868 141.104L9.99107 53.3378L-13.6404 76.9233L73.9553 164.69ZM97.5819 141.109C112.48 126.243 127.286 111.456 142.096 96.6849L54.5307 8.88812C39.7215 23.6583 24.8259 38.5351 9.99594 53.333L97.5819 141.109ZM142.233 9.02467L128.288 -4.97007L40.4496 82.5536L54.3942 96.5483L142.233 9.02467ZM40.561 -5.08162L-27.5881 62.9657L60.0275 150.713L128.177 82.6651L40.561 -5.08162Z" fill="#343434" mask="url(#path-4-inside-2_693_266)"/>
<mask id="path-6-inside-3_693_266" fill="white">
<path d="M2.38452 137C1.75779 137 1.15151 136.755 0.701905 136.306C0.122868 135.727 -0.122371 134.89 0.0615586 134.087L3.72652 118.084C3.91726 117.24 4.55761 116.566 5.3955 116.328C6.22659 116.083 7.1258 116.328 7.7389 116.934L20.0553 129.274C20.6684 129.887 20.9001 130.786 20.6548 131.616C20.4096 132.446 19.742 133.086 18.8973 133.277C13.7677 134.448 8.54955 135.646 2.91587 136.939C2.73875 136.98 2.56163 137 2.38452 137ZM7.41191 123.353L5.559 131.446C8.32475 130.813 11.0088 130.193 13.6383 129.594L7.41191 123.353Z"/>
</mask>
<path d="M2.38452 137C1.75779 137 1.15151 136.755 0.701905 136.306C0.122868 135.727 -0.122371 134.89 0.0615586 134.087L3.72652 118.084C3.91726 117.24 4.55761 116.566 5.3955 116.328C6.22659 116.083 7.1258 116.328 7.7389 116.934L20.0553 129.274C20.6684 129.887 20.9001 130.786 20.6548 131.616C20.4096 132.446 19.742 133.086 18.8973 133.277C13.7677 134.448 8.54955 135.646 2.91587 136.939C2.73875 136.98 2.56163 137 2.38452 137ZM7.41191 123.353L5.559 131.446C8.32475 130.813 11.0088 130.193 13.6383 129.594L7.41191 123.353Z" fill="#343434"/>
<path d="M0.0615586 134.087L-60.3738 120.246L-60.3741 120.247L0.0615586 134.087ZM3.72652 118.084L64.1618 131.925L64.1818 131.838L64.2015 131.751L3.72652 118.084ZM5.3955 116.328L22.3517 175.964L22.6411 175.882L22.9298 175.797L5.3955 116.328ZM7.7389 116.934L51.6226 73.1362L51.47 72.9833L51.3164 72.8315L7.7389 116.934ZM20.0553 129.274L-23.8284 173.072L-23.7981 173.102L-23.7678 173.132L20.0553 129.274ZM18.8973 133.277L5.25143 72.7971L5.17633 72.8141L5.10128 72.8312L18.8973 133.277ZM2.91587 136.939L-10.9562 76.5106L-10.9856 76.5174L-11.0149 76.5241L2.91587 136.939ZM7.41191 123.353L51.3069 79.5663L-27.9719 0.0905228L-53.0244 109.516L7.41191 123.353ZM5.559 131.446L-54.8773 117.609L-76.9294 213.929L19.392 191.883L5.559 131.446ZM13.6383 129.594L27.409 190.046L136.682 165.154L57.5332 85.8081L13.6383 129.594ZM2.38452 75.0001C17.9171 75.0001 33.1553 81.087 44.5251 92.4477L-43.1213 180.164C-30.8523 192.423 -14.4015 199 2.38452 199V75.0001ZM44.5251 92.4477C58.9341 106.845 65.1144 127.763 60.4972 147.926L-60.3741 120.247C-65.3592 142.017 -58.6884 164.609 -43.1213 180.164L44.5251 92.4477ZM60.4969 147.928L64.1618 131.925L-56.7088 104.243L-60.3738 120.246L60.4969 147.928ZM64.2015 131.751C59.35 153.219 43.161 170.048 22.3517 175.964L-11.5607 56.6916C-34.0458 63.0847 -51.5155 81.2614 -56.7485 104.418L64.2015 131.751ZM22.9298 175.797C1.17488 182.211 -21.1037 175.595 -35.8386 161.036L51.3164 72.8315C35.3553 57.0603 11.2783 49.9546 -12.1387 56.859L22.9298 175.797ZM-36.1448 160.731L-23.8284 173.072L63.939 85.4769L51.6226 73.1362L-36.1448 160.731ZM-23.7678 173.132C-39.1072 157.805 -45.0449 135.18 -38.8065 114.056L80.1161 149.176C86.845 126.391 80.4441 101.969 63.8785 85.4163L-23.7678 173.132ZM-38.8065 114.056C-32.8587 93.9157 -16.4109 77.6847 5.25143 72.7971L32.5431 193.756C55.8949 188.488 73.6779 170.977 80.1161 149.176L-38.8065 114.056ZM5.10128 72.8312C-0.0734238 74.0122 -5.33114 75.2193 -10.9562 76.5106L16.788 197.367C22.4302 196.072 27.6088 194.883 32.6933 193.722L5.10128 72.8312ZM-11.0149 76.5241C-6.74537 75.5396 -2.25059 75.0001 2.38452 75.0001V199C7.37386 199 12.2229 198.42 16.8466 197.354L-11.0149 76.5241ZM-53.0244 109.516L-54.8773 117.609L65.9953 145.282L67.8482 137.189L-53.0244 109.516ZM19.392 191.883C22.3366 191.209 24.7881 190.643 27.409 190.046L-0.132445 69.143C-2.77058 69.7439 -5.6871 70.4165 -8.27397 71.0086L19.392 191.883ZM57.5332 85.8081L51.3069 79.5663L-36.4831 167.139L-30.2567 173.381L57.5332 85.8081Z" fill="#343434" mask="url(#path-6-inside-3_693_266)"/>
</g>
<defs>
<clipPath id="clip0_693_266">
<rect width="137" height="137" fill="white"/>
</clipPath>
</defs>
</svg>
