<svg width="43" height="42" viewBox="0 0 43 42" fill="none" xmlns="http://www.w3.org/2000/svg">
<path d="M7.51872 0H34.9399C39.0973 0 42.4586 3.36131 42.4586 7.51872V33.8785C42.4586 38.0359 39.0973 41.3972 34.9399 41.3972H7.51872C3.36131 41.3972 0 38.0359 0 33.8785V7.51872C0 3.36131 3.36131 0 7.51872 0Z" fill="#001E36"/>
<path d="M9.55078 29.0308V10.8266C9.55078 10.7028 9.60385 10.632 9.72769 10.632C10.0284 10.632 10.3115 10.632 10.7184 10.6143C11.143 10.5966 11.5853 10.5966 12.0629 10.579C12.5406 10.5613 13.0536 10.5613 13.602 10.5436C14.1505 10.5259 14.6812 10.5259 15.2119 10.5259C16.6626 10.5259 17.8656 10.7028 18.8563 11.0743C19.7409 11.3751 20.5546 11.8704 21.2269 12.525C21.793 13.0911 22.2353 13.781 22.5184 14.5418C22.7837 15.2848 22.9253 16.0455 22.9253 16.8416C22.9253 18.363 22.5714 19.6191 21.8638 20.6098C21.1561 21.6005 20.1654 22.3435 19.0155 22.7681C17.8125 23.2104 16.4857 23.3696 15.035 23.3696C14.6104 23.3696 14.3274 23.3696 14.1505 23.3519C13.9736 23.3342 13.7259 23.3342 13.3897 23.3342V29.0131C13.4074 29.1369 13.319 29.2431 13.1951 29.2608C13.1775 29.2608 13.1598 29.2608 13.1244 29.2608H9.76307C9.62155 29.2608 9.55078 29.19 9.55078 29.0308ZM13.4074 14.0464V19.9906C13.6551 20.0083 13.8851 20.026 14.0974 20.026H15.035C15.725 20.026 16.4149 19.9199 17.0695 19.7076C17.6356 19.5483 18.131 19.2122 18.5202 18.7699C18.8917 18.3277 19.0686 17.7262 19.0686 16.9477C19.0863 16.3993 18.9448 15.8509 18.6617 15.3732C18.3609 14.9133 17.9364 14.5594 17.4233 14.3648C16.7687 14.0995 16.0611 13.9933 15.3358 14.011C14.8758 14.011 14.4689 14.011 14.1328 14.0287C13.779 14.011 13.5313 14.0287 13.4074 14.0464Z" fill="#31A8FF"/>
<path d="M33.964 18.9115C33.4332 18.6285 32.8671 18.4339 32.2656 18.31C31.6111 18.1685 30.9565 18.08 30.2842 18.08C29.9304 18.0623 29.5589 18.1154 29.2228 18.2039C28.9928 18.2569 28.7982 18.3808 28.6743 18.5577C28.5859 18.6992 28.5328 18.8761 28.5328 19.0354C28.5328 19.1946 28.6036 19.3538 28.7097 19.4953C28.8689 19.6899 29.0812 19.8491 29.3112 19.973C29.7181 20.1853 30.1427 20.3799 30.5673 20.5568C31.5226 20.8752 32.4425 21.3175 33.2917 21.8482C33.8755 22.2198 34.3532 22.7151 34.6893 23.3166C34.9724 23.8827 35.1139 24.5019 35.0962 25.1388C35.1139 25.9703 34.8662 26.8017 34.4063 27.4917C33.9109 28.1993 33.221 28.7478 32.4249 29.0662C31.558 29.4377 30.4965 29.6323 29.2228 29.6323C28.409 29.6323 27.6129 29.5616 26.8168 29.4023C26.1976 29.2962 25.5784 29.1016 25.0123 28.8362C24.8884 28.7655 24.8 28.6416 24.8177 28.5001V25.4218C24.8177 25.3688 24.8354 25.298 24.8884 25.2626C24.9415 25.2272 24.9946 25.2449 25.0477 25.2803C25.7376 25.6872 26.463 25.9703 27.2414 26.1472C27.9136 26.3241 28.6213 26.4125 29.3289 26.4125C30.0012 26.4125 30.4788 26.3241 30.7973 26.1649C31.0803 26.041 31.2749 25.7403 31.2749 25.4218C31.2749 25.1742 31.1334 24.9442 30.8503 24.7142C30.5673 24.4842 29.9835 24.2188 29.1166 23.8827C28.2144 23.5643 27.3829 23.1397 26.6045 22.609C26.0561 22.2198 25.5961 21.7067 25.26 21.1052C24.9769 20.5391 24.8354 19.9199 24.8531 19.3007C24.8531 18.54 25.0654 17.8147 25.4546 17.1601C25.8968 16.4525 26.5514 15.8863 27.3121 15.5325C28.1436 15.1079 29.1874 14.9133 30.4435 14.9133C31.1688 14.9133 31.9118 14.9664 32.6371 15.0725C33.1679 15.1433 33.6809 15.2848 34.1586 15.4794C34.2293 15.4971 34.3001 15.5679 34.3355 15.6387C34.3532 15.7094 34.3709 15.7802 34.3709 15.851V18.7346C34.3709 18.8054 34.3355 18.8761 34.2824 18.9115C34.1232 18.9469 34.0347 18.9469 33.964 18.9115Z" fill="#31A8FF"/>
</svg>
