<svg width="18" height="18" viewBox="0 0 18 18" fill="none" xmlns="http://www.w3.org/2000/svg">
<path d="M9.26347 0.646446C9.0682 0.451184 8.75162 0.451184 8.55636 0.646446C8.3611 0.841708 8.3611 1.15829 8.55636 1.35355L9.26347 0.646446ZM16.8198 8.90991L17.1734 9.26346C17.3686 9.0682 17.3686 8.75162 17.1734 8.55636L16.8198 8.90991ZM8.55636 16.4663L8.20281 16.8198L8.90991 17.5269L9.26347 17.1734L8.55636 16.4663ZM8.55636 1.35355L16.4663 9.26346L17.1734 8.55636L9.26347 0.646446L8.55636 1.35355ZM16.4663 8.55636L8.55636 16.4663L9.26347 17.1734L17.1734 9.26346L16.4663 8.55636Z" fill="black"/>
<path d="M16.8198 9.40991C17.096 9.40991 17.3198 9.18605 17.3198 8.90991C17.3198 8.63377 17.096 8.40991 16.8198 8.40991L16.8198 9.40991ZM1 8.40991L0.5 8.40991L0.5 9.40991L1 9.40991L1 8.40991ZM16.8198 8.40991L1 8.40991L1 9.40991L16.8198 9.40991L16.8198 8.40991Z" fill="black"/>
</svg>
