<svg width="76" height="32" viewBox="0 0 76 32" fill="none" xmlns="http://www.w3.org/2000/svg">
<path fill-rule="evenodd" clip-rule="evenodd" d="M7.88756 14.0525C6.2617 13.4541 5.37328 12.9827 5.37328 12.2514C5.37328 11.6288 5.88694 11.2722 6.79355 11.2722C8.46172 11.2722 10.1722 11.9189 11.3508 12.4931L12.0157 8.37711C11.0789 7.92984 9.1689 7.19851 6.52159 7.19851C4.65397 7.19851 3.09459 7.68808 1.98248 8.60074C0.828058 9.5557 0.223702 10.9338 0.223702 12.6019C0.223702 15.624 2.06716 16.9174 5.07107 18.0053C7.00518 18.6944 7.65191 19.1839 7.65191 19.9394C7.65191 20.695 7.02927 21.0939 5.89299 21.0939C4.49076 21.0939 2.18197 20.4048 0.664909 19.5164L0 23.6747C1.28739 24.406 3.69293 25.1615 6.18309 25.1615C8.15951 25.1615 9.8096 24.6961 10.9217 23.8077C12.1668 22.8285 12.8134 21.384 12.8134 19.5164C12.8134 16.4278 10.9217 15.1344 7.87546 14.0465L7.88756 14.0525ZM23.6867 11.6288L24.3517 7.53698H20.8279V2.56874L16.0955 3.34842L15.4124 7.53698L13.7442 7.80896L13.1217 11.6288H15.4064V19.6554C15.4064 21.7466 15.9382 23.1912 17.0322 24.0796C17.9449 24.811 19.2566 25.1676 21.1 25.1676C22.5204 25.1676 23.3906 24.9258 23.9889 24.7687V20.4351C23.6565 20.5257 22.9011 20.6768 22.3873 20.6768C21.2994 20.6768 20.8279 20.1208 20.8279 18.8515V11.6228H23.6807L23.6867 11.6288ZM34.2639 7.30126C32.7045 7.30126 31.4595 8.11721 30.9699 9.58592L30.6374 7.54302H25.8143V24.8412H31.3266V13.6113C32.0156 12.7651 32.9947 12.4629 34.3304 12.4629C34.6206 12.4629 34.9289 12.4629 35.3097 12.5294V7.43423C34.9289 7.34357 34.5963 7.30126 34.2639 7.30126ZM39.4195 5.8265C41.0212 5.8265 42.3086 4.51493 42.3086 2.91325C42.3086 1.31157 41.0212 0 39.4195 0C37.8178 0 36.5064 1.28739 36.5064 2.91325C36.5064 4.53911 37.7937 5.8265 39.4195 5.8265ZM36.6454 7.53698H42.1817V24.8352H36.6454V7.53698ZM57.8721 9.09635C56.893 7.82709 55.5391 7.20455 53.8045 7.20455C52.2028 7.20455 50.8006 7.8694 49.4891 9.27163L49.199 7.53698H44.3516V31.2419L49.8637 30.3292V24.7687C50.7099 25.0346 51.5743 25.1676 52.354 25.1676C53.732 25.1676 55.7326 24.811 57.2919 23.1247C58.7788 21.4988 59.5403 18.9905 59.5403 15.6723C59.5403 12.7349 58.9842 10.5107 57.8721 9.09031V9.09635ZM53.2908 19.7702C52.8436 20.6164 52.1544 21.0576 51.3566 21.0576C50.8005 21.0576 50.311 20.9488 49.8698 20.7252V12.4992C50.8066 11.52 51.6467 11.4112 51.961 11.4112C53.3632 11.4112 54.0522 12.9223 54.0522 15.8839C54.0522 17.5762 53.8105 18.8878 53.2967 19.7763L53.2908 19.7702ZM75.3517 16.035C75.3517 13.2789 74.7533 11.0969 73.5747 9.56175C72.3719 8.00237 70.5707 7.20455 68.28 7.20455C63.5898 7.20455 60.6767 10.6739 60.6767 16.2344C60.6767 19.3471 61.4563 21.6801 62.9915 23.173C64.3695 24.5088 66.352 25.1736 68.9086 25.1736C71.2658 25.1736 73.4478 24.6176 74.8258 23.7049L74.2275 19.9274C72.8736 20.6587 71.29 21.0636 69.5131 21.0636C68.4433 21.0636 67.712 20.84 67.1801 20.3746C66.5999 19.885 66.2674 19.0872 66.1586 17.9509H75.2973C75.3215 17.685 75.3637 16.4399 75.3637 16.041L75.3517 16.035ZM66.0982 14.5663C66.2554 12.1003 66.9202 10.9398 68.1894 10.9398C69.4587 10.9398 70.0812 12.1184 70.1659 14.5663H66.0982Z" fill="#A6A6A6"/>
</svg>
