<svg width="43" height="42" viewBox="0 0 43 42" fill="none" xmlns="http://www.w3.org/2000/svg">
<path d="M7.51872 0H34.9399C39.0973 0 42.4586 3.36131 42.4586 7.51872V33.8785C42.4586 38.0359 39.0973 41.3972 34.9399 41.3972H7.51872C3.36131 41.3972 0 38.0359 0 33.8785V7.51872C0 3.36131 3.36131 0 7.51872 0Z" fill="#470137"/>
<path d="M22.3287 10.8794L17.0214 19.6365L22.6825 28.9243C22.7179 28.9951 22.7356 29.0658 22.7179 29.1366C22.7002 29.2074 22.6295 29.1543 22.5233 29.172H18.4721C18.189 29.172 17.9944 29.1543 17.8706 28.9774C17.4991 28.2343 17.1098 27.509 16.7383 26.766C16.3668 26.0407 15.9599 25.2976 15.5353 24.5369C15.1108 23.7762 14.6862 23.0155 14.2616 22.2371H14.2262C13.8547 22.9978 13.4478 23.7585 13.0409 24.5192C12.634 25.2799 12.2271 26.0407 11.8379 26.7837C11.431 27.5267 11.0241 28.2874 10.6172 29.0128C10.5465 29.1897 10.4049 29.2074 10.2103 29.2074H6.31828C6.24751 29.2074 6.19444 29.2427 6.19444 29.1543C6.17675 29.0835 6.19444 29.0128 6.22982 28.9597L11.7318 19.9372L6.37135 10.8617C6.31828 10.7909 6.30059 10.7202 6.33597 10.6848C6.37135 10.6317 6.44212 10.614 6.51288 10.614H10.5288C10.6172 10.614 10.7057 10.6317 10.7764 10.6494C10.8472 10.6848 10.9003 10.7379 10.9533 10.8086C11.2895 11.5693 11.6787 12.3301 12.0856 13.0908C12.5102 13.8515 12.9171 14.5945 13.3593 15.3375C13.7839 16.0806 14.1731 16.8236 14.5446 17.5843H14.58C14.9515 16.8059 15.3407 16.0452 15.7299 15.3022C16.1191 14.5591 16.526 13.8161 16.9329 13.0731C17.3398 12.3301 17.729 11.5693 18.1182 10.844C18.1359 10.7732 18.1713 10.7025 18.2244 10.6671C18.2952 10.6317 18.3659 10.614 18.4544 10.6317H22.1872C22.2756 10.614 22.3641 10.6671 22.3818 10.7555C22.3995 10.7732 22.3641 10.844 22.3287 10.8794Z" fill="#FF61F6"/>
<path d="M30.5013 29.5436C29.1922 29.5613 27.8831 29.2959 26.6978 28.7475C25.5832 28.2345 24.6633 27.3853 24.0264 26.3415C23.3718 25.2624 23.0534 23.9178 23.0534 22.308C23.0357 20.9988 23.3718 19.7074 24.0264 18.5751C24.6987 17.4252 25.6717 16.4699 26.8393 15.833C28.0777 15.1431 29.5637 14.8069 31.3151 14.8069C31.4036 14.8069 31.5274 14.8069 31.6867 14.8246C31.8459 14.8423 32.0228 14.8423 32.2351 14.86V9.26962C32.2351 9.14578 32.2882 9.07502 32.412 9.07502H36.0033C36.0917 9.05732 36.1625 9.12809 36.1802 9.19885C36.1802 9.21654 36.1802 9.23424 36.1802 9.23424V26.0762C36.1802 26.3946 36.1979 26.7484 36.2156 27.1376C36.251 27.5091 36.2687 27.863 36.2863 28.1637C36.2863 28.2875 36.2333 28.3937 36.1094 28.4468C35.1895 28.836 34.2165 29.119 33.2258 29.2959C32.3235 29.4552 31.4213 29.5436 30.5013 29.5436ZM32.2351 26.0054V18.2213C32.0759 18.1859 31.9166 18.1505 31.7574 18.1329C31.5628 18.1152 31.3682 18.0975 31.1736 18.0975C30.4837 18.0975 29.7937 18.239 29.1745 18.5574C28.573 18.8582 28.06 19.3005 27.6708 19.8666C27.2816 20.4327 27.087 21.1934 27.087 22.1134C27.0693 22.7325 27.1754 23.3517 27.3877 23.9355C27.5646 24.4132 27.83 24.8378 28.1838 25.1916C28.5199 25.51 28.9268 25.7577 29.3868 25.8993C29.8645 26.0585 30.3598 26.1292 30.8552 26.1292C31.1205 26.1292 31.3682 26.1115 31.5982 26.0939C31.8282 26.1115 32.0228 26.0762 32.2351 26.0054Z" fill="#FF61F6"/>
</svg>
